<?xml version="1.0" encoding="UTF-8" standalone="no"?>
<!DOCTYPE svg PUBLIC "-//W3C//DTD SVG 1.1//EN"
 "http://www.w3.org/Graphics/SVG/1.1/DTD/svg11.dtd">
<!-- Generated by graphviz version 2.40.1 (20161225.0304)
 -->
<!-- Title: Pipeline Pages: 1 -->
<svg width="2443pt" height="996pt"
 viewBox="0.00 0.00 2443.00 996.00" xmlns="http://www.w3.org/2000/svg" xmlns:xlink="http://www.w3.org/1999/xlink">
<g id="graph0" class="graph" transform="scale(1 1) rotate(0) translate(4 992)">
<title>Pipeline</title>
<polygon fill="#ffffff" stroke="transparent" points="-4,4 -4,-992 2439,-992 2439,4 -4,4"/>
<g id="clust3" class="cluster">
<title>clustermaps</title>
<polygon fill="none" stroke="#000000" points="8,-64 8,-692 1339,-692 1339,-64 8,-64"/>
</g>
<g id="clust10" class="cluster">
<title>clusterT1 data</title>
<polygon fill="none" stroke="#000000" points="1357,-280 1357,-548 1843,-548 1843,-280 1357,-280"/>
</g>
<g id="clust12" class="cluster">
<title>clusterDTI</title>
<polygon fill="none" stroke="#000000" points="1851,-136 1851,-980 2427,-980 2427,-136 1851,-136"/>
</g>
<!-- T1 image -->
<g id="node1" class="node">
<title>T1 image</title>
<polygon fill="none" stroke="#ff0000" points="1215,-684 1138.9193,-666 1215,-648 1291.0807,-666 1215,-684"/>
<text text-anchor="middle" x="1215" y="-662.3" font-family="Times,serif" font-size="14.00" fill="#ff0000">T1 image</text>
</g>
<!-- Brain extraction (BET) -->
<g id="node31" class="node">
<title>Brain extraction (BET)</title>
<ellipse fill="none" stroke="#000000" cx="1215" cy="-594" rx="116.1796" ry="18"/>
<text text-anchor="middle" x="1215" y="-590.3" font-family="Times,serif" font-size="14.00" fill="#000000">Brain extraction (BET)</text>
</g>
<!-- T1 image&#45;&gt;Brain extraction (BET) -->
<g id="edge1" class="edge">
<title>T1 image&#45;&gt;Brain extraction (BET)</title>
<path fill="none" stroke="#000000" d="M1215,-647.8314C1215,-640.131 1215,-630.9743 1215,-622.4166"/>
<polygon fill="#000000" stroke="#000000" points="1218.5001,-622.4132 1215,-612.4133 1211.5001,-622.4133 1218.5001,-622.4132"/>
</g>
<!-- Reference to T1 non&#45;linear registration (FNIRT) -->
<g id="node37" class="node">
<title>Reference to T1 non&#45;linear registration (FNIRT)</title>
<ellipse fill="none" stroke="#000000" cx="733" cy="-594" rx="234.7584" ry="18"/>
<text text-anchor="middle" x="733" y="-590.3" font-family="Times,serif" font-size="14.00" fill="#000000">Reference to T1 non&#45;linear registration (FNIRT)</text>
</g>
<!-- T1 image&#45;&gt;Reference to T1 non&#45;linear registration (FNIRT) -->
<g id="edge13" class="edge">
<title>T1 image&#45;&gt;Reference to T1 non&#45;linear registration (FNIRT)</title>
<path fill="none" stroke="#000000" d="M1168.3459,-659.0309C1095.523,-648.1528 952.599,-626.8032 850.3723,-611.5328"/>
<polygon fill="#000000" stroke="#000000" points="850.7068,-608.044 840.2994,-610.0281 849.6725,-614.9672 850.7068,-608.044"/>
</g>
<!-- Non&#45;uniformity correction (mri_nu_correct.mni) -->
<g id="node41" class="node">
<title>Non&#45;uniformity correction (mri_nu_correct.mni)</title>
<ellipse fill="none" stroke="#000000" cx="1600" cy="-522" rx="235.0585" ry="18"/>
<text text-anchor="middle" x="1600" y="-518.3" font-family="Times,serif" font-size="14.00" fill="#000000">Non&#45;uniformity correction (mri_nu_correct.mni)</text>
</g>
<!-- T1 image&#45;&gt;Non&#45;uniformity correction (mri_nu_correct.mni) -->
<g id="edge25" class="edge">
<title>T1 image&#45;&gt;Non&#45;uniformity correction (mri_nu_correct.mni)</title>
<path fill="none" stroke="#000000" d="M1244.571,-654.9397C1308.4247,-631.0567 1460.1321,-574.3142 1543.2092,-543.2412"/>
<polygon fill="#000000" stroke="#000000" points="1544.6046,-546.4562 1552.7447,-539.6747 1542.1523,-539.8998 1544.6046,-546.4562"/>
</g>
<!-- MNI reference -->
<g id="node2" class="node">
<title>MNI reference</title>
<polygon fill="none" stroke="#ff0000" points="927,-684 813.8873,-666 927,-648 1040.1127,-666 927,-684"/>
<text text-anchor="middle" x="927" y="-662.3" font-family="Times,serif" font-size="14.00" fill="#ff0000">MNI reference</text>
</g>
<!-- MNI reference&#45;&gt;Reference to T1 non&#45;linear registration (FNIRT) -->
<g id="edge14" class="edge">
<title>MNI reference&#45;&gt;Reference to T1 non&#45;linear registration (FNIRT)</title>
<path fill="none" stroke="#000000" d="M892.7633,-653.2936C864.4482,-642.7849 823.629,-627.6355 790.3389,-615.2804"/>
<polygon fill="#000000" stroke="#000000" points="791.3128,-611.9086 780.7198,-611.7104 788.8771,-618.4713 791.3128,-611.9086"/>
</g>
<!-- MNI reference brain -->
<g id="node3" class="node">
<title>MNI reference brain</title>
<polygon fill="none" stroke="#ff0000" points="901,-252 749.1779,-234 901,-216 1052.8221,-234 901,-252"/>
<text text-anchor="middle" x="901" y="-230.3" font-family="Times,serif" font-size="14.00" fill="#ff0000">MNI reference brain</text>
</g>
<!-- Linear registration (FLIRT) -->
<g id="node35" class="node">
<title>Linear registration (FLIRT)</title>
<ellipse fill="none" stroke="#000000" cx="741" cy="-162" rx="138.3755" ry="18"/>
<text text-anchor="middle" x="741" y="-158.3" font-family="Times,serif" font-size="14.00" fill="#000000">Linear registration (FLIRT)</text>
</g>
<!-- MNI reference brain&#45;&gt;Linear registration (FLIRT) -->
<g id="edge10" class="edge">
<title>MNI reference brain&#45;&gt;Linear registration (FLIRT)</title>
<path fill="none" stroke="#000000" d="M869.0062,-219.6028C846.1019,-209.2958 814.8665,-195.2399 788.9849,-183.5932"/>
<polygon fill="#000000" stroke="#000000" points="790.2727,-180.3347 779.7172,-179.4227 787.4001,-186.7182 790.2727,-180.3347"/>
</g>
<!-- Lobe map (reference space) -->
<g id="node4" class="node">
<title>Lobe map (reference space)</title>
<polygon fill="none" stroke="#ff0000" points="215,-540 15.5857,-522 215,-504 414.4143,-522 215,-540"/>
<text text-anchor="middle" x="215" y="-518.3" font-family="Times,serif" font-size="14.00" fill="#ff0000">Lobe map (reference space)</text>
</g>
<!-- Transform lobe map (applywarp) -->
<g id="node38" class="node">
<title>Transform lobe map (applywarp)</title>
<ellipse fill="none" stroke="#000000" cx="545" cy="-450" rx="163.2712" ry="18"/>
<text text-anchor="middle" x="545" y="-446.3" font-family="Times,serif" font-size="14.00" fill="#000000">Transform lobe map (applywarp)</text>
</g>
<!-- Lobe map (reference space)&#45;&gt;Transform lobe map (applywarp) -->
<g id="edge17" class="edge">
<title>Lobe map (reference space)&#45;&gt;Transform lobe map (applywarp)</title>
<path fill="none" stroke="#000000" d="M273.6171,-509.2108C325.7921,-497.8272 402.707,-481.0457 461.3435,-468.2523"/>
<polygon fill="#000000" stroke="#000000" points="462.3042,-471.6251 471.3283,-466.0738 460.812,-464.786 462.3042,-471.6251"/>
</g>
<!-- Head mask (reference space) -->
<g id="node5" class="node">
<title>Head mask (reference space)</title>
<polygon fill="none" stroke="#ff0000" points="979,-540 770.2025,-522 979,-504 1187.7975,-522 979,-540"/>
<text text-anchor="middle" x="979" y="-518.3" font-family="Times,serif" font-size="14.00" fill="#ff0000">Head mask (reference space)</text>
</g>
<!-- Transform head mask (applywarp) -->
<g id="node39" class="node">
<title>Transform head mask (applywarp)</title>
<ellipse fill="none" stroke="#000000" cx="897" cy="-450" rx="170.8697" ry="18"/>
<text text-anchor="middle" x="897" y="-446.3" font-family="Times,serif" font-size="14.00" fill="#000000">Transform head mask (applywarp)</text>
</g>
<!-- Head mask (reference space)&#45;&gt;Transform head mask (applywarp) -->
<g id="edge20" class="edge">
<title>Head mask (reference space)&#45;&gt;Transform head mask (applywarp)</title>
<path fill="none" stroke="#000000" d="M959.9814,-505.3008C949.6793,-496.255 936.7483,-484.901 925.2879,-474.8382"/>
<polygon fill="#000000" stroke="#000000" points="927.4629,-472.0902 917.6391,-468.1222 922.8442,-477.3502 927.4629,-472.0902"/>
</g>
<!-- DTI image -->
<g id="node6" class="node">
<title>DTI image</title>
<polygon fill="none" stroke="#ff0000" points="2226,-900 2141.375,-882 2226,-864 2310.625,-882 2226,-900"/>
<text text-anchor="middle" x="2226" y="-878.3" font-family="Times,serif" font-size="14.00" fill="#ff0000">DTI image</text>
</g>
<!-- Eddy correction (eddy_correct) -->
<g id="node43" class="node">
<title>Eddy correction (eddy_correct)</title>
<ellipse fill="none" stroke="#000000" cx="2190" cy="-810" rx="157.0724" ry="18"/>
<text text-anchor="middle" x="2190" y="-806.3" font-family="Times,serif" font-size="14.00" fill="#000000">Eddy correction (eddy_correct)</text>
</g>
<!-- DTI image&#45;&gt;Eddy correction (eddy_correct) -->
<g id="edge31" class="edge">
<title>DTI image&#45;&gt;Eddy correction (eddy_correct)</title>
<path fill="none" stroke="#000000" d="M2217.831,-865.6621C2213.6302,-857.2603 2208.3987,-846.7974 2203.6091,-837.2181"/>
<polygon fill="#000000" stroke="#000000" points="2206.6239,-835.4214 2199.0212,-828.0423 2200.3629,-838.5519 2206.6239,-835.4214"/>
</g>
<!-- bvec -->
<g id="node7" class="node">
<title>bvec</title>
<polygon fill="none" stroke="#ff0000" points="2135,-612 2089.0842,-594 2135,-576 2180.9158,-594 2135,-612"/>
<text text-anchor="middle" x="2135" y="-590.3" font-family="Times,serif" font-size="14.00" fill="#ff0000">bvec</text>
</g>
<!-- dtifit -->
<g id="node45" class="node">
<title>dtifit</title>
<ellipse fill="none" stroke="#000000" cx="2264" cy="-522" rx="33.5952" ry="18"/>
<text text-anchor="middle" x="2264" y="-518.3" font-family="Times,serif" font-size="14.00" fill="#000000">dtifit</text>
</g>
<!-- bvec&#45;&gt;dtifit -->
<g id="edge37" class="edge">
<title>bvec&#45;&gt;dtifit</title>
<path fill="none" stroke="#000000" d="M2154.0344,-583.3762C2174.4182,-571.9992 2207.1281,-553.7425 2231.5828,-540.0933"/>
<polygon fill="#000000" stroke="#000000" points="2233.4819,-543.0416 2240.5081,-535.1117 2230.0703,-536.9293 2233.4819,-543.0416"/>
</g>
<!-- bval -->
<g id="node8" class="node">
<title>bval</title>
<polygon fill="none" stroke="#ff0000" points="2211,-972 2167.5983,-954 2211,-936 2254.4017,-954 2211,-972"/>
<text text-anchor="middle" x="2211" y="-950.3" font-family="Times,serif" font-size="14.00" fill="#ff0000">bval</text>
</g>
<!-- Structural index -->
<g id="node28" class="node">
<title>Structural index</title>
<polygon fill="none" stroke="#0000ff" points="2123,-900 1989,-900 1989,-864 2123,-864 2123,-900"/>
<text text-anchor="middle" x="2056" y="-878.3" font-family="Times,serif" font-size="14.00" fill="#0000ff">Structural index</text>
</g>
<!-- bval&#45;&gt;Structural index -->
<g id="edge30" class="edge">
<title>bval&#45;&gt;Structural index</title>
<path fill="none" stroke="#000000" d="M2190.4172,-944.439C2168.4964,-934.2564 2133.0359,-917.7844 2104.0397,-904.3152"/>
<polygon fill="#000000" stroke="#000000" points="2105.4217,-901.098 2094.8778,-900.0594 2102.4726,-907.4465 2105.4217,-901.098"/>
</g>
<!-- bval&#45;&gt;dtifit -->
<g id="edge38" class="edge">
<title>bval&#45;&gt;dtifit</title>
<path fill="none" stroke="#000000" d="M2236.7111,-946.4714C2260.7572,-938.3294 2296.4087,-923.2976 2320,-900 2351.9629,-868.435 2366,-854.9219 2366,-810 2366,-810 2366,-810 2366,-666 2366,-625.2078 2370.98,-609.7034 2348,-576 2336.3808,-558.9589 2317.4199,-546.0943 2300.4502,-537.2048"/>
<polygon fill="#000000" stroke="#000000" points="2301.8022,-533.9688 2291.2868,-532.6738 2298.6995,-540.2437 2301.8022,-533.9688"/>
</g>
<!-- T1 brain image -->
<g id="node9" class="node">
<title>T1 brain image</title>
<polygon fill="none" stroke="#0000ff" points="1330.5,-540 1205.5,-540 1205.5,-504 1330.5,-504 1330.5,-540"/>
<text text-anchor="middle" x="1268" y="-518.3" font-family="Times,serif" font-size="14.00" fill="#0000ff">T1 brain image</text>
</g>
<!-- Crop parameters -->
<g id="node13" class="node">
<title>Crop parameters</title>
<polygon fill="none" stroke="#0000ff" points="1310.5,-468 1171.5,-468 1171.5,-432 1310.5,-432 1310.5,-468"/>
<text text-anchor="middle" x="1241" y="-446.3" font-family="Times,serif" font-size="14.00" fill="#0000ff">Crop parameters</text>
</g>
<!-- T1 brain image&#45;&gt;Crop parameters -->
<g id="edge6" class="edge">
<title>T1 brain image&#45;&gt;Crop parameters</title>
<path fill="none" stroke="#000000" d="M1261.1868,-503.8314C1258.2356,-495.9617 1254.7142,-486.5712 1251.445,-477.8533"/>
<polygon fill="#000000" stroke="#000000" points="1254.6934,-476.5476 1247.905,-468.4133 1248.1391,-479.0055 1254.6934,-476.5476"/>
</g>
<!-- Crop -->
<g id="node32" class="node">
<title>Crop</title>
<ellipse fill="none" stroke="#000000" cx="1120" cy="-450" rx="33.5952" ry="18"/>
<text text-anchor="middle" x="1120" y="-446.3" font-family="Times,serif" font-size="14.00" fill="#000000">Crop</text>
</g>
<!-- T1 brain image&#45;&gt;Crop -->
<g id="edge3" class="edge">
<title>T1 brain image&#45;&gt;Crop</title>
<path fill="none" stroke="#000000" d="M1230.6534,-503.8314C1207.1713,-492.4077 1177.1016,-477.7792 1154.2365,-466.6556"/>
<polygon fill="#000000" stroke="#000000" points="1155.7555,-463.5024 1145.232,-462.275 1152.6932,-469.7971 1155.7555,-463.5024"/>
</g>
<!-- DTI linear registration -->
<g id="node47" class="node">
<title>DTI linear registration</title>
<ellipse fill="none" stroke="#000000" cx="1999" cy="-378" rx="116.1796" ry="18"/>
<text text-anchor="middle" x="1999" y="-374.3" font-family="Times,serif" font-size="14.00" fill="#000000">DTI linear registration</text>
</g>
<!-- T1 brain image&#45;&gt;DTI linear registration -->
<g id="edge46" class="edge">
<title>T1 brain image&#45;&gt;DTI linear registration</title>
<path fill="none" stroke="#000000" d="M1285.9224,-503.6131C1295.9987,-493.2196 1308.7711,-479.9514 1320,-468 1334.8622,-452.1815 1333.4632,-441.4566 1353,-432 1452.073,-384.0448 1737.4307,-406.4747 1847,-396 1863.6952,-394.404 1881.397,-392.5009 1898.5943,-390.5391"/>
<polygon fill="#000000" stroke="#000000" points="1899.1172,-394.0021 1908.6502,-389.3791 1898.315,-387.0482 1899.1172,-394.0021"/>
</g>
<!-- T1 cropped brain image -->
<g id="node10" class="node">
<title>T1 cropped brain image</title>
<polygon fill="none" stroke="#0000ff" points="1211,-396 1023,-396 1023,-360 1211,-360 1211,-396"/>
<text text-anchor="middle" x="1117" y="-374.3" font-family="Times,serif" font-size="14.00" fill="#0000ff">T1 cropped brain image</text>
</g>
<!-- Tissue classification (FAST) -->
<g id="node33" class="node">
<title>Tissue classification (FAST)</title>
<ellipse fill="none" stroke="#000000" cx="1117" cy="-306" rx="139.9756" ry="18"/>
<text text-anchor="middle" x="1117" y="-302.3" font-family="Times,serif" font-size="14.00" fill="#000000">Tissue classification (FAST)</text>
</g>
<!-- T1 cropped brain image&#45;&gt;Tissue classification (FAST) -->
<g id="edge5" class="edge">
<title>T1 cropped brain image&#45;&gt;Tissue classification (FAST)</title>
<path fill="none" stroke="#000000" d="M1117,-359.8314C1117,-352.131 1117,-342.9743 1117,-334.4166"/>
<polygon fill="#000000" stroke="#000000" points="1120.5001,-334.4132 1117,-324.4133 1113.5001,-334.4133 1120.5001,-334.4132"/>
</g>
<!-- GM/WM maps -->
<g id="node11" class="node">
<title>GM/WM maps</title>
<polygon fill="none" stroke="#0000ff" points="1210.5,-252 1091.5,-252 1091.5,-216 1210.5,-216 1210.5,-252"/>
<text text-anchor="middle" x="1151" y="-230.3" font-family="Times,serif" font-size="14.00" fill="#0000ff">GM/WM maps</text>
</g>
<!-- Lobe + tissue map -->
<g id="node40" class="node">
<title>Lobe + tissue map</title>
<ellipse fill="none" stroke="#000000" cx="1151" cy="-162" rx="98.2828" ry="18"/>
<text text-anchor="middle" x="1151" y="-158.3" font-family="Times,serif" font-size="14.00" fill="#000000">Lobe + tissue map</text>
</g>
<!-- GM/WM maps&#45;&gt;Lobe + tissue map -->
<g id="edge23" class="edge">
<title>GM/WM maps&#45;&gt;Lobe + tissue map</title>
<path fill="none" stroke="#000000" d="M1151,-215.8314C1151,-208.131 1151,-198.9743 1151,-190.4166"/>
<polygon fill="#000000" stroke="#000000" points="1154.5001,-190.4132 1151,-180.4133 1147.5001,-190.4133 1154.5001,-190.4132"/>
</g>
<!-- T1 bet&#45;nonuniformity&#45;corrected image -->
<g id="node12" class="node">
<title>T1 bet&#45;nonuniformity&#45;corrected image</title>
<polygon fill="none" stroke="#0000ff" points="731.5,-252 440.5,-252 440.5,-216 731.5,-216 731.5,-252"/>
<text text-anchor="middle" x="586" y="-230.3" font-family="Times,serif" font-size="14.00" fill="#0000ff">T1 bet&#45;nonuniformity&#45;corrected image</text>
</g>
<!-- T1 bet&#45;nonuniformity&#45;corrected image&#45;&gt;Linear registration (FLIRT) -->
<g id="edge11" class="edge">
<title>T1 bet&#45;nonuniformity&#45;corrected image&#45;&gt;Linear registration (FLIRT)</title>
<path fill="none" stroke="#000000" d="M625.113,-215.8314C646.1436,-206.0623 672.2196,-193.9496 694.3077,-183.6893"/>
<polygon fill="#000000" stroke="#000000" points="695.9087,-186.8049 703.5035,-179.4177 692.9597,-180.4563 695.9087,-186.8049"/>
</g>
<!-- T1 Crop -->
<g id="node34" class="node">
<title>T1 Crop</title>
<ellipse fill="none" stroke="#000000" cx="1278" cy="-378" rx="48.9926" ry="18"/>
<text text-anchor="middle" x="1278" y="-374.3" font-family="Times,serif" font-size="14.00" fill="#000000">T1 Crop</text>
</g>
<!-- Crop parameters&#45;&gt;T1 Crop -->
<g id="edge7" class="edge">
<title>Crop parameters&#45;&gt;T1 Crop</title>
<path fill="none" stroke="#000000" d="M1250.3367,-431.8314C1254.5313,-423.6688 1259.5668,-413.87 1264.1853,-404.8827"/>
<polygon fill="#000000" stroke="#000000" points="1267.3368,-406.4075 1268.7945,-395.9134 1261.1107,-403.208 1267.3368,-406.4075"/>
</g>
<!-- Crop NU -->
<g id="node42" class="node">
<title>Crop NU</title>
<ellipse fill="none" stroke="#000000" cx="1500" cy="-378" rx="52.7911" ry="18"/>
<text text-anchor="middle" x="1500" y="-374.3" font-family="Times,serif" font-size="14.00" fill="#000000">Crop NU</text>
</g>
<!-- Crop parameters&#45;&gt;Crop NU -->
<g id="edge27" class="edge">
<title>Crop parameters&#45;&gt;Crop NU</title>
<path fill="none" stroke="#000000" d="M1306.0223,-431.9243C1350.3203,-419.6098 1408.1324,-403.5385 1449.0845,-392.1541"/>
<polygon fill="#000000" stroke="#000000" points="1450.1562,-395.489 1458.8534,-389.4384 1448.2813,-388.7447 1450.1562,-395.489"/>
</g>
<!-- Reference to T1 linear transformation -->
<g id="node14" class="node">
<title>Reference to T1 linear transformation</title>
<polygon fill="none" stroke="#0000ff" points="885.5,-108 596.5,-108 596.5,-72 885.5,-72 885.5,-108"/>
<text text-anchor="middle" x="741" y="-86.3" font-family="Times,serif" font-size="14.00" fill="#0000ff">Reference to T1 linear transformation</text>
</g>
<!-- Reference to T1 non&#45;linear transformation -->
<g id="node15" class="node">
<title>Reference to T1 non&#45;linear transformation</title>
<polygon fill="none" stroke="#0000ff" points="752,-540 432,-540 432,-504 752,-504 752,-540"/>
<text text-anchor="middle" x="592" y="-518.3" font-family="Times,serif" font-size="14.00" fill="#0000ff">Reference to T1 non&#45;linear transformation</text>
</g>
<!-- Reference to T1 non&#45;linear transformation&#45;&gt;Transform lobe map (applywarp) -->
<g id="edge18" class="edge">
<title>Reference to T1 non&#45;linear transformation&#45;&gt;Transform lobe map (applywarp)</title>
<path fill="none" stroke="#000000" d="M580.1399,-503.8314C574.8371,-495.7079 568.4763,-485.9637 562.6327,-477.0118"/>
<polygon fill="#000000" stroke="#000000" points="565.4169,-474.8739 557.0198,-468.4133 559.5552,-478.7003 565.4169,-474.8739"/>
</g>
<!-- Reference to T1 non&#45;linear transformation&#45;&gt;Transform head mask (applywarp) -->
<g id="edge21" class="edge">
<title>Reference to T1 non&#45;linear transformation&#45;&gt;Transform head mask (applywarp)</title>
<path fill="none" stroke="#000000" d="M668.5707,-503.9243C713.944,-493.2132 771.3571,-479.66 817.273,-468.8208"/>
<polygon fill="#000000" stroke="#000000" points="818.2569,-472.1848 827.1852,-466.4809 816.6486,-465.3721 818.2569,-472.1848"/>
</g>
<!-- Lobe map (native space) -->
<g id="node16" class="node">
<title>Lobe map (native space)</title>
<polygon fill="none" stroke="#0000ff" points="859,-324 667,-324 667,-288 859,-288 859,-324"/>
<text text-anchor="middle" x="763" y="-302.3" font-family="Times,serif" font-size="14.00" fill="#0000ff">Lobe map (native space)</text>
</g>
<!-- Lobe map (native space)&#45;&gt;Lobe + tissue map -->
<g id="edge24" class="edge">
<title>Lobe map (native space)&#45;&gt;Lobe + tissue map</title>
<path fill="none" stroke="#000000" d="M859.2581,-292.7174C940.1999,-280.8774 1045.3353,-263.6646 1062,-252 1077.1751,-241.378 1070.8717,-230.0006 1083,-216 1092.6902,-204.8139 1104.9484,-194.2659 1116.38,-185.5117"/>
<polygon fill="#000000" stroke="#000000" points="1118.5703,-188.2446 1124.5093,-179.4708 1114.3952,-182.6261 1118.5703,-188.2446"/>
</g>
<!-- Head mask (native space) -->
<g id="node17" class="node">
<title>Head mask (native space)</title>
<polygon fill="none" stroke="#0000ff" points="1000.5,-396 797.5,-396 797.5,-360 1000.5,-360 1000.5,-396"/>
<text text-anchor="middle" x="899" y="-374.3" font-family="Times,serif" font-size="14.00" fill="#0000ff">Head mask (native space)</text>
</g>
<!-- Calc stats -->
<g id="node50" class="node">
<title>Calc stats</title>
<ellipse fill="none" stroke="#000000" cx="1500" cy="-90" rx="57.6901" ry="18"/>
<text text-anchor="middle" x="1500" y="-86.3" font-family="Times,serif" font-size="14.00" fill="#000000">Calc stats</text>
</g>
<!-- Head mask (native space)&#45;&gt;Calc stats -->
<g id="edge55" class="edge">
<title>Head mask (native space)&#45;&gt;Calc stats</title>
<path fill="none" stroke="#000000" d="M1000.5772,-362.0256C1005.1127,-361.3361 1009.6031,-360.6581 1014,-360 1125.8906,-343.2519 1164.8071,-374.5964 1266,-324 1365.3767,-274.3117 1448.1461,-166.159 1482.6884,-116.2283"/>
<polygon fill="#000000" stroke="#000000" points="1485.6336,-118.1216 1488.3819,-107.8894 1479.8526,-114.1745 1485.6336,-118.1216"/>
</g>
<!-- NU corrected T1 -->
<g id="node18" class="node">
<title>NU corrected T1</title>
<polygon fill="none" stroke="#0000ff" points="1635.5,-468 1496.5,-468 1496.5,-432 1635.5,-432 1635.5,-468"/>
<text text-anchor="middle" x="1566" y="-446.3" font-family="Times,serif" font-size="14.00" fill="#0000ff">NU corrected T1</text>
</g>
<!-- NU corrected T1&#45;&gt;Crop NU -->
<g id="edge28" class="edge">
<title>NU corrected T1&#45;&gt;Crop NU</title>
<path fill="none" stroke="#000000" d="M1549.3454,-431.8314C1541.3499,-423.109 1531.6418,-412.5183 1522.9588,-403.0459"/>
<polygon fill="#000000" stroke="#000000" points="1525.3036,-400.4242 1515.9662,-395.4177 1520.1435,-405.1543 1525.3036,-400.4242"/>
</g>
<!-- Cropped NU corrected T1 -->
<g id="node19" class="node">
<title>Cropped NU corrected T1</title>
<polygon fill="none" stroke="#0000ff" points="1602.5,-324 1397.5,-324 1397.5,-288 1602.5,-288 1602.5,-324"/>
<text text-anchor="middle" x="1500" y="-302.3" font-family="Times,serif" font-size="14.00" fill="#0000ff">Cropped NU corrected T1</text>
</g>
<!-- Cropped NU corrected T1&#45;&gt;Calc stats -->
<g id="edge56" class="edge">
<title>Cropped NU corrected T1&#45;&gt;Calc stats</title>
<path fill="none" stroke="#000000" d="M1500,-287.9555C1500,-250.3938 1500,-163.5541 1500,-118.4103"/>
<polygon fill="#000000" stroke="#000000" points="1503.5001,-118.145 1500,-108.1451 1496.5001,-118.1451 1503.5001,-118.145"/>
</g>
<!-- Eddy corrected image -->
<g id="node20" class="node">
<title>Eddy corrected image</title>
<polygon fill="none" stroke="#0000ff" points="2279,-756 2103,-756 2103,-720 2279,-720 2279,-756"/>
<text text-anchor="middle" x="2191" y="-734.3" font-family="Times,serif" font-size="14.00" fill="#0000ff">Eddy corrected image</text>
</g>
<!-- DTI brain extraction (BET) -->
<g id="node44" class="node">
<title>DTI brain extraction (BET)</title>
<ellipse fill="none" stroke="#000000" cx="2191" cy="-666" rx="135.6761" ry="18"/>
<text text-anchor="middle" x="2191" y="-662.3" font-family="Times,serif" font-size="14.00" fill="#000000">DTI brain extraction (BET)</text>
</g>
<!-- Eddy corrected image&#45;&gt;DTI brain extraction (BET) -->
<g id="edge34" class="edge">
<title>Eddy corrected image&#45;&gt;DTI brain extraction (BET)</title>
<path fill="none" stroke="#000000" d="M2191,-719.8314C2191,-712.131 2191,-702.9743 2191,-694.4166"/>
<polygon fill="#000000" stroke="#000000" points="2194.5001,-694.4132 2191,-684.4133 2187.5001,-694.4133 2194.5001,-694.4132"/>
</g>
<!-- Eddy corrected image&#45;&gt;dtifit -->
<g id="edge39" class="edge">
<title>Eddy corrected image&#45;&gt;dtifit</title>
<path fill="none" stroke="#000000" d="M2276.2563,-719.9987C2303.1683,-712.4727 2328.0062,-702.9224 2336,-692 2366.4486,-650.3964 2359.0563,-622.1127 2336,-576 2328.0722,-560.1444 2313.0301,-547.7366 2298.7365,-538.8347"/>
<polygon fill="#000000" stroke="#000000" points="2300.4059,-535.7567 2290.0037,-533.7456 2296.8814,-541.8047 2300.4059,-535.7567"/>
</g>
<!-- DTI brain mask -->
<g id="node21" class="node">
<title>DTI brain mask</title>
<polygon fill="none" stroke="#0000ff" points="2327,-612 2199,-612 2199,-576 2327,-576 2327,-612"/>
<text text-anchor="middle" x="2263" y="-590.3" font-family="Times,serif" font-size="14.00" fill="#0000ff">DTI brain mask</text>
</g>
<!-- DTI brain mask&#45;&gt;dtifit -->
<g id="edge40" class="edge">
<title>DTI brain mask&#45;&gt;dtifit</title>
<path fill="none" stroke="#000000" d="M2263.2523,-575.8314C2263.3593,-568.131 2263.4865,-558.9743 2263.6053,-550.4166"/>
<polygon fill="#000000" stroke="#000000" points="2267.1049,-550.4609 2263.7443,-540.4133 2260.1056,-550.3637 2267.1049,-550.4609"/>
</g>
<!-- FA image -->
<g id="node22" class="node">
<title>FA image</title>
<polygon fill="none" stroke="#0000ff" points="2324.5,-396 2241.5,-396 2241.5,-360 2324.5,-360 2324.5,-396"/>
<text text-anchor="middle" x="2283" y="-374.3" font-family="Times,serif" font-size="14.00" fill="#0000ff">FA image</text>
</g>
<!-- Transform FA (applywarp) -->
<g id="node48" class="node">
<title>Transform FA (applywarp)</title>
<ellipse fill="none" stroke="#000000" cx="2286" cy="-234" rx="133.4768" ry="18"/>
<text text-anchor="middle" x="2286" y="-230.3" font-family="Times,serif" font-size="14.00" fill="#000000">Transform FA (applywarp)</text>
</g>
<!-- FA image&#45;&gt;Transform FA (applywarp) -->
<g id="edge49" class="edge">
<title>FA image&#45;&gt;Transform FA (applywarp)</title>
<path fill="none" stroke="#000000" d="M2283.38,-359.7623C2283.8916,-335.201 2284.8073,-291.2474 2285.4093,-262.3541"/>
<polygon fill="#000000" stroke="#000000" points="2288.914,-262.1604 2285.6231,-252.0896 2281.9155,-262.0145 2288.914,-262.1604"/>
</g>
<!-- MD image -->
<g id="node23" class="node">
<title>MD image</title>
<polygon fill="none" stroke="#0000ff" points="2251,-324 2161,-324 2161,-288 2251,-288 2251,-324"/>
<text text-anchor="middle" x="2206" y="-302.3" font-family="Times,serif" font-size="14.00" fill="#0000ff">MD image</text>
</g>
<!-- Transform MD (applywarp) -->
<g id="node49" class="node">
<title>Transform MD (applywarp)</title>
<ellipse fill="none" stroke="#000000" cx="1997" cy="-234" rx="137.5759" ry="18"/>
<text text-anchor="middle" x="1997" y="-230.3" font-family="Times,serif" font-size="14.00" fill="#000000">Transform MD (applywarp)</text>
</g>
<!-- MD image&#45;&gt;Transform MD (applywarp) -->
<g id="edge52" class="edge">
<title>MD image&#45;&gt;Transform MD (applywarp)</title>
<path fill="none" stroke="#000000" d="M2160.9074,-290.4657C2130.1076,-279.8553 2088.9978,-265.693 2055.6547,-254.2064"/>
<polygon fill="#000000" stroke="#000000" points="2056.6196,-250.837 2046.0249,-250.889 2054.3396,-257.4553 2056.6196,-250.837"/>
</g>
<!-- FA image (T1 space) -->
<g id="node24" class="node">
<title>FA image (T1 space)</title>
<polygon fill="none" stroke="#0000ff" points="2301.5,-180 2138.5,-180 2138.5,-144 2301.5,-144 2301.5,-180"/>
<text text-anchor="middle" x="2220" y="-158.3" font-family="Times,serif" font-size="14.00" fill="#0000ff">FA image (T1 space)</text>
</g>
<!-- FA image (T1 space)&#45;&gt;Calc stats -->
<g id="edge57" class="edge">
<title>FA image (T1 space)&#45;&gt;Calc stats</title>
<path fill="none" stroke="#000000" d="M2138.4152,-147.0782C2114.4952,-143.0625 2088.2512,-139.0045 2064,-136 1885.1984,-113.8478 1673.132,-99.8272 1567.222,-93.6561"/>
<polygon fill="#000000" stroke="#000000" points="1567.1852,-90.1482 1557,-93.0657 1566.7815,-97.1365 1567.1852,-90.1482"/>
</g>
<!-- MD image (T1 space) -->
<g id="node25" class="node">
<title>MD image (T1 space)</title>
<polygon fill="none" stroke="#0000ff" points="2055,-180 1885,-180 1885,-144 2055,-144 2055,-180"/>
<text text-anchor="middle" x="1970" y="-158.3" font-family="Times,serif" font-size="14.00" fill="#0000ff">MD image (T1 space)</text>
</g>
<!-- MD image (T1 space)&#45;&gt;Calc stats -->
<g id="edge58" class="edge">
<title>MD image (T1 space)&#45;&gt;Calc stats</title>
<path fill="none" stroke="#000000" d="M1884.8865,-148.9613C1791.8169,-134.7039 1644.9158,-112.1999 1562.1111,-99.5149"/>
<polygon fill="#000000" stroke="#000000" points="1562.5078,-96.0349 1552.0931,-97.9802 1561.4478,-102.9542 1562.5078,-96.0349"/>
</g>
<!-- DTI to T1 linear transformation -->
<g id="node26" class="node">
<title>DTI to T1 linear transformation</title>
<polygon fill="none" stroke="#0000ff" points="2120.5,-324 1877.5,-324 1877.5,-288 2120.5,-288 2120.5,-324"/>
<text text-anchor="middle" x="1999" y="-302.3" font-family="Times,serif" font-size="14.00" fill="#0000ff">DTI to T1 linear transformation</text>
</g>
<!-- DTI to T1 linear transformation&#45;&gt;Transform FA (applywarp) -->
<g id="edge50" class="edge">
<title>DTI to T1 linear transformation&#45;&gt;Transform FA (applywarp)</title>
<path fill="none" stroke="#000000" d="M2071.0518,-287.9243C2114.3385,-277.0649 2169.2704,-263.2841 2212.7667,-252.3721"/>
<polygon fill="#000000" stroke="#000000" points="2213.8643,-255.7053 2222.712,-249.8771 2212.1609,-248.9157 2213.8643,-255.7053"/>
</g>
<!-- DTI to T1 linear transformation&#45;&gt;Transform MD (applywarp) -->
<g id="edge53" class="edge">
<title>DTI to T1 linear transformation&#45;&gt;Transform MD (applywarp)</title>
<path fill="none" stroke="#000000" d="M1998.4953,-287.8314C1998.2814,-280.131 1998.0271,-270.9743 1997.7894,-262.4166"/>
<polygon fill="#000000" stroke="#000000" points="2001.2879,-262.3122 1997.5115,-252.4133 1994.2906,-262.5066 2001.2879,-262.3122"/>
</g>
<!-- Stats files -->
<g id="node27" class="node">
<title>Stats files</title>
<polygon fill="none" stroke="#0000ff" points="1544.5,-36 1455.5,-36 1455.5,0 1544.5,0 1544.5,-36"/>
<text text-anchor="middle" x="1500" y="-14.3" font-family="Times,serif" font-size="14.00" fill="#0000ff">Stats files</text>
</g>
<!-- Structural index&#45;&gt;Eddy correction (eddy_correct) -->
<g id="edge32" class="edge">
<title>Structural index&#45;&gt;Eddy correction (eddy_correct)</title>
<path fill="none" stroke="#000000" d="M2089.8139,-863.8314C2107.5372,-854.3084 2129.4054,-842.5583 2148.1845,-832.4681"/>
<polygon fill="#000000" stroke="#000000" points="2149.9711,-835.4814 2157.1234,-827.665 2146.6578,-829.3151 2149.9711,-835.4814"/>
</g>
<!-- Extract struct image (fslroi) -->
<g id="node46" class="node">
<title>Extract struct image (fslroi)</title>
<ellipse fill="none" stroke="#000000" cx="2001" cy="-522" rx="141.8751" ry="18"/>
<text text-anchor="middle" x="2001" y="-518.3" font-family="Times,serif" font-size="14.00" fill="#000000">Extract struct image (fslroi)</text>
</g>
<!-- Structural index&#45;&gt;Extract struct image (fslroi) -->
<g id="edge43" class="edge">
<title>Structural index&#45;&gt;Extract struct image (fslroi)</title>
<path fill="none" stroke="#000000" d="M2019.3808,-863.8913C1978.4977,-840.791 1918,-796.6921 1918,-738 1918,-738 1918,-738 1918,-666 1918,-625.7538 1907.9229,-610.8807 1928,-576 1935.0875,-563.6866 1946.2323,-553.3503 1957.6992,-545.1252"/>
<polygon fill="#000000" stroke="#000000" points="1959.7051,-547.9941 1966.0524,-539.5111 1955.8004,-542.1844 1959.7051,-547.9941"/>
</g>
<!-- DTI brain image -->
<g id="node29" class="node">
<title>DTI brain image</title>
<polygon fill="none" stroke="#0000ff" points="2071,-612 1937,-612 1937,-576 2071,-576 2071,-612"/>
<text text-anchor="middle" x="2004" y="-590.3" font-family="Times,serif" font-size="14.00" fill="#0000ff">DTI brain image</text>
</g>
<!-- DTI brain image&#45;&gt;Extract struct image (fslroi) -->
<g id="edge44" class="edge">
<title>DTI brain image&#45;&gt;Extract struct image (fslroi)</title>
<path fill="none" stroke="#000000" d="M2003.243,-575.8314C2002.9221,-568.131 2002.5406,-558.9743 2002.184,-550.4166"/>
<polygon fill="#000000" stroke="#000000" points="2005.6806,-550.2589 2001.7672,-540.4133 1998.6867,-550.5503 2005.6806,-550.2589"/>
</g>
<!-- DTI structural image -->
<g id="node30" class="node">
<title>DTI structural image</title>
<polygon fill="none" stroke="#0000ff" points="2084,-468 1916,-468 1916,-432 2084,-432 2084,-468"/>
<text text-anchor="middle" x="2000" y="-446.3" font-family="Times,serif" font-size="14.00" fill="#0000ff">DTI structural image</text>
</g>
<!-- DTI structural image&#45;&gt;DTI linear registration -->
<g id="edge47" class="edge">
<title>DTI structural image&#45;&gt;DTI linear registration</title>
<path fill="none" stroke="#000000" d="M1999.7477,-431.8314C1999.6407,-424.131 1999.5135,-414.9743 1999.3947,-406.4166"/>
<polygon fill="#000000" stroke="#000000" points="2002.8944,-406.3637 1999.2557,-396.4133 1995.8951,-406.4609 2002.8944,-406.3637"/>
</g>
<!-- Brain extraction (BET)&#45;&gt;T1 brain image -->
<g id="edge2" class="edge">
<title>Brain extraction (BET)&#45;&gt;T1 brain image</title>
<path fill="none" stroke="#000000" d="M1228.3741,-575.8314C1234.4162,-567.6232 1241.6763,-557.7606 1248.3221,-548.7323"/>
<polygon fill="#000000" stroke="#000000" points="1251.3363,-550.5415 1254.4458,-540.4133 1245.6989,-546.3918 1251.3363,-550.5415"/>
</g>
<!-- Crop&#45;&gt;T1 cropped brain image -->
<g id="edge4" class="edge">
<title>Crop&#45;&gt;T1 cropped brain image</title>
<path fill="none" stroke="#000000" d="M1119.243,-431.8314C1118.9221,-424.131 1118.5406,-414.9743 1118.184,-406.4166"/>
<polygon fill="#000000" stroke="#000000" points="1121.6806,-406.2589 1117.7672,-396.4133 1114.6867,-406.5503 1121.6806,-406.2589"/>
</g>
<!-- Tissue classification (FAST)&#45;&gt;GM/WM maps -->
<g id="edge8" class="edge">
<title>Tissue classification (FAST)&#45;&gt;GM/WM maps</title>
<path fill="none" stroke="#000000" d="M1125.5796,-287.8314C1129.3358,-279.8771 1133.8257,-270.369 1137.9798,-261.5723"/>
<polygon fill="#000000" stroke="#000000" points="1141.1996,-262.9503 1142.3048,-252.4133 1134.8699,-259.9612 1141.1996,-262.9503"/>
</g>
<!-- Tissue classification (FAST)&#45;&gt;T1 bet&#45;nonuniformity&#45;corrected image -->
<g id="edge9" class="edge">
<title>Tissue classification (FAST)&#45;&gt;T1 bet&#45;nonuniformity&#45;corrected image</title>
<path fill="none" stroke="#000000" d="M1020.5321,-292.9196C939.1776,-281.8885 821.5756,-265.9425 729.2261,-253.4205"/>
<polygon fill="#000000" stroke="#000000" points="729.6144,-249.9412 719.2348,-252.0657 728.6738,-256.8777 729.6144,-249.9412"/>
</g>
<!-- Linear registration (FLIRT)&#45;&gt;Reference to T1 linear transformation -->
<g id="edge12" class="edge">
<title>Linear registration (FLIRT)&#45;&gt;Reference to T1 linear transformation</title>
<path fill="none" stroke="#000000" d="M741,-143.8314C741,-136.131 741,-126.9743 741,-118.4166"/>
<polygon fill="#000000" stroke="#000000" points="744.5001,-118.4132 741,-108.4133 737.5001,-118.4133 744.5001,-118.4132"/>
</g>
<!-- Reference T1 linear transformation -->
<g id="node36" class="node">
<title>Reference T1 linear transformation</title>
<ellipse fill="none" stroke="#000000" cx="620" cy="-666" rx="175.4689" ry="18"/>
<text text-anchor="middle" x="620" y="-662.3" font-family="Times,serif" font-size="14.00" fill="#000000">Reference T1 linear transformation</text>
</g>
<!-- Reference T1 linear transformation&#45;&gt;Reference to T1 non&#45;linear registration (FNIRT) -->
<g id="edge15" class="edge">
<title>Reference T1 linear transformation&#45;&gt;Reference to T1 non&#45;linear registration (FNIRT)</title>
<path fill="none" stroke="#000000" d="M647.9326,-648.2022C662.4908,-638.9262 680.4828,-627.4623 696.1654,-617.4698"/>
<polygon fill="#000000" stroke="#000000" points="698.0511,-620.4185 704.6039,-612.0931 694.2895,-614.515 698.0511,-620.4185"/>
</g>
<!-- Reference to T1 non&#45;linear registration (FNIRT)&#45;&gt;Reference to T1 non&#45;linear transformation -->
<g id="edge16" class="edge">
<title>Reference to T1 non&#45;linear registration (FNIRT)&#45;&gt;Reference to T1 non&#45;linear transformation</title>
<path fill="none" stroke="#000000" d="M697.7835,-576.0171C679.1934,-566.5243 656.1934,-554.7796 636.3928,-544.6687"/>
<polygon fill="#000000" stroke="#000000" points="637.7541,-541.4339 627.2563,-540.0032 634.5706,-547.6681 637.7541,-541.4339"/>
</g>
<!-- Transform lobe map (applywarp)&#45;&gt;Lobe map (native space) -->
<g id="edge19" class="edge">
<title>Transform lobe map (applywarp)&#45;&gt;Lobe map (native space)</title>
<path fill="none" stroke="#000000" d="M572.1691,-432.0535C611.2511,-406.2378 683.4091,-358.5738 726.9231,-329.8306"/>
<polygon fill="#000000" stroke="#000000" points="729.0736,-332.6048 735.4885,-324.1727 725.2155,-326.764 729.0736,-332.6048"/>
</g>
<!-- Transform head mask (applywarp)&#45;&gt;Head mask (native space) -->
<g id="edge22" class="edge">
<title>Transform head mask (applywarp)&#45;&gt;Head mask (native space)</title>
<path fill="none" stroke="#000000" d="M897.5047,-431.8314C897.7186,-424.131 897.9729,-414.9743 898.2106,-406.4166"/>
<polygon fill="#000000" stroke="#000000" points="901.7094,-406.5066 898.4885,-396.4133 894.7121,-406.3122 901.7094,-406.5066"/>
</g>
<!-- Lobe + tissue map&#45;&gt;Calc stats -->
<g id="edge59" class="edge">
<title>Lobe + tissue map&#45;&gt;Calc stats</title>
<path fill="none" stroke="#000000" d="M1216.2348,-148.5418C1280.9913,-135.1823 1379.34,-114.8926 1441.598,-102.0486"/>
<polygon fill="#000000" stroke="#000000" points="1442.5616,-105.4235 1451.6482,-99.9752 1441.1472,-98.5679 1442.5616,-105.4235"/>
</g>
<!-- Non&#45;uniformity correction (mri_nu_correct.mni)&#45;&gt;NU corrected T1 -->
<g id="edge26" class="edge">
<title>Non&#45;uniformity correction (mri_nu_correct.mni)&#45;&gt;NU corrected T1</title>
<path fill="none" stroke="#000000" d="M1591.4204,-503.8314C1587.6642,-495.8771 1583.1743,-486.369 1579.0202,-477.5723"/>
<polygon fill="#000000" stroke="#000000" points="1582.1301,-475.9612 1574.6952,-468.4133 1575.8004,-478.9503 1582.1301,-475.9612"/>
</g>
<!-- Crop NU&#45;&gt;Cropped NU corrected T1 -->
<g id="edge29" class="edge">
<title>Crop NU&#45;&gt;Cropped NU corrected T1</title>
<path fill="none" stroke="#000000" d="M1500,-359.8314C1500,-352.131 1500,-342.9743 1500,-334.4166"/>
<polygon fill="#000000" stroke="#000000" points="1503.5001,-334.4132 1500,-324.4133 1496.5001,-334.4133 1503.5001,-334.4132"/>
</g>
<!-- Eddy correction (eddy_correct)&#45;&gt;Eddy corrected image -->
<g id="edge33" class="edge">
<title>Eddy correction (eddy_correct)&#45;&gt;Eddy corrected image</title>
<path fill="none" stroke="#000000" d="M2190.2523,-791.8314C2190.3593,-784.131 2190.4865,-774.9743 2190.6053,-766.4166"/>
<polygon fill="#000000" stroke="#000000" points="2194.1049,-766.4609 2190.7443,-756.4133 2187.1056,-766.3637 2194.1049,-766.4609"/>
</g>
<!-- DTI brain extraction (BET)&#45;&gt;DTI brain mask -->
<g id="edge35" class="edge">
<title>DTI brain extraction (BET)&#45;&gt;DTI brain mask</title>
<path fill="none" stroke="#000000" d="M2209.1686,-647.8314C2217.7152,-639.2848 2228.0557,-628.9443 2237.3802,-619.6198"/>
<polygon fill="#000000" stroke="#000000" points="2239.9905,-621.9592 2244.5867,-612.4133 2235.0408,-617.0095 2239.9905,-621.9592"/>
</g>
<!-- DTI brain extraction (BET)&#45;&gt;DTI brain image -->
<g id="edge36" class="edge">
<title>DTI brain extraction (BET)&#45;&gt;DTI brain image</title>
<path fill="none" stroke="#000000" d="M2146.6836,-648.937C2120.8878,-639.0049 2088.1096,-626.3845 2060.4768,-615.7451"/>
<polygon fill="#000000" stroke="#000000" points="2061.527,-612.399 2050.9372,-612.0721 2059.0118,-618.9315 2061.527,-612.399"/>
</g>
<!-- dtifit&#45;&gt;FA image -->
<g id="edge41" class="edge">
<title>dtifit&#45;&gt;FA image</title>
<path fill="none" stroke="#000000" d="M2266.4064,-503.7623C2269.6471,-479.201 2275.4465,-435.2474 2279.2588,-406.3541"/>
<polygon fill="#000000" stroke="#000000" points="2282.7749,-406.4616 2280.6132,-396.0896 2275.8351,-405.5458 2282.7749,-406.4616"/>
</g>
<!-- dtifit&#45;&gt;MD image -->
<g id="edge42" class="edge">
<title>dtifit&#45;&gt;MD image</title>
<path fill="none" stroke="#000000" d="M2259.1547,-503.9555C2249.0261,-466.235 2225.5532,-378.8188 2213.4755,-333.8399"/>
<polygon fill="#000000" stroke="#000000" points="2216.8459,-332.8953 2210.8723,-324.1451 2210.0854,-334.7106 2216.8459,-332.8953"/>
</g>
<!-- Extract struct image (fslroi)&#45;&gt;DTI structural image -->
<g id="edge45" class="edge">
<title>Extract struct image (fslroi)&#45;&gt;DTI structural image</title>
<path fill="none" stroke="#000000" d="M2000.7477,-503.8314C2000.6407,-496.131 2000.5135,-486.9743 2000.3947,-478.4166"/>
<polygon fill="#000000" stroke="#000000" points="2003.8944,-478.3637 2000.2557,-468.4133 1996.8951,-478.4609 2003.8944,-478.3637"/>
</g>
<!-- DTI linear registration&#45;&gt;DTI to T1 linear transformation -->
<g id="edge48" class="edge">
<title>DTI linear registration&#45;&gt;DTI to T1 linear transformation</title>
<path fill="none" stroke="#000000" d="M1999,-359.8314C1999,-352.131 1999,-342.9743 1999,-334.4166"/>
<polygon fill="#000000" stroke="#000000" points="2002.5001,-334.4132 1999,-324.4133 1995.5001,-334.4133 2002.5001,-334.4132"/>
</g>
<!-- Transform FA (applywarp)&#45;&gt;FA image (T1 space) -->
<g id="edge51" class="edge">
<title>Transform FA (applywarp)&#45;&gt;FA image (T1 space)</title>
<path fill="none" stroke="#000000" d="M2269.3454,-215.8314C2261.5886,-207.3694 2252.2198,-197.1489 2243.739,-187.8971"/>
<polygon fill="#000000" stroke="#000000" points="2246.2162,-185.4198 2236.8788,-180.4133 2241.0561,-190.1499 2246.2162,-185.4198"/>
</g>
<!-- Transform MD (applywarp)&#45;&gt;MD image (T1 space) -->
<g id="edge54" class="edge">
<title>Transform MD (applywarp)&#45;&gt;MD image (T1 space)</title>
<path fill="none" stroke="#000000" d="M1990.1868,-215.8314C1987.2356,-207.9617 1983.7142,-198.5712 1980.445,-189.8533"/>
<polygon fill="#000000" stroke="#000000" points="1983.6934,-188.5476 1976.905,-180.4133 1977.1391,-191.0055 1983.6934,-188.5476"/>
</g>
<!-- Calc stats&#45;&gt;Stats files -->
<g id="edge60" class="edge">
<title>Calc stats&#45;&gt;Stats files</title>
<path fill="none" stroke="#000000" d="M1500,-71.8314C1500,-64.131 1500,-54.9743 1500,-46.4166"/>
<polygon fill="#000000" stroke="#000000" points="1503.5001,-46.4132 1500,-36.4133 1496.5001,-46.4133 1503.5001,-46.4132"/>
</g>
</g>
</svg>
