<?xml version="1.0" encoding="UTF-8" standalone="no"?>
<!DOCTYPE svg PUBLIC "-//W3C//DTD SVG 1.1//EN"
 "http://www.w3.org/Graphics/SVG/1.1/DTD/svg11.dtd">
<!-- Generated by graphviz version 2.40.1 (20161225.0304)
 -->
<!-- Title: Pipeline Pages: 1 -->
<svg width="2312pt" height="1428pt"
 viewBox="0.00 0.00 2312.00 1428.00" xmlns="http://www.w3.org/2000/svg" xmlns:xlink="http://www.w3.org/1999/xlink">
<g id="graph0" class="graph" transform="scale(1 1) rotate(0) translate(4 1424)">
<title>Pipeline</title>
<polygon fill="#ffffff" stroke="transparent" points="-4,4 -4,-1424 2308,-1424 2308,4 -4,4"/>
<g id="clust3" class="cluster">
<title>clustermaps</title>
<polygon fill="none" stroke="#000000" points="8,-136 8,-1412 1218,-1412 1218,-136 8,-136"/>
</g>
<g id="clust13" class="cluster">
<title>clusterT1 data</title>
<polygon fill="none" stroke="#000000" points="1226,-784 1226,-908 1712,-908 1712,-784 1226,-784"/>
</g>
<g id="clust14" class="cluster">
<title>clusterDTI</title>
<polygon fill="none" stroke="#000000" points="1720,-136 1720,-980 2296,-980 2296,-136 1720,-136"/>
</g>
<!-- T1 image -->
<g id="node1" class="node">
<title>T1 image</title>
<polygon fill="none" stroke="#ff0000" points="938,-1404 861.9193,-1386 938,-1368 1014.0807,-1386 938,-1404"/>
<text text-anchor="middle" x="938" y="-1382.3" font-family="Times,serif" font-size="14.00" fill="#ff0000">T1 image</text>
</g>
<!-- Crop parameters -->
<g id="node15" class="node">
<title>Crop parameters</title>
<polygon fill="none" stroke="#0000ff" points="1051.5,-1188 912.5,-1188 912.5,-1152 1051.5,-1152 1051.5,-1188"/>
<text text-anchor="middle" x="982" y="-1166.3" font-family="Times,serif" font-size="14.00" fill="#0000ff">Crop parameters</text>
</g>
<!-- T1 image&#45;&gt;Crop parameters -->
<g id="edge5" class="edge">
<title>T1 image&#45;&gt;Crop parameters</title>
<path fill="none" stroke="#000000" d="M939.3556,-1367.98C940.8786,-1349.7456 943.7132,-1320.7859 948,-1296 953.6036,-1263.6011 956.2797,-1255.7024 965,-1224 967.335,-1215.511 970.1174,-1206.3511 972.7482,-1198.0292"/>
<polygon fill="#000000" stroke="#000000" points="976.1167,-1198.9866 975.8417,-1188.3953 969.4519,-1196.8464 976.1167,-1198.9866"/>
</g>
<!-- Brain extraction (BET) -->
<g id="node36" class="node">
<title>Brain extraction (BET)</title>
<ellipse fill="none" stroke="#000000" cx="1073" cy="-1314" rx="116.1796" ry="18"/>
<text text-anchor="middle" x="1073" y="-1310.3" font-family="Times,serif" font-size="14.00" fill="#000000">Brain extraction (BET)</text>
</g>
<!-- T1 image&#45;&gt;Brain extraction (BET) -->
<g id="edge1" class="edge">
<title>T1 image&#45;&gt;Brain extraction (BET)</title>
<path fill="none" stroke="#000000" d="M961.5152,-1373.4586C980.7889,-1363.1793 1008.5369,-1348.3803 1031.5277,-1336.1185"/>
<polygon fill="#000000" stroke="#000000" points="1033.2245,-1339.1803 1040.401,-1331.3862 1029.9303,-1333.0038 1033.2245,-1339.1803"/>
</g>
<!-- T1 crop -->
<g id="node37" class="node">
<title>T1 crop</title>
<ellipse fill="none" stroke="#000000" cx="970" cy="-1098" rx="46.5926" ry="18"/>
<text text-anchor="middle" x="970" y="-1094.3" font-family="Times,serif" font-size="14.00" fill="#000000">T1 crop</text>
</g>
<!-- T1 image&#45;&gt;T1 crop -->
<g id="edge6" class="edge">
<title>T1 image&#45;&gt;T1 crop</title>
<path fill="none" stroke="#000000" d="M929.6427,-1369.7473C910.6028,-1330.3209 868.3135,-1227.3071 904,-1152 910.4281,-1138.4352 922.1172,-1127.1448 933.8917,-1118.455"/>
<polygon fill="#000000" stroke="#000000" points="936.1553,-1121.1459 942.4065,-1112.5917 932.1853,-1115.3805 936.1553,-1121.1459"/>
</g>
<!-- MNI reference -->
<g id="node2" class="node">
<title>MNI reference</title>
<polygon fill="none" stroke="#ff0000" points="394,-756 280.8873,-738 394,-720 507.1127,-738 394,-756"/>
<text text-anchor="middle" x="394" y="-734.3" font-family="Times,serif" font-size="14.00" fill="#ff0000">MNI reference</text>
</g>
<!-- T1 to Reference non&#45;linear registration (FNIRT) -->
<g id="node41" class="node">
<title>T1 to Reference non&#45;linear registration (FNIRT)</title>
<ellipse fill="none" stroke="#000000" cx="668" cy="-666" rx="234.7584" ry="18"/>
<text text-anchor="middle" x="668" y="-662.3" font-family="Times,serif" font-size="14.00" fill="#000000">T1 to Reference non&#45;linear registration (FNIRT)</text>
</g>
<!-- MNI reference&#45;&gt;T1 to Reference non&#45;linear registration (FNIRT) -->
<g id="edge18" class="edge">
<title>MNI reference&#45;&gt;T1 to Reference non&#45;linear registration (FNIRT)</title>
<path fill="none" stroke="#000000" d="M436.8125,-726.75C478.2976,-715.8488 542.1153,-699.0792 592.1986,-685.9186"/>
<polygon fill="#000000" stroke="#000000" points="593.2394,-689.264 602.0215,-683.3374 591.4603,-682.4939 593.2394,-689.264"/>
</g>
<!-- MNI reference brain -->
<g id="node3" class="node">
<title>MNI reference brain</title>
<polygon fill="none" stroke="#ff0000" points="734,-900 582.1779,-882 734,-864 885.8221,-882 734,-900"/>
<text text-anchor="middle" x="734" y="-878.3" font-family="Times,serif" font-size="14.00" fill="#ff0000">MNI reference brain</text>
</g>
<!-- Linear registration (FLIRT) -->
<g id="node40" class="node">
<title>Linear registration (FLIRT)</title>
<ellipse fill="none" stroke="#000000" cx="670" cy="-810" rx="138.3755" ry="18"/>
<text text-anchor="middle" x="670" y="-806.3" font-family="Times,serif" font-size="14.00" fill="#000000">Linear registration (FLIRT)</text>
</g>
<!-- MNI reference brain&#45;&gt;Linear registration (FLIRT) -->
<g id="edge15" class="edge">
<title>MNI reference brain&#45;&gt;Linear registration (FLIRT)</title>
<path fill="none" stroke="#000000" d="M719.4774,-865.6621C711.6202,-856.8227 701.7351,-845.702 692.8702,-835.7289"/>
<polygon fill="#000000" stroke="#000000" points="695.2972,-833.1912 686.0376,-828.0423 690.0654,-837.8417 695.2972,-833.1912"/>
</g>
<!-- Lobe map (reference space) -->
<g id="node4" class="node">
<title>Lobe map (reference space)</title>
<polygon fill="none" stroke="#ff0000" points="235,-468 35.5857,-450 235,-432 434.4143,-450 235,-468"/>
<text text-anchor="middle" x="235" y="-446.3" font-family="Times,serif" font-size="14.00" fill="#ff0000">Lobe map (reference space)</text>
</g>
<!-- Transform lobe map (applywarp) -->
<g id="node43" class="node">
<title>Transform lobe map (applywarp)</title>
<ellipse fill="none" stroke="#000000" cx="612" cy="-378" rx="163.2712" ry="18"/>
<text text-anchor="middle" x="612" y="-374.3" font-family="Times,serif" font-size="14.00" fill="#000000">Transform lobe map (applywarp)</text>
</g>
<!-- Lobe map (reference space)&#45;&gt;Transform lobe map (applywarp) -->
<g id="edge24" class="edge">
<title>Lobe map (reference space)&#45;&gt;Transform lobe map (applywarp)</title>
<path fill="none" stroke="#000000" d="M299.3802,-437.7046C360.1154,-426.1053 451.7974,-408.5957 520.1913,-395.5338"/>
<polygon fill="#000000" stroke="#000000" points="520.9409,-398.9539 530.1068,-393.6401 519.6277,-392.0782 520.9409,-398.9539"/>
</g>
<!-- Brain mask (reference space) -->
<g id="node5" class="node">
<title>Brain mask (reference space)</title>
<polygon fill="none" stroke="#ff0000" points="1000,-468 790.3643,-450 1000,-432 1209.6357,-450 1000,-468"/>
<text text-anchor="middle" x="1000" y="-446.3" font-family="Times,serif" font-size="14.00" fill="#ff0000">Brain mask (reference space)</text>
</g>
<!-- Transform brain mask (applywarp) -->
<g id="node44" class="node">
<title>Transform brain mask (applywarp)</title>
<ellipse fill="none" stroke="#000000" cx="1000" cy="-378" rx="172.7694" ry="18"/>
<text text-anchor="middle" x="1000" y="-374.3" font-family="Times,serif" font-size="14.00" fill="#000000">Transform brain mask (applywarp)</text>
</g>
<!-- Brain mask (reference space)&#45;&gt;Transform brain mask (applywarp) -->
<g id="edge27" class="edge">
<title>Brain mask (reference space)&#45;&gt;Transform brain mask (applywarp)</title>
<path fill="none" stroke="#000000" d="M1000,-431.8314C1000,-424.131 1000,-414.9743 1000,-406.4166"/>
<polygon fill="#000000" stroke="#000000" points="1003.5001,-406.4132 1000,-396.4133 996.5001,-406.4133 1003.5001,-406.4132"/>
</g>
<!-- DTI image -->
<g id="node6" class="node">
<title>DTI image</title>
<polygon fill="none" stroke="#ff0000" points="1903,-900 1818.375,-882 1903,-864 1987.625,-882 1903,-900"/>
<text text-anchor="middle" x="1903" y="-878.3" font-family="Times,serif" font-size="14.00" fill="#ff0000">DTI image</text>
</g>
<!-- Eddy correction (eddy_correct) -->
<g id="node46" class="node">
<title>Eddy correction (eddy_correct)</title>
<ellipse fill="none" stroke="#000000" cx="1939" cy="-810" rx="157.0724" ry="18"/>
<text text-anchor="middle" x="1939" y="-806.3" font-family="Times,serif" font-size="14.00" fill="#000000">Eddy correction (eddy_correct)</text>
</g>
<!-- DTI image&#45;&gt;Eddy correction (eddy_correct) -->
<g id="edge36" class="edge">
<title>DTI image&#45;&gt;Eddy correction (eddy_correct)</title>
<path fill="none" stroke="#000000" d="M1911.169,-865.6621C1915.3698,-857.2603 1920.6013,-846.7974 1925.3909,-837.2181"/>
<polygon fill="#000000" stroke="#000000" points="1928.6371,-838.5519 1929.9788,-828.0423 1922.3761,-835.4214 1928.6371,-838.5519"/>
</g>
<!-- bvec -->
<g id="node7" class="node">
<title>bvec</title>
<polygon fill="none" stroke="#ff0000" points="1994,-612 1948.0842,-594 1994,-576 2039.9158,-594 1994,-612"/>
<text text-anchor="middle" x="1994" y="-590.3" font-family="Times,serif" font-size="14.00" fill="#ff0000">bvec</text>
</g>
<!-- dtifit -->
<g id="node48" class="node">
<title>dtifit</title>
<ellipse fill="none" stroke="#000000" cx="1866" cy="-522" rx="33.5952" ry="18"/>
<text text-anchor="middle" x="1866" y="-518.3" font-family="Times,serif" font-size="14.00" fill="#000000">dtifit</text>
</g>
<!-- bvec&#45;&gt;dtifit -->
<g id="edge42" class="edge">
<title>bvec&#45;&gt;dtifit</title>
<path fill="none" stroke="#000000" d="M1975.1132,-583.3762C1954.8874,-571.9992 1922.431,-553.7425 1898.1659,-540.0933"/>
<polygon fill="#000000" stroke="#000000" points="1899.7415,-536.9639 1889.3098,-535.1117 1896.3096,-543.0649 1899.7415,-536.9639"/>
</g>
<!-- bval -->
<g id="node8" class="node">
<title>bval</title>
<polygon fill="none" stroke="#ff0000" points="1904,-972 1860.5983,-954 1904,-936 1947.4017,-954 1904,-972"/>
<text text-anchor="middle" x="1904" y="-950.3" font-family="Times,serif" font-size="14.00" fill="#ff0000">bval</text>
</g>
<!-- Structural index -->
<g id="node33" class="node">
<title>Structural index</title>
<polygon fill="none" stroke="#0000ff" points="2140,-900 2006,-900 2006,-864 2140,-864 2140,-900"/>
<text text-anchor="middle" x="2073" y="-878.3" font-family="Times,serif" font-size="14.00" fill="#0000ff">Structural index</text>
</g>
<!-- bval&#45;&gt;Structural index -->
<g id="edge35" class="edge">
<title>bval&#45;&gt;Structural index</title>
<path fill="none" stroke="#000000" d="M1925.7478,-944.7347C1949.7651,-934.5025 1989.277,-917.669 2021.3278,-904.0142"/>
<polygon fill="#000000" stroke="#000000" points="2022.7511,-907.2123 2030.5791,-900.0728 2020.0074,-900.7724 2022.7511,-907.2123"/>
</g>
<!-- bval&#45;&gt;dtifit -->
<g id="edge43" class="edge">
<title>bval&#45;&gt;dtifit</title>
<path fill="none" stroke="#000000" d="M1877.7196,-946.6478C1856.8345,-939.6527 1828.0611,-927.2927 1809,-908 1775.1836,-873.7727 1763,-858.1151 1763,-810 1763,-810 1763,-810 1763,-666 1763,-625.7023 1751.8883,-609.6893 1774,-576 1786.4317,-557.0591 1807.9904,-543.8894 1827.1144,-535.3006"/>
<polygon fill="#000000" stroke="#000000" points="1828.683,-538.4379 1836.5432,-531.3338 1825.9684,-531.9856 1828.683,-538.4379"/>
</g>
<!-- T1 brain image -->
<g id="node9" class="node">
<title>T1 brain image</title>
<polygon fill="none" stroke="#0000ff" points="1194.5,-1188 1069.5,-1188 1069.5,-1152 1194.5,-1152 1194.5,-1188"/>
<text text-anchor="middle" x="1132" y="-1166.3" font-family="Times,serif" font-size="14.00" fill="#0000ff">T1 brain image</text>
</g>
<!-- T1 crop brain -->
<g id="node38" class="node">
<title>T1 crop brain</title>
<ellipse fill="none" stroke="#000000" cx="1114" cy="-1098" rx="74.187" ry="18"/>
<text text-anchor="middle" x="1114" y="-1094.3" font-family="Times,serif" font-size="14.00" fill="#000000">T1 crop brain</text>
</g>
<!-- T1 brain image&#45;&gt;T1 crop brain -->
<g id="edge9" class="edge">
<title>T1 brain image&#45;&gt;T1 crop brain</title>
<path fill="none" stroke="#000000" d="M1127.4578,-1151.8314C1125.5116,-1144.0463 1123.1932,-1134.7729 1121.0337,-1126.1347"/>
<polygon fill="#000000" stroke="#000000" points="1124.4242,-1125.2658 1118.6033,-1116.4133 1117.6332,-1126.9636 1124.4242,-1125.2658"/>
</g>
<!-- T1 cropped brain image -->
<g id="node10" class="node">
<title>T1 cropped brain image</title>
<polygon fill="none" stroke="#0000ff" points="1208,-1044 1020,-1044 1020,-1008 1208,-1008 1208,-1044"/>
<text text-anchor="middle" x="1114" y="-1022.3" font-family="Times,serif" font-size="14.00" fill="#0000ff">T1 cropped brain image</text>
</g>
<!-- Tissue classification (FAST) -->
<g id="node39" class="node">
<title>Tissue classification (FAST)</title>
<ellipse fill="none" stroke="#000000" cx="419" cy="-954" rx="139.9756" ry="18"/>
<text text-anchor="middle" x="419" y="-950.3" font-family="Times,serif" font-size="14.00" fill="#000000">Tissue classification (FAST)</text>
</g>
<!-- T1 cropped brain image&#45;&gt;Tissue classification (FAST) -->
<g id="edge12" class="edge">
<title>T1 cropped brain image&#45;&gt;Tissue classification (FAST)</title>
<path fill="none" stroke="#000000" d="M1019.9078,-1016.2523C895.0038,-1003.3126 674.3812,-980.4568 538.0325,-966.3314"/>
<polygon fill="#000000" stroke="#000000" points="538.2648,-962.8368 527.9573,-965.2877 537.5434,-969.7996 538.2648,-962.8368"/>
</g>
<!-- DTI linear registration -->
<g id="node50" class="node">
<title>DTI linear registration</title>
<ellipse fill="none" stroke="#000000" cx="2140" cy="-378" rx="116.1796" ry="18"/>
<text text-anchor="middle" x="2140" y="-374.3" font-family="Times,serif" font-size="14.00" fill="#000000">DTI linear registration</text>
</g>
<!-- T1 cropped brain image&#45;&gt;DTI linear registration -->
<g id="edge51" class="edge">
<title>T1 cropped brain image&#45;&gt;DTI linear registration</title>
<path fill="none" stroke="#000000" d="M1208.1535,-1024.3703C1487.9436,-1018.2899 2295,-991.2796 2295,-882 2295,-882 2295,-882 2295,-522 2295,-463.7545 2235.5267,-422.4149 2190.2597,-399.3857"/>
<polygon fill="#000000" stroke="#000000" points="2191.6474,-396.1677 2181.1302,-394.8872 2188.5533,-402.4468 2191.6474,-396.1677"/>
</g>
<!-- T1 cropped image -->
<g id="node11" class="node">
<title>T1 cropped image</title>
<polygon fill="none" stroke="#0000ff" points="1043,-972 897,-972 897,-936 1043,-936 1043,-972"/>
<text text-anchor="middle" x="970" y="-950.3" font-family="Times,serif" font-size="14.00" fill="#0000ff">T1 cropped image</text>
</g>
<!-- T1 cropped image&#45;&gt;T1 to Reference non&#45;linear registration (FNIRT) -->
<g id="edge19" class="edge">
<title>T1 cropped image&#45;&gt;T1 to Reference non&#45;linear registration (FNIRT)</title>
<path fill="none" stroke="#000000" d="M963.5905,-935.856C947.2748,-892.2308 900.0031,-780.5989 824,-720 805.2745,-705.0698 782.1522,-694.1329 759.4986,-686.1732"/>
<polygon fill="#000000" stroke="#000000" points="760.4267,-682.7931 749.8328,-682.9412 758.2068,-689.4318 760.4267,-682.7931"/>
</g>
<!-- Non&#45;uniformity correction (mri_nu_correct.mni) -->
<g id="node45" class="node">
<title>Non&#45;uniformity correction (mri_nu_correct.mni)</title>
<ellipse fill="none" stroke="#000000" cx="1469" cy="-882" rx="235.0585" ry="18"/>
<text text-anchor="middle" x="1469" y="-878.3" font-family="Times,serif" font-size="14.00" fill="#000000">Non&#45;uniformity correction (mri_nu_correct.mni)</text>
</g>
<!-- T1 cropped image&#45;&gt;Non&#45;uniformity correction (mri_nu_correct.mni) -->
<g id="edge33" class="edge">
<title>T1 cropped image&#45;&gt;Non&#45;uniformity correction (mri_nu_correct.mni)</title>
<path fill="none" stroke="#000000" d="M1043.0933,-943.4535C1123.2291,-931.8908 1253.0736,-913.1557 1348.3584,-899.4072"/>
<polygon fill="#000000" stroke="#000000" points="1348.9434,-902.8591 1358.341,-897.9668 1347.9436,-895.9309 1348.9434,-902.8591"/>
</g>
<!-- T1 skull image -->
<g id="node12" class="node">
<title>T1 skull image</title>
<polygon fill="none" stroke="#0000ff" points="1096,-1260 974,-1260 974,-1224 1096,-1224 1096,-1260"/>
<text text-anchor="middle" x="1035" y="-1238.3" font-family="Times,serif" font-size="14.00" fill="#0000ff">T1 skull image</text>
</g>
<!-- T1 skull image&#45;&gt;Crop parameters -->
<g id="edge4" class="edge">
<title>T1 skull image&#45;&gt;Crop parameters</title>
<path fill="none" stroke="#000000" d="M1021.6259,-1223.8314C1015.5838,-1215.6232 1008.3237,-1205.7606 1001.6779,-1196.7323"/>
<polygon fill="#000000" stroke="#000000" points="1004.3011,-1194.3918 995.5542,-1188.4133 998.6637,-1198.5415 1004.3011,-1194.3918"/>
</g>
<!-- GM/WM maps -->
<g id="node13" class="node">
<title>GM/WM maps</title>
<polygon fill="none" stroke="#0000ff" points="166.5,-828 47.5,-828 47.5,-792 166.5,-792 166.5,-828"/>
<text text-anchor="middle" x="107" y="-806.3" font-family="Times,serif" font-size="14.00" fill="#0000ff">GM/WM maps</text>
</g>
<!-- Complex atlas -->
<g id="node31" class="node">
<title>Complex atlas</title>
<polygon fill="none" stroke="#0000ff" points="747.5,-252 628.5,-252 628.5,-216 747.5,-216 747.5,-252"/>
<text text-anchor="middle" x="688" y="-230.3" font-family="Times,serif" font-size="14.00" fill="#0000ff">Complex atlas</text>
</g>
<!-- GM/WM maps&#45;&gt;Complex atlas -->
<g id="edge30" class="edge">
<title>GM/WM maps&#45;&gt;Complex atlas</title>
<path fill="none" stroke="#000000" d="M86.126,-791.8028C59.5391,-766.4918 17,-717.8869 17,-666 17,-666 17,-666 17,-378 17,-316.9624 446.9349,-261.375 618.5126,-241.6216"/>
<polygon fill="#000000" stroke="#000000" points="618.916,-245.0983 628.4532,-240.484 618.1201,-238.1437 618.916,-245.0983"/>
</g>
<!-- T1 bet&#45;nonuniformity&#45;corrected image -->
<g id="node14" class="node">
<title>T1 bet&#45;nonuniformity&#45;corrected image</title>
<polygon fill="none" stroke="#0000ff" points="564.5,-900 273.5,-900 273.5,-864 564.5,-864 564.5,-900"/>
<text text-anchor="middle" x="419" y="-878.3" font-family="Times,serif" font-size="14.00" fill="#0000ff">T1 bet&#45;nonuniformity&#45;corrected image</text>
</g>
<!-- T1 bet&#45;nonuniformity&#45;corrected image&#45;&gt;Linear registration (FLIRT) -->
<g id="edge16" class="edge">
<title>T1 bet&#45;nonuniformity&#45;corrected image&#45;&gt;Linear registration (FLIRT)</title>
<path fill="none" stroke="#000000" d="M482.0139,-863.9243C518.806,-853.3704 565.2175,-840.0571 602.719,-829.2997"/>
<polygon fill="#000000" stroke="#000000" points="603.8986,-832.6026 612.5459,-826.4809 601.9684,-825.8739 603.8986,-832.6026"/>
</g>
<!-- Crop parameters&#45;&gt;T1 crop -->
<g id="edge7" class="edge">
<title>Crop parameters&#45;&gt;T1 crop</title>
<path fill="none" stroke="#000000" d="M978.9719,-1151.8314C977.6885,-1144.131 976.1624,-1134.9743 974.7361,-1126.4166"/>
<polygon fill="#000000" stroke="#000000" points="978.1653,-1125.7018 973.0689,-1116.4133 971.2606,-1126.8526 978.1653,-1125.7018"/>
</g>
<!-- Crop parameters&#45;&gt;T1 crop brain -->
<g id="edge10" class="edge">
<title>Crop parameters&#45;&gt;T1 crop brain</title>
<path fill="none" stroke="#000000" d="M1015.3092,-1151.8314C1033.2931,-1142.022 1055.6093,-1129.8495 1074.4692,-1119.5623"/>
<polygon fill="#000000" stroke="#000000" points="1076.3129,-1122.5434 1083.4159,-1114.6822 1072.9609,-1116.3982 1076.3129,-1122.5434"/>
</g>
<!-- T1 to Reference linear transformation -->
<g id="node16" class="node">
<title>T1 to Reference linear transformation</title>
<polygon fill="none" stroke="#0000ff" points="814.5,-756 525.5,-756 525.5,-720 814.5,-720 814.5,-756"/>
<text text-anchor="middle" x="670" y="-734.3" font-family="Times,serif" font-size="14.00" fill="#0000ff">T1 to Reference linear transformation</text>
</g>
<!-- T1 to Reference linear transformation&#45;&gt;T1 to Reference non&#45;linear registration (FNIRT) -->
<g id="edge20" class="edge">
<title>T1 to Reference linear transformation&#45;&gt;T1 to Reference non&#45;linear registration (FNIRT)</title>
<path fill="none" stroke="#000000" d="M669.4953,-719.8314C669.2814,-712.131 669.0271,-702.9743 668.7894,-694.4166"/>
<polygon fill="#000000" stroke="#000000" points="672.2879,-694.3122 668.5115,-684.4133 665.2906,-694.5066 672.2879,-694.3122"/>
</g>
<!-- T1 to Reference non&#45;linear transformation -->
<g id="node17" class="node">
<title>T1 to Reference non&#45;linear transformation</title>
<polygon fill="none" stroke="#0000ff" points="796,-612 476,-612 476,-576 796,-576 796,-612"/>
<text text-anchor="middle" x="636" y="-590.3" font-family="Times,serif" font-size="14.00" fill="#0000ff">T1 to Reference non&#45;linear transformation</text>
</g>
<!-- Invwarp -->
<g id="node42" class="node">
<title>Invwarp</title>
<ellipse fill="none" stroke="#000000" cx="620" cy="-522" rx="49.2915" ry="18"/>
<text text-anchor="middle" x="620" y="-518.3" font-family="Times,serif" font-size="14.00" fill="#000000">Invwarp</text>
</g>
<!-- T1 to Reference non&#45;linear transformation&#45;&gt;Invwarp -->
<g id="edge22" class="edge">
<title>T1 to Reference non&#45;linear transformation&#45;&gt;Invwarp</title>
<path fill="none" stroke="#000000" d="M631.9625,-575.8314C630.2513,-568.131 628.2165,-558.9743 626.3148,-550.4166"/>
<polygon fill="#000000" stroke="#000000" points="629.6779,-549.4159 624.0918,-540.4133 622.8446,-550.9344 629.6779,-549.4159"/>
</g>
<!-- Reference to T1 non&#45;linear transformation -->
<g id="node18" class="node">
<title>Reference to T1 non&#45;linear transformation</title>
<polygon fill="none" stroke="#0000ff" points="772,-468 452,-468 452,-432 772,-432 772,-468"/>
<text text-anchor="middle" x="612" y="-446.3" font-family="Times,serif" font-size="14.00" fill="#0000ff">Reference to T1 non&#45;linear transformation</text>
</g>
<!-- Reference to T1 non&#45;linear transformation&#45;&gt;Transform lobe map (applywarp) -->
<g id="edge25" class="edge">
<title>Reference to T1 non&#45;linear transformation&#45;&gt;Transform lobe map (applywarp)</title>
<path fill="none" stroke="#000000" d="M612,-431.8314C612,-424.131 612,-414.9743 612,-406.4166"/>
<polygon fill="#000000" stroke="#000000" points="615.5001,-406.4132 612,-396.4133 608.5001,-406.4133 615.5001,-406.4132"/>
</g>
<!-- Reference to T1 non&#45;linear transformation&#45;&gt;Transform brain mask (applywarp) -->
<g id="edge28" class="edge">
<title>Reference to T1 non&#45;linear transformation&#45;&gt;Transform brain mask (applywarp)</title>
<path fill="none" stroke="#000000" d="M709.1578,-431.9707C769.1025,-420.847 845.6383,-406.6444 905.15,-395.601"/>
<polygon fill="#000000" stroke="#000000" points="906.1075,-398.9832 915.301,-393.7173 904.8303,-392.1007 906.1075,-398.9832"/>
</g>
<!-- Lobe map (native space) -->
<g id="node19" class="node">
<title>Lobe map (native space)</title>
<polygon fill="none" stroke="#0000ff" points="756,-324 564,-324 564,-288 756,-288 756,-324"/>
<text text-anchor="middle" x="660" y="-302.3" font-family="Times,serif" font-size="14.00" fill="#0000ff">Lobe map (native space)</text>
</g>
<!-- Lobe map (native space)&#45;&gt;Complex atlas -->
<g id="edge31" class="edge">
<title>Lobe map (native space)&#45;&gt;Complex atlas</title>
<path fill="none" stroke="#000000" d="M667.0656,-287.8314C670.126,-279.9617 673.7779,-270.5712 677.1682,-261.8533"/>
<polygon fill="#000000" stroke="#000000" points="680.4768,-263.0019 680.8393,-252.4133 673.9527,-260.4647 680.4768,-263.0019"/>
</g>
<!-- Brain mask (native space) -->
<g id="node20" class="node">
<title>Brain mask (native space)</title>
<polygon fill="none" stroke="#0000ff" points="1135.5,-324 932.5,-324 932.5,-288 1135.5,-288 1135.5,-324"/>
<text text-anchor="middle" x="1034" y="-302.3" font-family="Times,serif" font-size="14.00" fill="#0000ff">Brain mask (native space)</text>
</g>
<!-- Calc stats -->
<g id="node53" class="node">
<title>Calc stats</title>
<ellipse fill="none" stroke="#000000" cx="1237" cy="-90" rx="57.6901" ry="18"/>
<text text-anchor="middle" x="1237" y="-86.3" font-family="Times,serif" font-size="14.00" fill="#000000">Calc stats</text>
</g>
<!-- Brain mask (native space)&#45;&gt;Calc stats -->
<g id="edge60" class="edge">
<title>Brain mask (native space)&#45;&gt;Calc stats</title>
<path fill="none" stroke="#000000" d="M1050.9585,-287.9555C1087.1856,-249.4084 1172.1868,-158.9638 1213.5563,-114.9451"/>
<polygon fill="#000000" stroke="#000000" points="1216.2181,-117.2235 1220.516,-107.5396 1211.1172,-112.4296 1216.2181,-117.2235"/>
</g>
<!-- NU corrected T1 -->
<g id="node21" class="node">
<title>NU corrected T1</title>
<polygon fill="none" stroke="#0000ff" points="1455.5,-828 1316.5,-828 1316.5,-792 1455.5,-792 1455.5,-828"/>
<text text-anchor="middle" x="1386" y="-806.3" font-family="Times,serif" font-size="14.00" fill="#0000ff">NU corrected T1</text>
</g>
<!-- NU corrected T1&#45;&gt;Calc stats -->
<g id="edge61" class="edge">
<title>NU corrected T1&#45;&gt;Calc stats</title>
<path fill="none" stroke="#000000" d="M1357.573,-791.8591C1323.5182,-767.6527 1271,-721.3495 1271,-666 1271,-666 1271,-666 1271,-234 1271,-192.8199 1257.6668,-146.7455 1247.6995,-118.0555"/>
<polygon fill="#000000" stroke="#000000" points="1250.8773,-116.5477 1244.2105,-108.3133 1244.2871,-118.9079 1250.8773,-116.5477"/>
</g>
<!-- Eddy corrected image -->
<g id="node22" class="node">
<title>Eddy corrected image</title>
<polygon fill="none" stroke="#0000ff" points="2027,-756 1851,-756 1851,-720 2027,-720 2027,-756"/>
<text text-anchor="middle" x="1939" y="-734.3" font-family="Times,serif" font-size="14.00" fill="#0000ff">Eddy corrected image</text>
</g>
<!-- DTI brain extraction (BET) -->
<g id="node47" class="node">
<title>DTI brain extraction (BET)</title>
<ellipse fill="none" stroke="#000000" cx="1939" cy="-666" rx="135.6761" ry="18"/>
<text text-anchor="middle" x="1939" y="-662.3" font-family="Times,serif" font-size="14.00" fill="#000000">DTI brain extraction (BET)</text>
</g>
<!-- Eddy corrected image&#45;&gt;DTI brain extraction (BET) -->
<g id="edge39" class="edge">
<title>Eddy corrected image&#45;&gt;DTI brain extraction (BET)</title>
<path fill="none" stroke="#000000" d="M1939,-719.8314C1939,-712.131 1939,-702.9743 1939,-694.4166"/>
<polygon fill="#000000" stroke="#000000" points="1942.5001,-694.4132 1939,-684.4133 1935.5001,-694.4133 1942.5001,-694.4132"/>
</g>
<!-- Eddy corrected image&#45;&gt;dtifit -->
<g id="edge44" class="edge">
<title>Eddy corrected image&#45;&gt;dtifit</title>
<path fill="none" stroke="#000000" d="M1868.7692,-719.99C1836.5427,-710.1785 1803.4033,-697.3375 1794,-684 1766.3404,-644.768 1771.3911,-618.8632 1793,-576 1797.7264,-566.6248 1817.2981,-552.386 1834.9868,-540.8832"/>
<polygon fill="#000000" stroke="#000000" points="1836.8958,-543.817 1843.4458,-535.4895 1833.1322,-537.9148 1836.8958,-543.817"/>
</g>
<!-- DTI brain mask -->
<g id="node23" class="node">
<title>DTI brain mask</title>
<polygon fill="none" stroke="#0000ff" points="1930,-612 1802,-612 1802,-576 1930,-576 1930,-612"/>
<text text-anchor="middle" x="1866" y="-590.3" font-family="Times,serif" font-size="14.00" fill="#0000ff">DTI brain mask</text>
</g>
<!-- DTI brain mask&#45;&gt;dtifit -->
<g id="edge45" class="edge">
<title>DTI brain mask&#45;&gt;dtifit</title>
<path fill="none" stroke="#000000" d="M1866,-575.8314C1866,-568.131 1866,-558.9743 1866,-550.4166"/>
<polygon fill="#000000" stroke="#000000" points="1869.5001,-550.4132 1866,-540.4133 1862.5001,-550.4133 1869.5001,-550.4132"/>
</g>
<!-- FA image -->
<g id="node24" class="node">
<title>FA image</title>
<polygon fill="none" stroke="#0000ff" points="1989.5,-396 1906.5,-396 1906.5,-360 1989.5,-360 1989.5,-396"/>
<text text-anchor="middle" x="1948" y="-374.3" font-family="Times,serif" font-size="14.00" fill="#0000ff">FA image</text>
</g>
<!-- Transform FA (applywarp) -->
<g id="node51" class="node">
<title>Transform FA (applywarp)</title>
<ellipse fill="none" stroke="#000000" cx="2155" cy="-234" rx="133.4768" ry="18"/>
<text text-anchor="middle" x="2155" y="-230.3" font-family="Times,serif" font-size="14.00" fill="#000000">Transform FA (applywarp)</text>
</g>
<!-- FA image&#45;&gt;Transform FA (applywarp) -->
<g id="edge54" class="edge">
<title>FA image&#45;&gt;Transform FA (applywarp)</title>
<path fill="none" stroke="#000000" d="M1956.2084,-359.9927C1966.2384,-339.8431 1985.0078,-307.4782 2010,-288 2029.9256,-272.4706 2054.7794,-261.0635 2078.2516,-252.8458"/>
<polygon fill="#000000" stroke="#000000" points="2079.4875,-256.123 2087.8583,-249.6283 2077.2644,-249.4854 2079.4875,-256.123"/>
</g>
<!-- MD image -->
<g id="node25" class="node">
<title>MD image</title>
<polygon fill="none" stroke="#0000ff" points="1911,-324 1821,-324 1821,-288 1911,-288 1911,-324"/>
<text text-anchor="middle" x="1866" y="-302.3" font-family="Times,serif" font-size="14.00" fill="#0000ff">MD image</text>
</g>
<!-- Transform MD (applywarp) -->
<g id="node52" class="node">
<title>Transform MD (applywarp)</title>
<ellipse fill="none" stroke="#000000" cx="1866" cy="-234" rx="137.5759" ry="18"/>
<text text-anchor="middle" x="1866" y="-230.3" font-family="Times,serif" font-size="14.00" fill="#000000">Transform MD (applywarp)</text>
</g>
<!-- MD image&#45;&gt;Transform MD (applywarp) -->
<g id="edge57" class="edge">
<title>MD image&#45;&gt;Transform MD (applywarp)</title>
<path fill="none" stroke="#000000" d="M1866,-287.8314C1866,-280.131 1866,-270.9743 1866,-262.4166"/>
<polygon fill="#000000" stroke="#000000" points="1869.5001,-262.4132 1866,-252.4133 1862.5001,-262.4133 1869.5001,-262.4132"/>
</g>
<!-- FA image (T1 space) -->
<g id="node26" class="node">
<title>FA image (T1 space)</title>
<polygon fill="none" stroke="#0000ff" points="2170.5,-180 2007.5,-180 2007.5,-144 2170.5,-144 2170.5,-180"/>
<text text-anchor="middle" x="2089" y="-158.3" font-family="Times,serif" font-size="14.00" fill="#0000ff">FA image (T1 space)</text>
</g>
<!-- FA image (T1 space)&#45;&gt;Calc stats -->
<g id="edge62" class="edge">
<title>FA image (T1 space)&#45;&gt;Calc stats</title>
<path fill="none" stroke="#000000" d="M2007.4438,-146.84C1983.5244,-142.819 1957.2736,-138.8179 1933,-136 1703.6801,-109.3783 1429.9287,-96.8965 1305.0936,-92.2584"/>
<polygon fill="#000000" stroke="#000000" points="1305.0442,-88.7543 1294.9227,-91.8857 1304.7878,-95.7496 1305.0442,-88.7543"/>
</g>
<!-- MD image (T1 space) -->
<g id="node27" class="node">
<title>MD image (T1 space)</title>
<polygon fill="none" stroke="#0000ff" points="1924,-180 1754,-180 1754,-144 1924,-144 1924,-180"/>
<text text-anchor="middle" x="1839" y="-158.3" font-family="Times,serif" font-size="14.00" fill="#0000ff">MD image (T1 space)</text>
</g>
<!-- MD image (T1 space)&#45;&gt;Calc stats -->
<g id="edge63" class="edge">
<title>MD image (T1 space)&#45;&gt;Calc stats</title>
<path fill="none" stroke="#000000" d="M1753.7064,-151.7988C1631.7878,-137.2171 1410.3997,-110.7388 1301.2971,-97.69"/>
<polygon fill="#000000" stroke="#000000" points="1301.4414,-94.1824 1291.0964,-96.47 1300.61,-101.1329 1301.4414,-94.1824"/>
</g>
<!-- DTI to T1 linear transformation -->
<g id="node28" class="node">
<title>DTI to T1 linear transformation</title>
<polygon fill="none" stroke="#0000ff" points="2261.5,-324 2018.5,-324 2018.5,-288 2261.5,-288 2261.5,-324"/>
<text text-anchor="middle" x="2140" y="-302.3" font-family="Times,serif" font-size="14.00" fill="#0000ff">DTI to T1 linear transformation</text>
</g>
<!-- DTI to T1 linear transformation&#45;&gt;Transform FA (applywarp) -->
<g id="edge55" class="edge">
<title>DTI to T1 linear transformation&#45;&gt;Transform FA (applywarp)</title>
<path fill="none" stroke="#000000" d="M2143.7851,-287.8314C2145.3894,-280.131 2147.297,-270.9743 2149.0799,-262.4166"/>
<polygon fill="#000000" stroke="#000000" points="2152.5507,-262.9169 2151.1639,-252.4133 2145.6979,-261.4892 2152.5507,-262.9169"/>
</g>
<!-- DTI to T1 linear transformation&#45;&gt;Transform MD (applywarp) -->
<g id="edge58" class="edge">
<title>DTI to T1 linear transformation&#45;&gt;Transform MD (applywarp)</title>
<path fill="none" stroke="#000000" d="M2071.2119,-287.9243C2030.4131,-277.2034 1978.7786,-263.6353 1937.5109,-252.7912"/>
<polygon fill="#000000" stroke="#000000" points="1938.3577,-249.395 1927.7965,-250.2385 1936.5787,-256.1651 1938.3577,-249.395"/>
</g>
<!-- stats.txt -->
<g id="node29" class="node">
<title>stats.txt</title>
<polygon fill="none" stroke="#0000ff" points="1214.5,-36 1137.5,-36 1137.5,0 1214.5,0 1214.5,-36"/>
<text text-anchor="middle" x="1176" y="-14.3" font-family="Times,serif" font-size="14.00" fill="#0000ff">stats.txt</text>
</g>
<!-- stats_simple.txt -->
<g id="node30" class="node">
<title>stats_simple.txt</title>
<polygon fill="none" stroke="#0000ff" points="1363.5,-36 1232.5,-36 1232.5,0 1363.5,0 1363.5,-36"/>
<text text-anchor="middle" x="1298" y="-14.3" font-family="Times,serif" font-size="14.00" fill="#0000ff">stats_simple.txt</text>
</g>
<!-- Simple atlas -->
<g id="node32" class="node">
<title>Simple atlas</title>
<polygon fill="none" stroke="#0000ff" points="1017.5,-180 912.5,-180 912.5,-144 1017.5,-144 1017.5,-180"/>
<text text-anchor="middle" x="965" y="-158.3" font-family="Times,serif" font-size="14.00" fill="#0000ff">Simple atlas</text>
</g>
<!-- Complex atlas&#45;&gt;Simple atlas -->
<g id="edge32" class="edge">
<title>Complex atlas&#45;&gt;Simple atlas</title>
<path fill="none" stroke="#000000" d="M747.7638,-218.4657C793.4007,-206.6034 856.1165,-190.3019 902.4335,-178.2628"/>
<polygon fill="#000000" stroke="#000000" points="903.5531,-181.5881 912.351,-175.6849 901.7921,-174.8132 903.5531,-181.5881"/>
</g>
<!-- Complex atlas&#45;&gt;Calc stats -->
<g id="edge64" class="edge">
<title>Complex atlas&#45;&gt;Calc stats</title>
<path fill="none" stroke="#000000" d="M720.1702,-215.8235C761.413,-193.3735 835.7638,-155.7398 904,-136 993.7198,-110.0452 1101.4001,-98.5644 1169.5234,-93.6042"/>
<polygon fill="#000000" stroke="#000000" points="1169.9636,-97.082 1179.6941,-92.8907 1169.4737,-90.0991 1169.9636,-97.082"/>
</g>
<!-- Simple atlas&#45;&gt;Calc stats -->
<g id="edge66" class="edge">
<title>Simple atlas&#45;&gt;Calc stats</title>
<path fill="none" stroke="#000000" d="M1017.7668,-148.0323C1065.3632,-135.4333 1135.059,-116.9844 1183.0248,-104.2876"/>
<polygon fill="#000000" stroke="#000000" points="1184.1432,-107.6121 1192.9146,-101.6697 1182.3519,-100.8452 1184.1432,-107.6121"/>
</g>
<!-- Structural index&#45;&gt;Eddy correction (eddy_correct) -->
<g id="edge37" class="edge">
<title>Structural index&#45;&gt;Eddy correction (eddy_correct)</title>
<path fill="none" stroke="#000000" d="M2039.1861,-863.8314C2021.4628,-854.3084 1999.5946,-842.5583 1980.8155,-832.4681"/>
<polygon fill="#000000" stroke="#000000" points="1982.3422,-829.3151 1971.8766,-827.665 1979.0289,-835.4814 1982.3422,-829.3151"/>
</g>
<!-- Extract struct image (fslroi) -->
<g id="node49" class="node">
<title>Extract struct image (fslroi)</title>
<ellipse fill="none" stroke="#000000" cx="2125" cy="-522" rx="141.8751" ry="18"/>
<text text-anchor="middle" x="2125" y="-518.3" font-family="Times,serif" font-size="14.00" fill="#000000">Extract struct image (fslroi)</text>
</g>
<!-- Structural index&#45;&gt;Extract struct image (fslroi) -->
<g id="edge48" class="edge">
<title>Structural index&#45;&gt;Extract struct image (fslroi)</title>
<path fill="none" stroke="#000000" d="M2109.6192,-863.8913C2150.5023,-840.791 2211,-796.6921 2211,-738 2211,-738 2211,-738 2211,-666 2211,-625.7538 2221.4099,-610.687 2201,-576 2193.6683,-563.5397 2182.2008,-553.2006 2170.3761,-545.0194"/>
<polygon fill="#000000" stroke="#000000" points="2172.0542,-541.9365 2161.7567,-539.4441 2168.2524,-547.8141 2172.0542,-541.9365"/>
</g>
<!-- DTI brain image -->
<g id="node34" class="node">
<title>DTI brain image</title>
<polygon fill="none" stroke="#0000ff" points="2192,-612 2058,-612 2058,-576 2192,-576 2192,-612"/>
<text text-anchor="middle" x="2125" y="-590.3" font-family="Times,serif" font-size="14.00" fill="#0000ff">DTI brain image</text>
</g>
<!-- DTI brain image&#45;&gt;Extract struct image (fslroi) -->
<g id="edge49" class="edge">
<title>DTI brain image&#45;&gt;Extract struct image (fslroi)</title>
<path fill="none" stroke="#000000" d="M2125,-575.8314C2125,-568.131 2125,-558.9743 2125,-550.4166"/>
<polygon fill="#000000" stroke="#000000" points="2128.5001,-550.4132 2125,-540.4133 2121.5001,-550.4133 2128.5001,-550.4132"/>
</g>
<!-- DTI structural image -->
<g id="node35" class="node">
<title>DTI structural image</title>
<polygon fill="none" stroke="#0000ff" points="2216,-468 2048,-468 2048,-432 2216,-432 2216,-468"/>
<text text-anchor="middle" x="2132" y="-446.3" font-family="Times,serif" font-size="14.00" fill="#0000ff">DTI structural image</text>
</g>
<!-- DTI structural image&#45;&gt;DTI linear registration -->
<g id="edge52" class="edge">
<title>DTI structural image&#45;&gt;DTI linear registration</title>
<path fill="none" stroke="#000000" d="M2134.0187,-431.8314C2134.8743,-424.131 2135.8917,-414.9743 2136.8426,-406.4166"/>
<polygon fill="#000000" stroke="#000000" points="2140.3283,-406.7386 2137.9541,-396.4133 2133.3711,-405.9656 2140.3283,-406.7386"/>
</g>
<!-- Brain extraction (BET)&#45;&gt;T1 brain image -->
<g id="edge2" class="edge">
<title>Brain extraction (BET)&#45;&gt;T1 brain image</title>
<path fill="none" stroke="#000000" d="M1085.1096,-1296.0957C1091.6483,-1285.8531 1099.4864,-1272.5752 1105,-1260 1113.816,-1239.8928 1120.8248,-1216.0524 1125.4901,-1197.9615"/>
<polygon fill="#000000" stroke="#000000" points="1128.939,-1198.5956 1127.962,-1188.046 1122.1469,-1196.9023 1128.939,-1198.5956"/>
</g>
<!-- Brain extraction (BET)&#45;&gt;T1 skull image -->
<g id="edge3" class="edge">
<title>Brain extraction (BET)&#45;&gt;T1 skull image</title>
<path fill="none" stroke="#000000" d="M1063.411,-1295.8314C1059.1683,-1287.7925 1054.0879,-1278.1666 1049.404,-1269.2918"/>
<polygon fill="#000000" stroke="#000000" points="1052.4811,-1267.6235 1044.7181,-1260.4133 1046.2904,-1270.8908 1052.4811,-1267.6235"/>
</g>
<!-- T1 crop&#45;&gt;T1 cropped image -->
<g id="edge8" class="edge">
<title>T1 crop&#45;&gt;T1 cropped image</title>
<path fill="none" stroke="#000000" d="M970,-1079.7623C970,-1055.201 970,-1011.2474 970,-982.3541"/>
<polygon fill="#000000" stroke="#000000" points="973.5001,-982.0896 970,-972.0896 966.5001,-982.0897 973.5001,-982.0896"/>
</g>
<!-- T1 crop brain&#45;&gt;T1 cropped brain image -->
<g id="edge11" class="edge">
<title>T1 crop brain&#45;&gt;T1 cropped brain image</title>
<path fill="none" stroke="#000000" d="M1114,-1079.8314C1114,-1072.131 1114,-1062.9743 1114,-1054.4166"/>
<polygon fill="#000000" stroke="#000000" points="1117.5001,-1054.4132 1114,-1044.4133 1110.5001,-1054.4133 1117.5001,-1054.4132"/>
</g>
<!-- Tissue classification (FAST)&#45;&gt;GM/WM maps -->
<g id="edge13" class="edge">
<title>Tissue classification (FAST)&#45;&gt;GM/WM maps</title>
<path fill="none" stroke="#000000" d="M352.038,-938.1544C324.4795,-930.5753 292.6102,-920.4202 265,-908 219.2572,-887.423 170.8318,-855.7189 139.834,-833.9773"/>
<polygon fill="#000000" stroke="#000000" points="141.7539,-831.0483 131.5698,-828.1268 137.7093,-836.7615 141.7539,-831.0483"/>
</g>
<!-- Tissue classification (FAST)&#45;&gt;T1 bet&#45;nonuniformity&#45;corrected image -->
<g id="edge14" class="edge">
<title>Tissue classification (FAST)&#45;&gt;T1 bet&#45;nonuniformity&#45;corrected image</title>
<path fill="none" stroke="#000000" d="M419,-935.8314C419,-928.131 419,-918.9743 419,-910.4166"/>
<polygon fill="#000000" stroke="#000000" points="422.5001,-910.4132 419,-900.4133 415.5001,-910.4133 422.5001,-910.4132"/>
</g>
<!-- Linear registration (FLIRT)&#45;&gt;T1 to Reference linear transformation -->
<g id="edge17" class="edge">
<title>Linear registration (FLIRT)&#45;&gt;T1 to Reference linear transformation</title>
<path fill="none" stroke="#000000" d="M670,-791.8314C670,-784.131 670,-774.9743 670,-766.4166"/>
<polygon fill="#000000" stroke="#000000" points="673.5001,-766.4132 670,-756.4133 666.5001,-766.4133 673.5001,-766.4132"/>
</g>
<!-- T1 to Reference non&#45;linear registration (FNIRT)&#45;&gt;T1 to Reference non&#45;linear transformation -->
<g id="edge21" class="edge">
<title>T1 to Reference non&#45;linear registration (FNIRT)&#45;&gt;T1 to Reference non&#45;linear transformation</title>
<path fill="none" stroke="#000000" d="M659.925,-647.8314C656.3898,-639.8771 652.164,-630.369 648.2544,-621.5723"/>
<polygon fill="#000000" stroke="#000000" points="651.4435,-620.1299 644.1837,-612.4133 645.0468,-622.9729 651.4435,-620.1299"/>
</g>
<!-- Invwarp&#45;&gt;Reference to T1 non&#45;linear transformation -->
<g id="edge23" class="edge">
<title>Invwarp&#45;&gt;Reference to T1 non&#45;linear transformation</title>
<path fill="none" stroke="#000000" d="M617.9813,-503.8314C617.1257,-496.131 616.1083,-486.9743 615.1574,-478.4166"/>
<polygon fill="#000000" stroke="#000000" points="618.6289,-477.9656 614.0459,-468.4133 611.6717,-478.7386 618.6289,-477.9656"/>
</g>
<!-- Transform lobe map (applywarp)&#45;&gt;Lobe map (native space) -->
<g id="edge26" class="edge">
<title>Transform lobe map (applywarp)&#45;&gt;Lobe map (native space)</title>
<path fill="none" stroke="#000000" d="M624.1124,-359.8314C629.5281,-351.7079 636.0242,-341.9637 641.9921,-333.0118"/>
<polygon fill="#000000" stroke="#000000" points="645.0896,-334.6753 647.7245,-324.4133 639.2653,-330.7923 645.0896,-334.6753"/>
</g>
<!-- Transform brain mask (applywarp)&#45;&gt;Brain mask (native space) -->
<g id="edge29" class="edge">
<title>Transform brain mask (applywarp)&#45;&gt;Brain mask (native space)</title>
<path fill="none" stroke="#000000" d="M1008.5796,-359.8314C1012.3358,-351.8771 1016.8257,-342.369 1020.9798,-333.5723"/>
<polygon fill="#000000" stroke="#000000" points="1024.1996,-334.9503 1025.3048,-324.4133 1017.8699,-331.9612 1024.1996,-334.9503"/>
</g>
<!-- Non&#45;uniformity correction (mri_nu_correct.mni)&#45;&gt;NU corrected T1 -->
<g id="edge34" class="edge">
<title>Non&#45;uniformity correction (mri_nu_correct.mni)&#45;&gt;NU corrected T1</title>
<path fill="none" stroke="#000000" d="M1448.0556,-863.8314C1437.9309,-855.0485 1425.6223,-844.3712 1414.6452,-834.8489"/>
<polygon fill="#000000" stroke="#000000" points="1416.7851,-832.0718 1406.9377,-828.1628 1412.1981,-837.3595 1416.7851,-832.0718"/>
</g>
<!-- Eddy correction (eddy_correct)&#45;&gt;Eddy corrected image -->
<g id="edge38" class="edge">
<title>Eddy correction (eddy_correct)&#45;&gt;Eddy corrected image</title>
<path fill="none" stroke="#000000" d="M1939,-791.8314C1939,-784.131 1939,-774.9743 1939,-766.4166"/>
<polygon fill="#000000" stroke="#000000" points="1942.5001,-766.4132 1939,-756.4133 1935.5001,-766.4133 1942.5001,-766.4132"/>
</g>
<!-- DTI brain extraction (BET)&#45;&gt;DTI brain mask -->
<g id="edge40" class="edge">
<title>DTI brain extraction (BET)&#45;&gt;DTI brain mask</title>
<path fill="none" stroke="#000000" d="M1920.579,-647.8314C1911.8471,-639.219 1901.2683,-628.7851 1891.7577,-619.4048"/>
<polygon fill="#000000" stroke="#000000" points="1893.9925,-616.6931 1884.4151,-612.1628 1889.077,-621.6769 1893.9925,-616.6931"/>
</g>
<!-- DTI brain extraction (BET)&#45;&gt;DTI brain image -->
<g id="edge41" class="edge">
<title>DTI brain extraction (BET)&#45;&gt;DTI brain image</title>
<path fill="none" stroke="#000000" d="M1983.0794,-648.937C2008.7373,-639.0049 2041.3402,-626.3845 2068.8252,-615.7451"/>
<polygon fill="#000000" stroke="#000000" points="2070.2516,-618.9461 2078.3138,-612.0721 2067.7246,-612.4181 2070.2516,-618.9461"/>
</g>
<!-- dtifit&#45;&gt;FA image -->
<g id="edge46" class="edge">
<title>dtifit&#45;&gt;FA image</title>
<path fill="none" stroke="#000000" d="M1875.8911,-504.6302C1889.959,-479.9257 1915.8807,-434.4047 1932.5107,-405.2007"/>
<polygon fill="#000000" stroke="#000000" points="1935.6498,-406.7612 1937.5568,-396.3394 1929.5669,-403.2973 1935.6498,-406.7612"/>
</g>
<!-- dtifit&#45;&gt;MD image -->
<g id="edge47" class="edge">
<title>dtifit&#45;&gt;MD image</title>
<path fill="none" stroke="#000000" d="M1866,-503.9555C1866,-466.3938 1866,-379.5541 1866,-334.4103"/>
<polygon fill="#000000" stroke="#000000" points="1869.5001,-334.145 1866,-324.1451 1862.5001,-334.1451 1869.5001,-334.145"/>
</g>
<!-- Extract struct image (fslroi)&#45;&gt;DTI structural image -->
<g id="edge50" class="edge">
<title>Extract struct image (fslroi)&#45;&gt;DTI structural image</title>
<path fill="none" stroke="#000000" d="M2126.7664,-503.8314C2127.515,-496.131 2128.4053,-486.9743 2129.2373,-478.4166"/>
<polygon fill="#000000" stroke="#000000" points="2132.7256,-478.7051 2130.2098,-468.4133 2125.7585,-478.0276 2132.7256,-478.7051"/>
</g>
<!-- DTI linear registration&#45;&gt;DTI to T1 linear transformation -->
<g id="edge53" class="edge">
<title>DTI linear registration&#45;&gt;DTI to T1 linear transformation</title>
<path fill="none" stroke="#000000" d="M2140,-359.8314C2140,-352.131 2140,-342.9743 2140,-334.4166"/>
<polygon fill="#000000" stroke="#000000" points="2143.5001,-334.4132 2140,-324.4133 2136.5001,-334.4133 2143.5001,-334.4132"/>
</g>
<!-- Transform FA (applywarp)&#45;&gt;FA image (T1 space) -->
<g id="edge56" class="edge">
<title>Transform FA (applywarp)&#45;&gt;FA image (T1 space)</title>
<path fill="none" stroke="#000000" d="M2138.3454,-215.8314C2130.5886,-207.3694 2121.2198,-197.1489 2112.739,-187.8971"/>
<polygon fill="#000000" stroke="#000000" points="2115.2162,-185.4198 2105.8788,-180.4133 2110.0561,-190.1499 2115.2162,-185.4198"/>
</g>
<!-- Transform MD (applywarp)&#45;&gt;MD image (T1 space) -->
<g id="edge59" class="edge">
<title>Transform MD (applywarp)&#45;&gt;MD image (T1 space)</title>
<path fill="none" stroke="#000000" d="M1859.1868,-215.8314C1856.2356,-207.9617 1852.7142,-198.5712 1849.445,-189.8533"/>
<polygon fill="#000000" stroke="#000000" points="1852.6934,-188.5476 1845.905,-180.4133 1846.1391,-191.0055 1852.6934,-188.5476"/>
</g>
<!-- Calc stats&#45;&gt;stats.txt -->
<g id="edge65" class="edge">
<title>Calc stats&#45;&gt;stats.txt</title>
<path fill="none" stroke="#000000" d="M1222.2336,-72.5708C1214.9061,-63.922 1205.9103,-53.3039 1197.8075,-43.74"/>
<polygon fill="#000000" stroke="#000000" points="1200.4021,-41.388 1191.2674,-36.0206 1195.0612,-45.9129 1200.4021,-41.388"/>
</g>
<!-- Calc stats&#45;&gt;stats_simple.txt -->
<g id="edge67" class="edge">
<title>Calc stats&#45;&gt;stats_simple.txt</title>
<path fill="none" stroke="#000000" d="M1251.7664,-72.5708C1259.0939,-63.922 1268.0897,-53.3039 1276.1925,-43.74"/>
<polygon fill="#000000" stroke="#000000" points="1278.9388,-45.9129 1282.7326,-36.0206 1273.5979,-41.388 1278.9388,-45.9129"/>
</g>
</g>
</svg>
