<?xml version="1.0" encoding="UTF-8" standalone="no"?>
<!DOCTYPE svg PUBLIC "-//W3C//DTD SVG 1.1//EN"
 "http://www.w3.org/Graphics/SVG/1.1/DTD/svg11.dtd">
<!-- Generated by graphviz version 2.40.1 (20161225.0304)
 -->
<!-- Title: Pipeline Pages: 1 -->
<svg width="1834pt" height="1428pt"
 viewBox="0.00 0.00 1834.17 1428.00" xmlns="http://www.w3.org/2000/svg" xmlns:xlink="http://www.w3.org/1999/xlink">
<g id="graph0" class="graph" transform="scale(1 1) rotate(0) translate(4 1424)">
<title>Pipeline</title>
<polygon fill="#ffffff" stroke="transparent" points="-4,4 -4,-1424 1830.1692,-1424 1830.1692,4 -4,4"/>
<g id="clust3" class="cluster">
<title>clustermaps</title>
<polygon fill="none" stroke="#000000" points="8,-136 8,-1412 1218,-1412 1218,-136 8,-136"/>
</g>
<g id="clust13" class="cluster">
<title>clusterT1 data</title>
<polygon fill="none" stroke="#000000" points="1226,-1000 1226,-1196 1712,-1196 1712,-1000 1226,-1000"/>
</g>
<g id="clust14" class="cluster">
<title>clusterDTI</title>
<polygon fill="none" stroke="#000000" points="1226,-136 1226,-980 1802,-980 1802,-136 1226,-136"/>
</g>
<!-- T1 image -->
<g id="node1" class="node">
<title>T1 image</title>
<polygon fill="none" stroke="#ff0000" points="1026,-1404 949.9193,-1386 1026,-1368 1102.0807,-1386 1026,-1404"/>
<text text-anchor="middle" x="1026" y="-1382.3" font-family="Times,serif" font-size="14.00" fill="#ff0000">T1 image</text>
</g>
<!-- Crop parameters -->
<g id="node15" class="node">
<title>Crop parameters</title>
<polygon fill="none" stroke="#0000ff" points="1063.5,-1188 924.5,-1188 924.5,-1152 1063.5,-1152 1063.5,-1188"/>
<text text-anchor="middle" x="994" y="-1166.3" font-family="Times,serif" font-size="14.00" fill="#0000ff">Crop parameters</text>
</g>
<!-- T1 image&#45;&gt;Crop parameters -->
<g id="edge5" class="edge">
<title>T1 image&#45;&gt;Crop parameters</title>
<path fill="none" stroke="#000000" d="M1004.9971,-1372.754C991.9543,-1363.2061 976.3253,-1349.0303 969,-1332 949.944,-1287.6972 967.0733,-1231.0574 980.8304,-1197.8291"/>
<polygon fill="#000000" stroke="#000000" points="984.1909,-1198.8759 984.9478,-1188.3081 977.766,-1196.0974 984.1909,-1198.8759"/>
</g>
<!-- Brain extraction (BET) -->
<g id="node36" class="node">
<title>Brain extraction (BET)</title>
<ellipse fill="none" stroke="#000000" cx="1094" cy="-1314" rx="116.1796" ry="18"/>
<text text-anchor="middle" x="1094" y="-1310.3" font-family="Times,serif" font-size="14.00" fill="#000000">Brain extraction (BET)</text>
</g>
<!-- T1 image&#45;&gt;Brain extraction (BET) -->
<g id="edge1" class="edge">
<title>T1 image&#45;&gt;Brain extraction (BET)</title>
<path fill="none" stroke="#000000" d="M1040.0896,-1371.0816C1048.7294,-1361.9335 1060.0177,-1349.9813 1070.031,-1339.379"/>
<polygon fill="#000000" stroke="#000000" points="1072.7191,-1341.6302 1077.0408,-1331.9568 1067.6299,-1336.8238 1072.7191,-1341.6302"/>
</g>
<!-- T1 crop -->
<g id="node37" class="node">
<title>T1 crop</title>
<ellipse fill="none" stroke="#000000" cx="905" cy="-1098" rx="46.5926" ry="18"/>
<text text-anchor="middle" x="905" y="-1094.3" font-family="Times,serif" font-size="14.00" fill="#000000">T1 crop</text>
</g>
<!-- T1 image&#45;&gt;T1 crop -->
<g id="edge6" class="edge">
<title>T1 image&#45;&gt;T1 crop</title>
<path fill="none" stroke="#000000" d="M1003.0872,-1373.2023C987.974,-1363.666 968.8491,-1349.328 957,-1332 913.1961,-1267.9415 905.6165,-1173.0474 904.7303,-1126.2288"/>
<polygon fill="#000000" stroke="#000000" points="908.23,-1126.1653 904.6311,-1116.2004 901.2303,-1126.2346 908.23,-1126.1653"/>
</g>
<!-- Non&#45;uniformity correction (mri_nu_correct.mni) -->
<g id="node45" class="node">
<title>Non&#45;uniformity correction (mri_nu_correct.mni)</title>
<ellipse fill="none" stroke="#000000" cx="1469" cy="-1170" rx="235.0585" ry="18"/>
<text text-anchor="middle" x="1469" y="-1166.3" font-family="Times,serif" font-size="14.00" fill="#000000">Non&#45;uniformity correction (mri_nu_correct.mni)</text>
</g>
<!-- T1 image&#45;&gt;Non&#45;uniformity correction (mri_nu_correct.mni) -->
<g id="edge33" class="edge">
<title>T1 image&#45;&gt;Non&#45;uniformity correction (mri_nu_correct.mni)</title>
<path fill="none" stroke="#000000" d="M1068.6934,-1377.9378C1108.6799,-1369.4939 1169.5256,-1354.3253 1219,-1332 1303.7641,-1293.7503 1392.7889,-1229.3119 1438.2722,-1194.3435"/>
<polygon fill="#000000" stroke="#000000" points="1440.4821,-1197.0589 1446.2473,-1188.17 1436.1972,-1191.5235 1440.4821,-1197.0589"/>
</g>
<!-- MNI reference -->
<g id="node2" class="node">
<title>MNI reference</title>
<polygon fill="none" stroke="#ff0000" points="623,-756 509.8873,-738 623,-720 736.1127,-738 623,-756"/>
<text text-anchor="middle" x="623" y="-734.3" font-family="Times,serif" font-size="14.00" fill="#ff0000">MNI reference</text>
</g>
<!-- T1 to Reference non&#45;linear registration (FNIRT) -->
<g id="node41" class="node">
<title>T1 to Reference non&#45;linear registration (FNIRT)</title>
<ellipse fill="none" stroke="#000000" cx="622" cy="-666" rx="234.7584" ry="18"/>
<text text-anchor="middle" x="622" y="-662.3" font-family="Times,serif" font-size="14.00" fill="#000000">T1 to Reference non&#45;linear registration (FNIRT)</text>
</g>
<!-- MNI reference&#45;&gt;T1 to Reference non&#45;linear registration (FNIRT) -->
<g id="edge18" class="edge">
<title>MNI reference&#45;&gt;T1 to Reference non&#45;linear registration (FNIRT)</title>
<path fill="none" stroke="#000000" d="M622.7477,-719.8314C622.6407,-712.131 622.5135,-702.9743 622.3947,-694.4166"/>
<polygon fill="#000000" stroke="#000000" points="625.8944,-694.3637 622.2557,-684.4133 618.8951,-694.4609 625.8944,-694.3637"/>
</g>
<!-- MNI reference brain -->
<g id="node3" class="node">
<title>MNI reference brain</title>
<polygon fill="none" stroke="#ff0000" points="671,-900 519.1779,-882 671,-864 822.8221,-882 671,-900"/>
<text text-anchor="middle" x="671" y="-878.3" font-family="Times,serif" font-size="14.00" fill="#ff0000">MNI reference brain</text>
</g>
<!-- Linear registration (FLIRT) -->
<g id="node40" class="node">
<title>Linear registration (FLIRT)</title>
<ellipse fill="none" stroke="#000000" cx="899" cy="-810" rx="138.3755" ry="18"/>
<text text-anchor="middle" x="899" y="-806.3" font-family="Times,serif" font-size="14.00" fill="#000000">Linear registration (FLIRT)</text>
</g>
<!-- MNI reference brain&#45;&gt;Linear registration (FLIRT) -->
<g id="edge15" class="edge">
<title>MNI reference brain&#45;&gt;Linear registration (FLIRT)</title>
<path fill="none" stroke="#000000" d="M712.5536,-868.8778C747.129,-857.9593 796.8854,-842.2467 836.3025,-829.7992"/>
<polygon fill="#000000" stroke="#000000" points="837.6037,-833.0588 846.0855,-826.7098 835.4957,-826.3837 837.6037,-833.0588"/>
</g>
<!-- Lobe map (reference space) -->
<g id="node4" class="node">
<title>Lobe map (reference space)</title>
<polygon fill="none" stroke="#ff0000" points="991,-468 791.5857,-450 991,-432 1190.4143,-450 991,-468"/>
<text text-anchor="middle" x="991" y="-446.3" font-family="Times,serif" font-size="14.00" fill="#ff0000">Lobe map (reference space)</text>
</g>
<!-- Transform lobe map (applywarp) -->
<g id="node43" class="node">
<title>Transform lobe map (applywarp)</title>
<ellipse fill="none" stroke="#000000" cx="991" cy="-378" rx="163.2712" ry="18"/>
<text text-anchor="middle" x="991" y="-374.3" font-family="Times,serif" font-size="14.00" fill="#000000">Transform lobe map (applywarp)</text>
</g>
<!-- Lobe map (reference space)&#45;&gt;Transform lobe map (applywarp) -->
<g id="edge24" class="edge">
<title>Lobe map (reference space)&#45;&gt;Transform lobe map (applywarp)</title>
<path fill="none" stroke="#000000" d="M991,-431.8314C991,-424.131 991,-414.9743 991,-406.4166"/>
<polygon fill="#000000" stroke="#000000" points="994.5001,-406.4132 991,-396.4133 987.5001,-406.4133 994.5001,-406.4132"/>
</g>
<!-- Brain mask (reference space) -->
<g id="node5" class="node">
<title>Brain mask (reference space)</title>
<polygon fill="none" stroke="#ff0000" points="226,-468 16.3643,-450 226,-432 435.6357,-450 226,-468"/>
<text text-anchor="middle" x="226" y="-446.3" font-family="Times,serif" font-size="14.00" fill="#ff0000">Brain mask (reference space)</text>
</g>
<!-- Transform brain mask (applywarp) -->
<g id="node44" class="node">
<title>Transform brain mask (applywarp)</title>
<ellipse fill="none" stroke="#000000" cx="614" cy="-378" rx="172.7694" ry="18"/>
<text text-anchor="middle" x="614" y="-374.3" font-family="Times,serif" font-size="14.00" fill="#000000">Transform brain mask (applywarp)</text>
</g>
<!-- Brain mask (reference space)&#45;&gt;Transform brain mask (applywarp) -->
<g id="edge27" class="edge">
<title>Brain mask (reference space)&#45;&gt;Transform brain mask (applywarp)</title>
<path fill="none" stroke="#000000" d="M292.6996,-437.6228C355.0666,-426.0495 448.86,-408.6445 519.0323,-395.6229"/>
<polygon fill="#000000" stroke="#000000" points="520.0141,-399.0005 529.2077,-393.7347 518.7369,-392.118 520.0141,-399.0005"/>
</g>
<!-- DTI image -->
<g id="node6" class="node">
<title>DTI image</title>
<polygon fill="none" stroke="#ff0000" points="1396,-900 1311.375,-882 1396,-864 1480.625,-882 1396,-900"/>
<text text-anchor="middle" x="1396" y="-878.3" font-family="Times,serif" font-size="14.00" fill="#ff0000">DTI image</text>
</g>
<!-- Eddy correction (eddy_correct) -->
<g id="node47" class="node">
<title>Eddy correction (eddy_correct)</title>
<ellipse fill="none" stroke="#000000" cx="1432" cy="-810" rx="157.0724" ry="18"/>
<text text-anchor="middle" x="1432" y="-806.3" font-family="Times,serif" font-size="14.00" fill="#000000">Eddy correction (eddy_correct)</text>
</g>
<!-- DTI image&#45;&gt;Eddy correction (eddy_correct) -->
<g id="edge38" class="edge">
<title>DTI image&#45;&gt;Eddy correction (eddy_correct)</title>
<path fill="none" stroke="#000000" d="M1404.169,-865.6621C1408.3698,-857.2603 1413.6013,-846.7974 1418.3909,-837.2181"/>
<polygon fill="#000000" stroke="#000000" points="1421.6371,-838.5519 1422.9788,-828.0423 1415.3761,-835.4214 1421.6371,-838.5519"/>
</g>
<!-- bvec -->
<g id="node7" class="node">
<title>bvec</title>
<polygon fill="none" stroke="#ff0000" points="1487,-612 1441.0842,-594 1487,-576 1532.9158,-594 1487,-612"/>
<text text-anchor="middle" x="1487" y="-590.3" font-family="Times,serif" font-size="14.00" fill="#ff0000">bvec</text>
</g>
<!-- dtifit -->
<g id="node49" class="node">
<title>dtifit</title>
<ellipse fill="none" stroke="#000000" cx="1361" cy="-522" rx="33.5952" ry="18"/>
<text text-anchor="middle" x="1361" y="-518.3" font-family="Times,serif" font-size="14.00" fill="#000000">dtifit</text>
</g>
<!-- bvec&#45;&gt;dtifit -->
<g id="edge44" class="edge">
<title>bvec&#45;&gt;dtifit</title>
<path fill="none" stroke="#000000" d="M1468.1365,-583.2209C1448.3787,-571.9307 1416.9819,-553.9897 1393.2734,-540.4419"/>
<polygon fill="#000000" stroke="#000000" points="1394.7025,-537.2275 1384.2836,-535.3049 1391.2295,-543.3052 1394.7025,-537.2275"/>
</g>
<!-- bval -->
<g id="node8" class="node">
<title>bval</title>
<polygon fill="none" stroke="#ff0000" points="1406,-972 1362.5983,-954 1406,-936 1449.4017,-954 1406,-972"/>
<text text-anchor="middle" x="1406" y="-950.3" font-family="Times,serif" font-size="14.00" fill="#ff0000">bval</text>
</g>
<!-- Structural index -->
<g id="node33" class="node">
<title>Structural index</title>
<polygon fill="none" stroke="#0000ff" points="1633,-900 1499,-900 1499,-864 1633,-864 1633,-900"/>
<text text-anchor="middle" x="1566" y="-878.3" font-family="Times,serif" font-size="14.00" fill="#0000ff">Structural index</text>
</g>
<!-- bval&#45;&gt;Structural index -->
<g id="edge37" class="edge">
<title>bval&#45;&gt;Structural index</title>
<path fill="none" stroke="#000000" d="M1426.9172,-944.5873C1449.4654,-934.4406 1486.1621,-917.9271 1516.2006,-904.4097"/>
<polygon fill="#000000" stroke="#000000" points="1518.0101,-907.4336 1525.693,-900.1381 1515.1375,-901.0501 1518.0101,-907.4336"/>
</g>
<!-- bval&#45;&gt;dtifit -->
<g id="edge45" class="edge">
<title>bval&#45;&gt;dtifit</title>
<path fill="none" stroke="#000000" d="M1381.0303,-946.0239C1358.0953,-937.6409 1324.3695,-922.5135 1302,-900 1270.3375,-868.1337 1256,-854.9219 1256,-810 1256,-810 1256,-810 1256,-666 1256,-625.7023 1244.7312,-609.5857 1267,-576 1279.8705,-556.5887 1302.2632,-543.3258 1321.9646,-534.803"/>
<polygon fill="#000000" stroke="#000000" points="1323.4126,-537.9927 1331.3664,-530.9936 1320.784,-531.505 1323.4126,-537.9927"/>
</g>
<!-- T1 brain image -->
<g id="node9" class="node">
<title>T1 brain image</title>
<polygon fill="none" stroke="#0000ff" points="1206.5,-1188 1081.5,-1188 1081.5,-1152 1206.5,-1152 1206.5,-1188"/>
<text text-anchor="middle" x="1144" y="-1166.3" font-family="Times,serif" font-size="14.00" fill="#0000ff">T1 brain image</text>
</g>
<!-- T1 crop brain -->
<g id="node38" class="node">
<title>T1 crop brain</title>
<ellipse fill="none" stroke="#000000" cx="1093" cy="-1098" rx="74.187" ry="18"/>
<text text-anchor="middle" x="1093" y="-1094.3" font-family="Times,serif" font-size="14.00" fill="#000000">T1 crop brain</text>
</g>
<!-- T1 brain image&#45;&gt;T1 crop brain -->
<g id="edge9" class="edge">
<title>T1 brain image&#45;&gt;T1 crop brain</title>
<path fill="none" stroke="#000000" d="M1131.1305,-1151.8314C1125.227,-1143.497 1118.1152,-1133.4567 1111.6406,-1124.3162"/>
<polygon fill="#000000" stroke="#000000" points="1114.325,-1122.0506 1105.6887,-1115.9134 1108.6128,-1126.0967 1114.325,-1122.0506"/>
</g>
<!-- T1 cropped brain image -->
<g id="node10" class="node">
<title>T1 cropped brain image</title>
<polygon fill="none" stroke="#0000ff" points="1187,-1044 999,-1044 999,-1008 1187,-1008 1187,-1044"/>
<text text-anchor="middle" x="1093" y="-1022.3" font-family="Times,serif" font-size="14.00" fill="#0000ff">T1 cropped brain image</text>
</g>
<!-- Tissue classification (FAST) -->
<g id="node39" class="node">
<title>Tissue classification (FAST)</title>
<ellipse fill="none" stroke="#000000" cx="1070" cy="-954" rx="139.9756" ry="18"/>
<text text-anchor="middle" x="1070" y="-950.3" font-family="Times,serif" font-size="14.00" fill="#000000">Tissue classification (FAST)</text>
</g>
<!-- T1 cropped brain image&#45;&gt;Tissue classification (FAST) -->
<g id="edge12" class="edge">
<title>T1 cropped brain image&#45;&gt;Tissue classification (FAST)</title>
<path fill="none" stroke="#000000" d="M1087.1961,-1007.8314C1084.7092,-1000.0463 1081.7469,-990.7729 1078.9875,-982.1347"/>
<polygon fill="#000000" stroke="#000000" points="1082.2591,-980.874 1075.882,-972.4133 1075.591,-983.0041 1082.2591,-980.874"/>
</g>
<!-- DTI linear registration -->
<g id="node51" class="node">
<title>DTI linear registration</title>
<ellipse fill="none" stroke="#000000" cx="1638" cy="-378" rx="116.1796" ry="18"/>
<text text-anchor="middle" x="1638" y="-374.3" font-family="Times,serif" font-size="14.00" fill="#000000">DTI linear registration</text>
</g>
<!-- T1 cropped brain image&#45;&gt;DTI linear registration -->
<g id="edge53" class="edge">
<title>T1 cropped brain image&#45;&gt;DTI linear registration</title>
<path fill="none" stroke="#000000" d="M1175.3382,-1007.9457C1190.7888,-1004.9732 1206.8465,-1002.162 1222,-1000 1348.3328,-981.976 1784,-1009.6121 1784,-882 1784,-882 1784,-882 1784,-522 1784,-465.33 1727.5534,-423.4601 1684.8559,-399.8951"/>
<polygon fill="#000000" stroke="#000000" points="1686.4471,-396.777 1675.9786,-395.1456 1683.1449,-402.9492 1686.4471,-396.777"/>
</g>
<!-- T1 cropped image -->
<g id="node11" class="node">
<title>T1 cropped image</title>
<polygon fill="none" stroke="#0000ff" points="743,-972 597,-972 597,-936 743,-936 743,-972"/>
<text text-anchor="middle" x="670" y="-950.3" font-family="Times,serif" font-size="14.00" fill="#0000ff">T1 cropped image</text>
</g>
<!-- T1 cropped image&#45;&gt;T1 to Reference non&#45;linear registration (FNIRT) -->
<g id="edge19" class="edge">
<title>T1 cropped image&#45;&gt;T1 to Reference non&#45;linear registration (FNIRT)</title>
<path fill="none" stroke="#000000" d="M596.8163,-937.7087C560.1696,-927.9708 521.2343,-914.6603 510,-900 461.2789,-836.4213 457.4039,-787.1966 501,-720 510.2626,-705.7231 524.2768,-695.1881 539.5227,-687.4247"/>
<polygon fill="#000000" stroke="#000000" points="541.0433,-690.5774 548.615,-683.1666 538.0745,-684.2381 541.0433,-690.5774"/>
</g>
<!-- T1 skull image -->
<g id="node12" class="node">
<title>T1 skull image</title>
<polygon fill="none" stroke="#0000ff" points="1104,-1260 982,-1260 982,-1224 1104,-1224 1104,-1260"/>
<text text-anchor="middle" x="1043" y="-1238.3" font-family="Times,serif" font-size="14.00" fill="#0000ff">T1 skull image</text>
</g>
<!-- T1 skull image&#45;&gt;Crop parameters -->
<g id="edge4" class="edge">
<title>T1 skull image&#45;&gt;Crop parameters</title>
<path fill="none" stroke="#000000" d="M1030.6352,-1223.8314C1025.0491,-1215.6232 1018.337,-1205.7606 1012.1928,-1196.7323"/>
<polygon fill="#000000" stroke="#000000" points="1015.051,-1194.7112 1006.5313,-1188.4133 1009.264,-1198.6496 1015.051,-1194.7112"/>
</g>
<!-- GM/WM maps -->
<g id="node13" class="node">
<title>GM/WM maps</title>
<polygon fill="none" stroke="#0000ff" points="1209.5,-828 1090.5,-828 1090.5,-792 1209.5,-792 1209.5,-828"/>
<text text-anchor="middle" x="1150" y="-806.3" font-family="Times,serif" font-size="14.00" fill="#0000ff">GM/WM maps</text>
</g>
<!-- Complex atlas -->
<g id="node31" class="node">
<title>Complex atlas</title>
<polygon fill="none" stroke="#0000ff" points="1197.5,-252 1078.5,-252 1078.5,-216 1197.5,-216 1197.5,-252"/>
<text text-anchor="middle" x="1138" y="-230.3" font-family="Times,serif" font-size="14.00" fill="#0000ff">Complex atlas</text>
</g>
<!-- GM/WM maps&#45;&gt;Complex atlas -->
<g id="edge30" class="edge">
<title>GM/WM maps&#45;&gt;Complex atlas</title>
<path fill="none" stroke="#000000" d="M1162.8021,-791.8796C1180.1545,-765.4944 1209,-714.3605 1209,-666 1209,-666 1209,-666 1209,-378 1209,-333.0363 1180.8087,-287.5617 1159.9544,-260.0733"/>
<polygon fill="#000000" stroke="#000000" points="1162.6716,-257.8661 1153.7572,-252.1403 1157.1552,-262.1755 1162.6716,-257.8661"/>
</g>
<!-- T1 bet&#45;nonuniformity&#45;corrected image -->
<g id="node14" class="node">
<title>T1 bet&#45;nonuniformity&#45;corrected image</title>
<polygon fill="none" stroke="#0000ff" points="1131.5,-900 840.5,-900 840.5,-864 1131.5,-864 1131.5,-900"/>
<text text-anchor="middle" x="986" y="-878.3" font-family="Times,serif" font-size="14.00" fill="#0000ff">T1 bet&#45;nonuniformity&#45;corrected image</text>
</g>
<!-- T1 bet&#45;nonuniformity&#45;corrected image&#45;&gt;Linear registration (FLIRT) -->
<g id="edge16" class="edge">
<title>T1 bet&#45;nonuniformity&#45;corrected image&#45;&gt;Linear registration (FLIRT)</title>
<path fill="none" stroke="#000000" d="M964.0462,-863.8314C953.2487,-854.8955 940.0818,-843.9987 928.4258,-834.3524"/>
<polygon fill="#000000" stroke="#000000" points="930.5808,-831.5927 920.6454,-827.9134 926.1178,-836.9855 930.5808,-831.5927"/>
</g>
<!-- Crop parameters&#45;&gt;T1 crop -->
<g id="edge7" class="edge">
<title>Crop parameters&#45;&gt;T1 crop</title>
<path fill="none" stroke="#000000" d="M971.5415,-1151.8314C959.8827,-1142.3995 945.5234,-1130.783 933.1316,-1120.7582"/>
<polygon fill="#000000" stroke="#000000" points="935.2966,-1118.0077 925.3208,-1114.4393 930.894,-1123.4499 935.2966,-1118.0077"/>
</g>
<!-- Crop parameters&#45;&gt;T1 crop brain -->
<g id="edge10" class="edge">
<title>Crop parameters&#45;&gt;T1 crop brain</title>
<path fill="none" stroke="#000000" d="M1018.9819,-1151.8314C1031.7896,-1142.5167 1047.5271,-1131.0712 1061.1928,-1121.1325"/>
<polygon fill="#000000" stroke="#000000" points="1063.3605,-1123.8838 1069.3892,-1115.1715 1059.2432,-1118.2226 1063.3605,-1123.8838"/>
</g>
<!-- NU crop -->
<g id="node46" class="node">
<title>NU crop</title>
<ellipse fill="none" stroke="#000000" cx="1469" cy="-1098" rx="50.8918" ry="18"/>
<text text-anchor="middle" x="1469" y="-1094.3" font-family="Times,serif" font-size="14.00" fill="#000000">NU crop</text>
</g>
<!-- Crop parameters&#45;&gt;NU crop -->
<g id="edge36" class="edge">
<title>Crop parameters&#45;&gt;NU crop</title>
<path fill="none" stroke="#000000" d="M1063.718,-1153.763C1066.8503,-1153.1445 1069.9552,-1152.5534 1073,-1152 1192.0724,-1130.3601 1332.7152,-1113.1408 1410.2618,-1104.3637"/>
<polygon fill="#000000" stroke="#000000" points="1410.7714,-1107.8286 1420.3176,-1103.2329 1409.9891,-1100.8724 1410.7714,-1107.8286"/>
</g>
<!-- T1 to Reference linear transformation -->
<g id="node16" class="node">
<title>T1 to Reference linear transformation</title>
<polygon fill="none" stroke="#0000ff" points="1043.5,-756 754.5,-756 754.5,-720 1043.5,-720 1043.5,-756"/>
<text text-anchor="middle" x="899" y="-734.3" font-family="Times,serif" font-size="14.00" fill="#0000ff">T1 to Reference linear transformation</text>
</g>
<!-- T1 to Reference linear transformation&#45;&gt;T1 to Reference non&#45;linear registration (FNIRT) -->
<g id="edge20" class="edge">
<title>T1 to Reference linear transformation&#45;&gt;T1 to Reference non&#45;linear registration (FNIRT)</title>
<path fill="none" stroke="#000000" d="M829.4587,-719.9243C789.6328,-709.5724 739.5934,-696.5658 698.6376,-685.9202"/>
<polygon fill="#000000" stroke="#000000" points="699.2619,-682.4663 688.703,-683.338 697.5009,-689.2412 699.2619,-682.4663"/>
</g>
<!-- T1 to Reference non&#45;linear transformation -->
<g id="node17" class="node">
<title>T1 to Reference non&#45;linear transformation</title>
<polygon fill="none" stroke="#0000ff" points="780,-612 460,-612 460,-576 780,-576 780,-612"/>
<text text-anchor="middle" x="620" y="-590.3" font-family="Times,serif" font-size="14.00" fill="#0000ff">T1 to Reference non&#45;linear transformation</text>
</g>
<!-- Invwarp -->
<g id="node42" class="node">
<title>Invwarp</title>
<ellipse fill="none" stroke="#000000" cx="616" cy="-522" rx="49.2915" ry="18"/>
<text text-anchor="middle" x="616" y="-518.3" font-family="Times,serif" font-size="14.00" fill="#000000">Invwarp</text>
</g>
<!-- T1 to Reference non&#45;linear transformation&#45;&gt;Invwarp -->
<g id="edge22" class="edge">
<title>T1 to Reference non&#45;linear transformation&#45;&gt;Invwarp</title>
<path fill="none" stroke="#000000" d="M618.9906,-575.8314C618.5628,-568.131 618.0541,-558.9743 617.5787,-550.4166"/>
<polygon fill="#000000" stroke="#000000" points="621.0724,-550.2037 617.023,-540.4133 614.0831,-550.592 621.0724,-550.2037"/>
</g>
<!-- Reference to T1 non&#45;linear transformation -->
<g id="node18" class="node">
<title>Reference to T1 non&#45;linear transformation</title>
<polygon fill="none" stroke="#0000ff" points="774,-468 454,-468 454,-432 774,-432 774,-468"/>
<text text-anchor="middle" x="614" y="-446.3" font-family="Times,serif" font-size="14.00" fill="#0000ff">Reference to T1 non&#45;linear transformation</text>
</g>
<!-- Reference to T1 non&#45;linear transformation&#45;&gt;Transform lobe map (applywarp) -->
<g id="edge25" class="edge">
<title>Reference to T1 non&#45;linear transformation&#45;&gt;Transform lobe map (applywarp)</title>
<path fill="none" stroke="#000000" d="M708.6464,-431.9243C766.9972,-420.7804 841.4569,-406.56 899.2609,-395.5205"/>
<polygon fill="#000000" stroke="#000000" points="899.9536,-398.9515 909.1195,-393.6377 898.6404,-392.0758 899.9536,-398.9515"/>
</g>
<!-- Reference to T1 non&#45;linear transformation&#45;&gt;Transform brain mask (applywarp) -->
<g id="edge28" class="edge">
<title>Reference to T1 non&#45;linear transformation&#45;&gt;Transform brain mask (applywarp)</title>
<path fill="none" stroke="#000000" d="M614,-431.8314C614,-424.131 614,-414.9743 614,-406.4166"/>
<polygon fill="#000000" stroke="#000000" points="617.5001,-406.4132 614,-396.4133 610.5001,-406.4133 617.5001,-406.4132"/>
</g>
<!-- Lobe map (native space) -->
<g id="node19" class="node">
<title>Lobe map (native space)</title>
<polygon fill="none" stroke="#0000ff" points="1139,-324 947,-324 947,-288 1139,-288 1139,-324"/>
<text text-anchor="middle" x="1043" y="-302.3" font-family="Times,serif" font-size="14.00" fill="#0000ff">Lobe map (native space)</text>
</g>
<!-- Lobe map (native space)&#45;&gt;Complex atlas -->
<g id="edge31" class="edge">
<title>Lobe map (native space)&#45;&gt;Complex atlas</title>
<path fill="none" stroke="#000000" d="M1066.9725,-287.8314C1078.7861,-278.8779 1093.1972,-267.9558 1105.9435,-258.2955"/>
<polygon fill="#000000" stroke="#000000" points="1108.1795,-260.9925 1114.0352,-252.1628 1103.9514,-255.4137 1108.1795,-260.9925"/>
</g>
<!-- Brain mask (native space) -->
<g id="node20" class="node">
<title>Brain mask (native space)</title>
<polygon fill="none" stroke="#0000ff" points="796.5,-324 593.5,-324 593.5,-288 796.5,-288 796.5,-324"/>
<text text-anchor="middle" x="695" y="-302.3" font-family="Times,serif" font-size="14.00" fill="#0000ff">Brain mask (native space)</text>
</g>
<!-- Calc stats -->
<g id="node54" class="node">
<title>Calc stats</title>
<ellipse fill="none" stroke="#000000" cx="1264" cy="-90" rx="57.6901" ry="18"/>
<text text-anchor="middle" x="1264" y="-86.3" font-family="Times,serif" font-size="14.00" fill="#000000">Calc stats</text>
</g>
<!-- Brain mask (native space)&#45;&gt;Calc stats -->
<g id="edge62" class="edge">
<title>Brain mask (native space)&#45;&gt;Calc stats</title>
<path fill="none" stroke="#000000" d="M728.3314,-287.9431C792.1923,-253.9826 936.928,-180.0621 1066,-136 1111.0101,-120.6346 1163.5034,-108.6988 1203.127,-100.8399"/>
<polygon fill="#000000" stroke="#000000" points="1204.024,-104.231 1213.1686,-98.8807 1202.6834,-97.3605 1204.024,-104.231"/>
</g>
<!-- NU corrected T1 -->
<g id="node21" class="node">
<title>NU corrected T1</title>
<polygon fill="none" stroke="#0000ff" points="1620.5,-1044 1481.5,-1044 1481.5,-1008 1620.5,-1008 1620.5,-1044"/>
<text text-anchor="middle" x="1551" y="-1022.3" font-family="Times,serif" font-size="14.00" fill="#0000ff">NU corrected T1</text>
</g>
<!-- NU corrected T1&#45;&gt;Calc stats -->
<g id="edge63" class="edge">
<title>NU corrected T1&#45;&gt;Calc stats</title>
<path fill="none" stroke="#000000" d="M1620.7264,-1022.2936C1687.1726,-1017.2486 1780.7255,-1005.6984 1806,-980 1836.9456,-948.5353 1822,-926.1322 1822,-882 1822,-882 1822,-882 1822,-234 1822,-189.8678 1838.3868,-165.9792 1806,-136 1771.8991,-104.4341 1469.8459,-94.2151 1332.0261,-91.1774"/>
<polygon fill="#000000" stroke="#000000" points="1332.0673,-87.6776 1321.9946,-90.9627 1331.9174,-94.676 1332.0673,-87.6776"/>
</g>
<!-- Eddy corrected image -->
<g id="node22" class="node">
<title>Eddy corrected image</title>
<polygon fill="none" stroke="#0000ff" points="1520,-756 1344,-756 1344,-720 1520,-720 1520,-756"/>
<text text-anchor="middle" x="1432" y="-734.3" font-family="Times,serif" font-size="14.00" fill="#0000ff">Eddy corrected image</text>
</g>
<!-- DTI brain extraction (BET) -->
<g id="node48" class="node">
<title>DTI brain extraction (BET)</title>
<ellipse fill="none" stroke="#000000" cx="1432" cy="-666" rx="135.6761" ry="18"/>
<text text-anchor="middle" x="1432" y="-662.3" font-family="Times,serif" font-size="14.00" fill="#000000">DTI brain extraction (BET)</text>
</g>
<!-- Eddy corrected image&#45;&gt;DTI brain extraction (BET) -->
<g id="edge41" class="edge">
<title>Eddy corrected image&#45;&gt;DTI brain extraction (BET)</title>
<path fill="none" stroke="#000000" d="M1432,-719.8314C1432,-712.131 1432,-702.9743 1432,-694.4166"/>
<polygon fill="#000000" stroke="#000000" points="1435.5001,-694.4132 1432,-684.4133 1428.5001,-694.4133 1435.5001,-694.4132"/>
</g>
<!-- Eddy corrected image&#45;&gt;dtifit -->
<g id="edge46" class="edge">
<title>Eddy corrected image&#45;&gt;dtifit</title>
<path fill="none" stroke="#000000" d="M1361.7692,-719.99C1329.5427,-710.1785 1296.4033,-697.3375 1287,-684 1259.3404,-644.768 1264.1157,-618.7232 1286,-576 1294.3595,-559.6803 1310.2017,-547.17 1325.1799,-538.3201"/>
<polygon fill="#000000" stroke="#000000" points="1327.252,-541.1744 1334.3197,-533.2815 1323.8725,-535.0442 1327.252,-541.1744"/>
</g>
<!-- DTI brain mask -->
<g id="node23" class="node">
<title>DTI brain mask</title>
<polygon fill="none" stroke="#0000ff" points="1423,-612 1295,-612 1295,-576 1423,-576 1423,-612"/>
<text text-anchor="middle" x="1359" y="-590.3" font-family="Times,serif" font-size="14.00" fill="#0000ff">DTI brain mask</text>
</g>
<!-- DTI brain mask&#45;&gt;dtifit -->
<g id="edge47" class="edge">
<title>DTI brain mask&#45;&gt;dtifit</title>
<path fill="none" stroke="#000000" d="M1359.5047,-575.8314C1359.7186,-568.131 1359.9729,-558.9743 1360.2106,-550.4166"/>
<polygon fill="#000000" stroke="#000000" points="1363.7094,-550.5066 1360.4885,-540.4133 1356.7121,-550.3122 1363.7094,-550.5066"/>
</g>
<!-- FA image -->
<g id="node24" class="node">
<title>FA image</title>
<polygon fill="none" stroke="#0000ff" points="1489.5,-396 1406.5,-396 1406.5,-360 1489.5,-360 1489.5,-396"/>
<text text-anchor="middle" x="1448" y="-374.3" font-family="Times,serif" font-size="14.00" fill="#0000ff">FA image</text>
</g>
<!-- Transform FA (applywarp) -->
<g id="node52" class="node">
<title>Transform FA (applywarp)</title>
<ellipse fill="none" stroke="#000000" cx="1661" cy="-234" rx="133.4768" ry="18"/>
<text text-anchor="middle" x="1661" y="-230.3" font-family="Times,serif" font-size="14.00" fill="#000000">Transform FA (applywarp)</text>
</g>
<!-- FA image&#45;&gt;Transform FA (applywarp) -->
<g id="edge56" class="edge">
<title>FA image&#45;&gt;Transform FA (applywarp)</title>
<path fill="none" stroke="#000000" d="M1455.7374,-359.9113C1465.2546,-339.687 1483.2453,-307.2537 1508,-288 1528.6106,-271.9695 1554.3552,-260.4681 1578.8136,-252.3176"/>
<polygon fill="#000000" stroke="#000000" points="1580.0018,-255.6126 1588.4706,-249.2463 1577.8802,-248.9418 1580.0018,-255.6126"/>
</g>
<!-- MD image -->
<g id="node25" class="node">
<title>MD image</title>
<polygon fill="none" stroke="#0000ff" points="1416,-324 1326,-324 1326,-288 1416,-288 1416,-324"/>
<text text-anchor="middle" x="1371" y="-302.3" font-family="Times,serif" font-size="14.00" fill="#0000ff">MD image</text>
</g>
<!-- Transform MD (applywarp) -->
<g id="node53" class="node">
<title>Transform MD (applywarp)</title>
<ellipse fill="none" stroke="#000000" cx="1372" cy="-234" rx="137.5759" ry="18"/>
<text text-anchor="middle" x="1372" y="-230.3" font-family="Times,serif" font-size="14.00" fill="#000000">Transform MD (applywarp)</text>
</g>
<!-- MD image&#45;&gt;Transform MD (applywarp) -->
<g id="edge59" class="edge">
<title>MD image&#45;&gt;Transform MD (applywarp)</title>
<path fill="none" stroke="#000000" d="M1371.2523,-287.8314C1371.3593,-280.131 1371.4865,-270.9743 1371.6053,-262.4166"/>
<polygon fill="#000000" stroke="#000000" points="1375.1049,-262.4609 1371.7443,-252.4133 1368.1056,-262.3637 1375.1049,-262.4609"/>
</g>
<!-- FA image (T1 space) -->
<g id="node26" class="node">
<title>FA image (T1 space)</title>
<polygon fill="none" stroke="#0000ff" points="1689.5,-180 1526.5,-180 1526.5,-144 1689.5,-144 1689.5,-180"/>
<text text-anchor="middle" x="1608" y="-158.3" font-family="Times,serif" font-size="14.00" fill="#0000ff">FA image (T1 space)</text>
</g>
<!-- FA image (T1 space)&#45;&gt;Calc stats -->
<g id="edge64" class="edge">
<title>FA image (T1 space)&#45;&gt;Calc stats</title>
<path fill="none" stroke="#000000" d="M1526.4768,-144.937C1463.631,-131.7832 1378.2566,-113.9142 1322.1764,-102.1765"/>
<polygon fill="#000000" stroke="#000000" points="1322.5629,-98.6816 1312.058,-100.0586 1321.1288,-105.5331 1322.5629,-98.6816"/>
</g>
<!-- MD image (T1 space) -->
<g id="node27" class="node">
<title>MD image (T1 space)</title>
<polygon fill="none" stroke="#0000ff" points="1431,-180 1261,-180 1261,-144 1431,-144 1431,-180"/>
<text text-anchor="middle" x="1346" y="-158.3" font-family="Times,serif" font-size="14.00" fill="#0000ff">MD image (T1 space)</text>
</g>
<!-- MD image (T1 space)&#45;&gt;Calc stats -->
<g id="edge65" class="edge">
<title>MD image (T1 space)&#45;&gt;Calc stats</title>
<path fill="none" stroke="#000000" d="M1325.3079,-143.8314C1314.9998,-134.7803 1302.4003,-123.7174 1291.3104,-113.9799"/>
<polygon fill="#000000" stroke="#000000" points="1293.3801,-111.1395 1283.5564,-107.1715 1288.7615,-116.3996 1293.3801,-111.1395"/>
</g>
<!-- DTI to T1 linear transformation -->
<g id="node28" class="node">
<title>DTI to T1 linear transformation</title>
<polygon fill="none" stroke="#0000ff" points="1759.5,-324 1516.5,-324 1516.5,-288 1759.5,-288 1759.5,-324"/>
<text text-anchor="middle" x="1638" y="-302.3" font-family="Times,serif" font-size="14.00" fill="#0000ff">DTI to T1 linear transformation</text>
</g>
<!-- DTI to T1 linear transformation&#45;&gt;Transform FA (applywarp) -->
<g id="edge57" class="edge">
<title>DTI to T1 linear transformation&#45;&gt;Transform FA (applywarp)</title>
<path fill="none" stroke="#000000" d="M1643.8039,-287.8314C1646.2908,-280.0463 1649.2531,-270.7729 1652.0125,-262.1347"/>
<polygon fill="#000000" stroke="#000000" points="1655.409,-263.0041 1655.118,-252.4133 1648.7409,-260.874 1655.409,-263.0041"/>
</g>
<!-- DTI to T1 linear transformation&#45;&gt;Transform MD (applywarp) -->
<g id="edge60" class="edge">
<title>DTI to T1 linear transformation&#45;&gt;Transform MD (applywarp)</title>
<path fill="none" stroke="#000000" d="M1571.2203,-287.9243C1531.6963,-277.2261 1481.6973,-263.6925 1441.6767,-252.8598"/>
<polygon fill="#000000" stroke="#000000" points="1442.5594,-249.4729 1431.9923,-250.2385 1440.7304,-256.2298 1442.5594,-249.4729"/>
</g>
<!-- stats.txt -->
<g id="node29" class="node">
<title>stats.txt</title>
<polygon fill="none" stroke="#0000ff" points="1241.5,-36 1164.5,-36 1164.5,0 1241.5,0 1241.5,-36"/>
<text text-anchor="middle" x="1203" y="-14.3" font-family="Times,serif" font-size="14.00" fill="#0000ff">stats.txt</text>
</g>
<!-- stats_simple.txt -->
<g id="node30" class="node">
<title>stats_simple.txt</title>
<polygon fill="none" stroke="#0000ff" points="1390.5,-36 1259.5,-36 1259.5,0 1390.5,0 1390.5,-36"/>
<text text-anchor="middle" x="1325" y="-14.3" font-family="Times,serif" font-size="14.00" fill="#0000ff">stats_simple.txt</text>
</g>
<!-- Simple atlas -->
<g id="node32" class="node">
<title>Simple atlas</title>
<polygon fill="none" stroke="#0000ff" points="1179.5,-180 1074.5,-180 1074.5,-144 1179.5,-144 1179.5,-180"/>
<text text-anchor="middle" x="1127" y="-158.3" font-family="Times,serif" font-size="14.00" fill="#0000ff">Simple atlas</text>
</g>
<!-- Complex atlas&#45;&gt;Simple atlas -->
<g id="edge32" class="edge">
<title>Complex atlas&#45;&gt;Simple atlas</title>
<path fill="none" stroke="#000000" d="M1135.2242,-215.8314C1134.0478,-208.131 1132.6489,-198.9743 1131.3414,-190.4166"/>
<polygon fill="#000000" stroke="#000000" points="1134.7833,-189.7699 1129.8131,-180.4133 1127.8636,-190.8272 1134.7833,-189.7699"/>
</g>
<!-- Complex atlas&#45;&gt;Calc stats -->
<g id="edge66" class="edge">
<title>Complex atlas&#45;&gt;Calc stats</title>
<path fill="none" stroke="#000000" d="M1155.9983,-215.9798C1166.0124,-205.701 1178.5307,-192.4254 1189,-180 1204.7507,-161.3065 1206.4075,-154.8256 1222,-136 1227.7513,-129.0562 1234.2113,-121.7561 1240.3084,-115.0684"/>
<polygon fill="#000000" stroke="#000000" points="1243.0289,-117.2812 1247.2349,-107.5569 1237.8828,-112.5358 1243.0289,-117.2812"/>
</g>
<!-- Simple atlas&#45;&gt;Calc stats -->
<g id="edge68" class="edge">
<title>Simple atlas&#45;&gt;Calc stats</title>
<path fill="none" stroke="#000000" d="M1161.5709,-143.8314C1180.9556,-133.6438 1205.1901,-120.9074 1225.2193,-110.3811"/>
<polygon fill="#000000" stroke="#000000" points="1226.8698,-113.4677 1234.0935,-105.7173 1223.6132,-107.2713 1226.8698,-113.4677"/>
</g>
<!-- Structural index&#45;&gt;Eddy correction (eddy_correct) -->
<g id="edge39" class="edge">
<title>Structural index&#45;&gt;Eddy correction (eddy_correct)</title>
<path fill="none" stroke="#000000" d="M1532.1861,-863.8314C1514.4628,-854.3084 1492.5946,-842.5583 1473.8155,-832.4681"/>
<polygon fill="#000000" stroke="#000000" points="1475.3422,-829.3151 1464.8766,-827.665 1472.0289,-835.4814 1475.3422,-829.3151"/>
</g>
<!-- Extract struct image (fslroi) -->
<g id="node50" class="node">
<title>Extract struct image (fslroi)</title>
<ellipse fill="none" stroke="#000000" cx="1614" cy="-522" rx="141.8751" ry="18"/>
<text text-anchor="middle" x="1614" y="-518.3" font-family="Times,serif" font-size="14.00" fill="#000000">Extract struct image (fslroi)</text>
</g>
<!-- Structural index&#45;&gt;Extract struct image (fslroi) -->
<g id="edge50" class="edge">
<title>Structural index&#45;&gt;Extract struct image (fslroi)</title>
<path fill="none" stroke="#000000" d="M1602.6192,-863.8913C1643.5023,-840.791 1704,-796.6921 1704,-738 1704,-738 1704,-738 1704,-666 1704,-625.7538 1714.8248,-610.4395 1694,-576 1686.3211,-563.3008 1674.3808,-552.9255 1662.0466,-544.7859"/>
<polygon fill="#000000" stroke="#000000" points="1663.8403,-541.78 1653.4921,-539.5069 1660.1641,-547.7371 1663.8403,-541.78"/>
</g>
<!-- DTI brain image -->
<g id="node34" class="node">
<title>DTI brain image</title>
<polygon fill="none" stroke="#0000ff" points="1685,-612 1551,-612 1551,-576 1685,-576 1685,-612"/>
<text text-anchor="middle" x="1618" y="-590.3" font-family="Times,serif" font-size="14.00" fill="#0000ff">DTI brain image</text>
</g>
<!-- DTI brain image&#45;&gt;Extract struct image (fslroi) -->
<g id="edge51" class="edge">
<title>DTI brain image&#45;&gt;Extract struct image (fslroi)</title>
<path fill="none" stroke="#000000" d="M1616.9906,-575.8314C1616.5628,-568.131 1616.0541,-558.9743 1615.5787,-550.4166"/>
<polygon fill="#000000" stroke="#000000" points="1619.0724,-550.2037 1615.023,-540.4133 1612.0831,-550.592 1619.0724,-550.2037"/>
</g>
<!-- DTI structural image -->
<g id="node35" class="node">
<title>DTI structural image</title>
<polygon fill="none" stroke="#0000ff" points="1710,-468 1542,-468 1542,-432 1710,-432 1710,-468"/>
<text text-anchor="middle" x="1626" y="-446.3" font-family="Times,serif" font-size="14.00" fill="#0000ff">DTI structural image</text>
</g>
<!-- DTI structural image&#45;&gt;DTI linear registration -->
<g id="edge54" class="edge">
<title>DTI structural image&#45;&gt;DTI linear registration</title>
<path fill="none" stroke="#000000" d="M1629.0281,-431.8314C1630.3115,-424.131 1631.8376,-414.9743 1633.2639,-406.4166"/>
<polygon fill="#000000" stroke="#000000" points="1636.7394,-406.8526 1634.9311,-396.4133 1629.8347,-405.7018 1636.7394,-406.8526"/>
</g>
<!-- Brain extraction (BET)&#45;&gt;T1 brain image -->
<g id="edge2" class="edge">
<title>Brain extraction (BET)&#45;&gt;T1 brain image</title>
<path fill="none" stroke="#000000" d="M1100.3631,-1296.0104C1104.0674,-1285.5139 1108.8174,-1272.0139 1113,-1260 1120.2219,-1239.2559 1128.3012,-1215.7915 1134.4007,-1198.0235"/>
<polygon fill="#000000" stroke="#000000" points="1137.8076,-1198.8784 1137.7418,-1188.2838 1131.1863,-1196.607 1137.8076,-1198.8784"/>
</g>
<!-- Brain extraction (BET)&#45;&gt;T1 skull image -->
<g id="edge3" class="edge">
<title>Brain extraction (BET)&#45;&gt;T1 skull image</title>
<path fill="none" stroke="#000000" d="M1081.1305,-1295.8314C1075.3165,-1287.6232 1068.3304,-1277.7606 1061.9354,-1268.7323"/>
<polygon fill="#000000" stroke="#000000" points="1064.679,-1266.5505 1056.0427,-1260.4133 1058.9669,-1270.5966 1064.679,-1266.5505"/>
</g>
<!-- T1 crop&#45;&gt;T1 cropped image -->
<g id="edge8" class="edge">
<title>T1 crop&#45;&gt;T1 cropped image</title>
<path fill="none" stroke="#000000" d="M879.8509,-1082.5895C838.7193,-1057.3855 756.801,-1007.1887 708.3755,-977.5152"/>
<polygon fill="#000000" stroke="#000000" points="710.0958,-974.4645 699.7406,-972.224 706.4384,-980.4331 710.0958,-974.4645"/>
</g>
<!-- T1 crop brain&#45;&gt;T1 cropped brain image -->
<g id="edge11" class="edge">
<title>T1 crop brain&#45;&gt;T1 cropped brain image</title>
<path fill="none" stroke="#000000" d="M1093,-1079.8314C1093,-1072.131 1093,-1062.9743 1093,-1054.4166"/>
<polygon fill="#000000" stroke="#000000" points="1096.5001,-1054.4132 1093,-1044.4133 1089.5001,-1054.4133 1096.5001,-1054.4132"/>
</g>
<!-- Tissue classification (FAST)&#45;&gt;GM/WM maps -->
<g id="edge13" class="edge">
<title>Tissue classification (FAST)&#45;&gt;GM/WM maps</title>
<path fill="none" stroke="#000000" d="M1104.0825,-936.3318C1117.8824,-927.3646 1132.5308,-915.1366 1141,-900 1151.4475,-881.3276 1153.3232,-857.0354 1152.7921,-838.3957"/>
<polygon fill="#000000" stroke="#000000" points="1156.2739,-837.9593 1152.2479,-828.1593 1149.2838,-838.331 1156.2739,-837.9593"/>
</g>
<!-- Tissue classification (FAST)&#45;&gt;T1 bet&#45;nonuniformity&#45;corrected image -->
<g id="edge14" class="edge">
<title>Tissue classification (FAST)&#45;&gt;T1 bet&#45;nonuniformity&#45;corrected image</title>
<path fill="none" stroke="#000000" d="M1048.8033,-935.8314C1038.5566,-927.0485 1026.0997,-916.3712 1014.9903,-906.8489"/>
<polygon fill="#000000" stroke="#000000" points="1017.0603,-904.0134 1007.19,-900.1628 1012.5048,-909.3282 1017.0603,-904.0134"/>
</g>
<!-- Linear registration (FLIRT)&#45;&gt;T1 to Reference linear transformation -->
<g id="edge17" class="edge">
<title>Linear registration (FLIRT)&#45;&gt;T1 to Reference linear transformation</title>
<path fill="none" stroke="#000000" d="M899,-791.8314C899,-784.131 899,-774.9743 899,-766.4166"/>
<polygon fill="#000000" stroke="#000000" points="902.5001,-766.4132 899,-756.4133 895.5001,-766.4133 902.5001,-766.4132"/>
</g>
<!-- T1 to Reference non&#45;linear registration (FNIRT)&#45;&gt;T1 to Reference non&#45;linear transformation -->
<g id="edge21" class="edge">
<title>T1 to Reference non&#45;linear registration (FNIRT)&#45;&gt;T1 to Reference non&#45;linear transformation</title>
<path fill="none" stroke="#000000" d="M621.4953,-647.8314C621.2814,-640.131 621.0271,-630.9743 620.7894,-622.4166"/>
<polygon fill="#000000" stroke="#000000" points="624.2879,-622.3122 620.5115,-612.4133 617.2906,-622.5066 624.2879,-622.3122"/>
</g>
<!-- Invwarp&#45;&gt;Reference to T1 non&#45;linear transformation -->
<g id="edge23" class="edge">
<title>Invwarp&#45;&gt;Reference to T1 non&#45;linear transformation</title>
<path fill="none" stroke="#000000" d="M615.4953,-503.8314C615.2814,-496.131 615.0271,-486.9743 614.7894,-478.4166"/>
<polygon fill="#000000" stroke="#000000" points="618.2879,-478.3122 614.5115,-468.4133 611.2906,-478.5066 618.2879,-478.3122"/>
</g>
<!-- Transform lobe map (applywarp)&#45;&gt;Lobe map (native space) -->
<g id="edge26" class="edge">
<title>Transform lobe map (applywarp)&#45;&gt;Lobe map (native space)</title>
<path fill="none" stroke="#000000" d="M1004.1218,-359.8314C1010.0499,-351.6232 1017.1729,-341.7606 1023.6933,-332.7323"/>
<polygon fill="#000000" stroke="#000000" points="1026.684,-334.5693 1029.7015,-324.4133 1021.0092,-330.4708 1026.684,-334.5693"/>
</g>
<!-- Transform brain mask (applywarp)&#45;&gt;Brain mask (native space) -->
<g id="edge29" class="edge">
<title>Transform brain mask (applywarp)&#45;&gt;Brain mask (native space)</title>
<path fill="none" stroke="#000000" d="M634.4397,-359.8314C644.3205,-351.0485 656.3324,-340.3712 667.045,-330.8489"/>
<polygon fill="#000000" stroke="#000000" points="669.418,-333.4224 674.5668,-324.1628 664.7674,-328.1906 669.418,-333.4224"/>
</g>
<!-- Non&#45;uniformity correction (mri_nu_correct.mni)&#45;&gt;NU crop -->
<g id="edge34" class="edge">
<title>Non&#45;uniformity correction (mri_nu_correct.mni)&#45;&gt;NU crop</title>
<path fill="none" stroke="#000000" d="M1469,-1151.8314C1469,-1144.131 1469,-1134.9743 1469,-1126.4166"/>
<polygon fill="#000000" stroke="#000000" points="1472.5001,-1126.4132 1469,-1116.4133 1465.5001,-1126.4133 1472.5001,-1126.4132"/>
</g>
<!-- NU crop&#45;&gt;NU corrected T1 -->
<g id="edge35" class="edge">
<title>NU crop&#45;&gt;NU corrected T1</title>
<path fill="none" stroke="#000000" d="M1488.0186,-1081.3008C1498.3207,-1072.255 1511.2517,-1060.901 1522.7121,-1050.8382"/>
<polygon fill="#000000" stroke="#000000" points="1525.1558,-1053.3502 1530.3609,-1044.1222 1520.5371,-1048.0902 1525.1558,-1053.3502"/>
</g>
<!-- Eddy correction (eddy_correct)&#45;&gt;Eddy corrected image -->
<g id="edge40" class="edge">
<title>Eddy correction (eddy_correct)&#45;&gt;Eddy corrected image</title>
<path fill="none" stroke="#000000" d="M1432,-791.8314C1432,-784.131 1432,-774.9743 1432,-766.4166"/>
<polygon fill="#000000" stroke="#000000" points="1435.5001,-766.4132 1432,-756.4133 1428.5001,-766.4133 1435.5001,-766.4132"/>
</g>
<!-- DTI brain extraction (BET)&#45;&gt;DTI brain mask -->
<g id="edge42" class="edge">
<title>DTI brain extraction (BET)&#45;&gt;DTI brain mask</title>
<path fill="none" stroke="#000000" d="M1413.579,-647.8314C1404.8471,-639.219 1394.2683,-628.7851 1384.7577,-619.4048"/>
<polygon fill="#000000" stroke="#000000" points="1386.9925,-616.6931 1377.4151,-612.1628 1382.077,-621.6769 1386.9925,-616.6931"/>
</g>
<!-- DTI brain extraction (BET)&#45;&gt;DTI brain image -->
<g id="edge43" class="edge">
<title>DTI brain extraction (BET)&#45;&gt;DTI brain image</title>
<path fill="none" stroke="#000000" d="M1476.0794,-648.937C1501.7373,-639.0049 1534.3402,-626.3845 1561.8252,-615.7451"/>
<polygon fill="#000000" stroke="#000000" points="1563.2516,-618.9461 1571.3138,-612.0721 1560.7246,-612.4181 1563.2516,-618.9461"/>
</g>
<!-- dtifit&#45;&gt;FA image -->
<g id="edge48" class="edge">
<title>dtifit&#45;&gt;FA image</title>
<path fill="none" stroke="#000000" d="M1371.4942,-504.6302C1386.4199,-479.9257 1413.9222,-434.4047 1431.5662,-405.2007"/>
<polygon fill="#000000" stroke="#000000" points="1434.7445,-406.7084 1436.92,-396.3394 1428.7531,-403.0886 1434.7445,-406.7084"/>
</g>
<!-- dtifit&#45;&gt;MD image -->
<g id="edge49" class="edge">
<title>dtifit&#45;&gt;MD image</title>
<path fill="none" stroke="#000000" d="M1361.8354,-503.9555C1363.5744,-466.3938 1367.5947,-379.5541 1369.6847,-334.4103"/>
<polygon fill="#000000" stroke="#000000" points="1373.1936,-334.2963 1370.16,-324.1451 1366.2011,-333.9725 1373.1936,-334.2963"/>
</g>
<!-- Extract struct image (fslroi)&#45;&gt;DTI structural image -->
<g id="edge52" class="edge">
<title>Extract struct image (fslroi)&#45;&gt;DTI structural image</title>
<path fill="none" stroke="#000000" d="M1617.0281,-503.8314C1618.3115,-496.131 1619.8376,-486.9743 1621.2639,-478.4166"/>
<polygon fill="#000000" stroke="#000000" points="1624.7394,-478.8526 1622.9311,-468.4133 1617.8347,-477.7018 1624.7394,-478.8526"/>
</g>
<!-- DTI linear registration&#45;&gt;DTI to T1 linear transformation -->
<g id="edge55" class="edge">
<title>DTI linear registration&#45;&gt;DTI to T1 linear transformation</title>
<path fill="none" stroke="#000000" d="M1638,-359.8314C1638,-352.131 1638,-342.9743 1638,-334.4166"/>
<polygon fill="#000000" stroke="#000000" points="1641.5001,-334.4132 1638,-324.4133 1634.5001,-334.4133 1641.5001,-334.4132"/>
</g>
<!-- Transform FA (applywarp)&#45;&gt;FA image (T1 space) -->
<g id="edge58" class="edge">
<title>Transform FA (applywarp)&#45;&gt;FA image (T1 space)</title>
<path fill="none" stroke="#000000" d="M1647.6259,-215.8314C1641.5838,-207.6232 1634.3237,-197.7606 1627.6779,-188.7323"/>
<polygon fill="#000000" stroke="#000000" points="1630.3011,-186.3918 1621.5542,-180.4133 1624.6637,-190.5415 1630.3011,-186.3918"/>
</g>
<!-- Transform MD (applywarp)&#45;&gt;MD image (T1 space) -->
<g id="edge61" class="edge">
<title>Transform MD (applywarp)&#45;&gt;MD image (T1 space)</title>
<path fill="none" stroke="#000000" d="M1365.4391,-215.8314C1362.5973,-207.9617 1359.2063,-198.5712 1356.0581,-189.8533"/>
<polygon fill="#000000" stroke="#000000" points="1359.3377,-188.63 1352.6492,-180.4133 1352.7538,-191.0076 1359.3377,-188.63"/>
</g>
<!-- Calc stats&#45;&gt;stats.txt -->
<g id="edge67" class="edge">
<title>Calc stats&#45;&gt;stats.txt</title>
<path fill="none" stroke="#000000" d="M1249.2336,-72.5708C1241.9061,-63.922 1232.9103,-53.3039 1224.8075,-43.74"/>
<polygon fill="#000000" stroke="#000000" points="1227.4021,-41.388 1218.2674,-36.0206 1222.0612,-45.9129 1227.4021,-41.388"/>
</g>
<!-- Calc stats&#45;&gt;stats_simple.txt -->
<g id="edge69" class="edge">
<title>Calc stats&#45;&gt;stats_simple.txt</title>
<path fill="none" stroke="#000000" d="M1278.7664,-72.5708C1286.0939,-63.922 1295.0897,-53.3039 1303.1925,-43.74"/>
<polygon fill="#000000" stroke="#000000" points="1305.9388,-45.9129 1309.7326,-36.0206 1300.5979,-41.388 1305.9388,-45.9129"/>
</g>
</g>
</svg>
