<?xml version="1.0" encoding="UTF-8" standalone="no"?>
<!DOCTYPE svg PUBLIC "-//W3C//DTD SVG 1.1//EN"
 "http://www.w3.org/Graphics/SVG/1.1/DTD/svg11.dtd">
<!-- Generated by graphviz version 2.40.1 (20161225.0304)
 -->
<!-- Title: Pipeline Pages: 1 -->
<svg width="2433pt" height="996pt"
 viewBox="0.00 0.00 2433.00 996.00" xmlns="http://www.w3.org/2000/svg" xmlns:xlink="http://www.w3.org/1999/xlink">
<g id="graph0" class="graph" transform="scale(1 1) rotate(0) translate(4 992)">
<title>Pipeline</title>
<polygon fill="#ffffff" stroke="transparent" points="-4,4 -4,-992 2429,-992 2429,4 -4,4"/>
<g id="clust3" class="cluster">
<title>clustermaps</title>
<polygon fill="none" stroke="#000000" points="1086,-64 1086,-764 2417,-764 2417,-64 1086,-64"/>
</g>
<g id="clust10" class="cluster">
<title>clusterT1 data</title>
<polygon fill="none" stroke="#000000" points="592,-352 592,-620 1078,-620 1078,-352 592,-352"/>
</g>
<g id="clust12" class="cluster">
<title>clusterDTI</title>
<polygon fill="none" stroke="#000000" points="8,-136 8,-980 584,-980 584,-136 8,-136"/>
</g>
<!-- T1 image -->
<g id="node1" class="node">
<title>T1 image</title>
<polygon fill="none" stroke="#ff0000" points="1210,-756 1133.9193,-738 1210,-720 1286.0807,-738 1210,-756"/>
<text text-anchor="middle" x="1210" y="-734.3" font-family="Times,serif" font-size="14.00" fill="#ff0000">T1 image</text>
</g>
<!-- Brain extraction (BET) -->
<g id="node31" class="node">
<title>Brain extraction (BET)</title>
<ellipse fill="none" stroke="#000000" cx="1210" cy="-666" rx="116.1796" ry="18"/>
<text text-anchor="middle" x="1210" y="-662.3" font-family="Times,serif" font-size="14.00" fill="#000000">Brain extraction (BET)</text>
</g>
<!-- T1 image&#45;&gt;Brain extraction (BET) -->
<g id="edge1" class="edge">
<title>T1 image&#45;&gt;Brain extraction (BET)</title>
<path fill="none" stroke="#000000" d="M1210,-719.8314C1210,-712.131 1210,-702.9743 1210,-694.4166"/>
<polygon fill="#000000" stroke="#000000" points="1213.5001,-694.4132 1210,-684.4133 1206.5001,-694.4133 1213.5001,-694.4132"/>
</g>
<!-- Reference to T1 non&#45;linear registration (FNIRT) -->
<g id="node36" class="node">
<title>Reference to T1 non&#45;linear registration (FNIRT)</title>
<ellipse fill="none" stroke="#000000" cx="1706" cy="-666" rx="234.7584" ry="18"/>
<text text-anchor="middle" x="1706" y="-662.3" font-family="Times,serif" font-size="14.00" fill="#000000">Reference to T1 non&#45;linear registration (FNIRT)</text>
</g>
<!-- T1 image&#45;&gt;Reference to T1 non&#45;linear registration (FNIRT) -->
<g id="edge13" class="edge">
<title>T1 image&#45;&gt;Reference to T1 non&#45;linear registration (FNIRT)</title>
<path fill="none" stroke="#000000" d="M1257.5586,-731.0963C1332.6069,-720.2022 1480.8003,-698.6903 1586.2768,-683.3792"/>
<polygon fill="#000000" stroke="#000000" points="1586.9535,-686.8177 1596.347,-681.9174 1585.9479,-679.8903 1586.9535,-686.8177"/>
</g>
<!-- Non&#45;uniformity correction (mri_nu_correct.mni) -->
<g id="node40" class="node">
<title>Non&#45;uniformity correction (mri_nu_correct.mni)</title>
<ellipse fill="none" stroke="#000000" cx="835" cy="-594" rx="235.0585" ry="18"/>
<text text-anchor="middle" x="835" y="-590.3" font-family="Times,serif" font-size="14.00" fill="#000000">Non&#45;uniformity correction (mri_nu_correct.mni)</text>
</g>
<!-- T1 image&#45;&gt;Non&#45;uniformity correction (mri_nu_correct.mni) -->
<g id="edge25" class="edge">
<title>T1 image&#45;&gt;Non&#45;uniformity correction (mri_nu_correct.mni)</title>
<path fill="none" stroke="#000000" d="M1180.8864,-726.8204C1118.627,-702.9128 971.6474,-646.4726 890.7662,-615.4142"/>
<polygon fill="#000000" stroke="#000000" points="891.8305,-612.0738 881.2404,-611.7563 889.3211,-618.6086 891.8305,-612.0738"/>
</g>
<!-- MNI reference -->
<g id="node2" class="node">
<title>MNI reference</title>
<polygon fill="none" stroke="#ff0000" points="1836,-756 1722.8873,-738 1836,-720 1949.1127,-738 1836,-756"/>
<text text-anchor="middle" x="1836" y="-734.3" font-family="Times,serif" font-size="14.00" fill="#ff0000">MNI reference</text>
</g>
<!-- MNI reference&#45;&gt;Reference to T1 non&#45;linear registration (FNIRT) -->
<g id="edge14" class="edge">
<title>MNI reference&#45;&gt;Reference to T1 non&#45;linear registration (FNIRT)</title>
<path fill="none" stroke="#000000" d="M1810.6261,-723.9468C1792.6035,-713.965 1768.0085,-700.3432 1747.1931,-688.8146"/>
<polygon fill="#000000" stroke="#000000" points="1748.6777,-685.6359 1738.234,-683.8527 1745.2861,-691.7595 1748.6777,-685.6359"/>
</g>
<!-- MNI reference brain -->
<g id="node3" class="node">
<title>MNI reference brain</title>
<polygon fill="none" stroke="#ff0000" points="1916,-252 1764.1779,-234 1916,-216 2067.8221,-234 1916,-252"/>
<text text-anchor="middle" x="1916" y="-230.3" font-family="Times,serif" font-size="14.00" fill="#ff0000">MNI reference brain</text>
</g>
<!-- Linear registration (FLIRT) -->
<g id="node34" class="node">
<title>Linear registration (FLIRT)</title>
<ellipse fill="none" stroke="#000000" cx="1758" cy="-162" rx="138.3755" ry="18"/>
<text text-anchor="middle" x="1758" y="-158.3" font-family="Times,serif" font-size="14.00" fill="#000000">Linear registration (FLIRT)</text>
</g>
<!-- MNI reference brain&#45;&gt;Linear registration (FLIRT) -->
<g id="edge10" class="edge">
<title>MNI reference brain&#45;&gt;Linear registration (FLIRT)</title>
<path fill="none" stroke="#000000" d="M1884.4061,-219.6028C1861.7881,-209.2958 1830.9431,-195.2399 1805.3851,-183.5932"/>
<polygon fill="#000000" stroke="#000000" points="1806.7843,-180.3846 1796.2332,-179.4227 1803.8816,-186.7544 1806.7843,-180.3846"/>
</g>
<!-- Lobe map (reference space) -->
<g id="node4" class="node">
<title>Lobe map (reference space)</title>
<polygon fill="none" stroke="#ff0000" points="2210,-612 2010.5857,-594 2210,-576 2409.4143,-594 2210,-612"/>
<text text-anchor="middle" x="2210" y="-590.3" font-family="Times,serif" font-size="14.00" fill="#ff0000">Lobe map (reference space)</text>
</g>
<!-- Transform lobe map (applywarp) -->
<g id="node37" class="node">
<title>Transform lobe map (applywarp)</title>
<ellipse fill="none" stroke="#000000" cx="1833" cy="-522" rx="163.2712" ry="18"/>
<text text-anchor="middle" x="1833" y="-518.3" font-family="Times,serif" font-size="14.00" fill="#000000">Transform lobe map (applywarp)</text>
</g>
<!-- Lobe map (reference space)&#45;&gt;Transform lobe map (applywarp) -->
<g id="edge17" class="edge">
<title>Lobe map (reference space)&#45;&gt;Transform lobe map (applywarp)</title>
<path fill="none" stroke="#000000" d="M2145.6198,-581.7046C2084.8846,-570.1053 1993.2026,-552.5957 1924.8087,-539.5338"/>
<polygon fill="#000000" stroke="#000000" points="1925.3723,-536.0782 1914.8932,-537.6401 1924.0591,-542.9539 1925.3723,-536.0782"/>
</g>
<!-- Head mask (reference space) -->
<g id="node5" class="node">
<title>Head mask (reference space)</title>
<polygon fill="none" stroke="#ff0000" points="1446,-612 1237.2025,-594 1446,-576 1654.7975,-594 1446,-612"/>
<text text-anchor="middle" x="1446" y="-590.3" font-family="Times,serif" font-size="14.00" fill="#ff0000">Head mask (reference space)</text>
</g>
<!-- Transform head mask (applywarp) -->
<g id="node38" class="node">
<title>Transform head mask (applywarp)</title>
<ellipse fill="none" stroke="#000000" cx="1473" cy="-522" rx="170.8697" ry="18"/>
<text text-anchor="middle" x="1473" y="-518.3" font-family="Times,serif" font-size="14.00" fill="#000000">Transform head mask (applywarp)</text>
</g>
<!-- Head mask (reference space)&#45;&gt;Transform head mask (applywarp) -->
<g id="edge20" class="edge">
<title>Head mask (reference space)&#45;&gt;Transform head mask (applywarp)</title>
<path fill="none" stroke="#000000" d="M1452.6742,-576.2022C1455.6695,-568.2146 1459.2733,-558.6045 1462.6092,-549.7087"/>
<polygon fill="#000000" stroke="#000000" points="1465.9809,-550.6854 1466.2151,-540.0931 1459.4266,-548.2275 1465.9809,-550.6854"/>
</g>
<!-- DTI image -->
<g id="node6" class="node">
<title>DTI image</title>
<polygon fill="none" stroke="#ff0000" points="287,-900 202.375,-882 287,-864 371.625,-882 287,-900"/>
<text text-anchor="middle" x="287" y="-878.3" font-family="Times,serif" font-size="14.00" fill="#ff0000">DTI image</text>
</g>
<!-- Eddy correction (eddy_correct) -->
<g id="node42" class="node">
<title>Eddy correction (eddy_correct)</title>
<ellipse fill="none" stroke="#000000" cx="330" cy="-810" rx="157.0724" ry="18"/>
<text text-anchor="middle" x="330" y="-806.3" font-family="Times,serif" font-size="14.00" fill="#000000">Eddy correction (eddy_correct)</text>
</g>
<!-- DTI image&#45;&gt;Eddy correction (eddy_correct) -->
<g id="edge31" class="edge">
<title>DTI image&#45;&gt;Eddy correction (eddy_correct)</title>
<path fill="none" stroke="#000000" d="M296.5431,-866.0209C301.6957,-857.3932 308.1918,-846.5161 314.086,-836.6467"/>
<polygon fill="#000000" stroke="#000000" points="317.1515,-838.3398 319.274,-827.9597 311.1417,-834.7506 317.1515,-838.3398"/>
</g>
<!-- bvec -->
<g id="node7" class="node">
<title>bvec</title>
<polygon fill="none" stroke="#ff0000" points="89,-612 43.0842,-594 89,-576 134.9158,-594 89,-612"/>
<text text-anchor="middle" x="89" y="-590.3" font-family="Times,serif" font-size="14.00" fill="#ff0000">bvec</text>
</g>
<!-- dtifit -->
<g id="node44" class="node">
<title>dtifit</title>
<ellipse fill="none" stroke="#000000" cx="171" cy="-522" rx="33.5952" ry="18"/>
<text text-anchor="middle" x="171" y="-518.3" font-family="Times,serif" font-size="14.00" fill="#000000">dtifit</text>
</g>
<!-- bvec&#45;&gt;dtifit -->
<g id="edge37" class="edge">
<title>bvec&#45;&gt;dtifit</title>
<path fill="none" stroke="#000000" d="M103.2833,-581.4586C114.944,-571.2199 131.7115,-556.4972 145.6438,-544.264"/>
<polygon fill="#000000" stroke="#000000" points="148.2541,-546.6297 153.4593,-537.4016 143.6355,-541.3696 148.2541,-546.6297"/>
</g>
<!-- bval -->
<g id="node8" class="node">
<title>bval</title>
<polygon fill="none" stroke="#ff0000" points="305,-972 261.5983,-954 305,-936 348.4017,-954 305,-972"/>
<text text-anchor="middle" x="305" y="-950.3" font-family="Times,serif" font-size="14.00" fill="#ff0000">bval</text>
</g>
<!-- Structural index -->
<g id="node28" class="node">
<title>Structural index</title>
<polygon fill="none" stroke="#0000ff" points="524,-900 390,-900 390,-864 524,-864 524,-900"/>
<text text-anchor="middle" x="457" y="-878.3" font-family="Times,serif" font-size="14.00" fill="#0000ff">Structural index</text>
</g>
<!-- bval&#45;&gt;Structural index -->
<g id="edge30" class="edge">
<title>bval&#45;&gt;Structural index</title>
<path fill="none" stroke="#000000" d="M325.4994,-944.2898C346.9038,-934.1508 381.2224,-917.8947 409.4334,-904.5315"/>
<polygon fill="#000000" stroke="#000000" points="411.2,-907.5676 418.7391,-900.1236 408.2033,-901.2414 411.2,-907.5676"/>
</g>
<!-- bval&#45;&gt;dtifit -->
<g id="edge38" class="edge">
<title>bval&#45;&gt;dtifit</title>
<path fill="none" stroke="#000000" d="M278.2383,-946.9852C253.282,-939.2153 216.4761,-924.443 193,-900 162.8025,-868.5587 154,-853.5941 154,-810 154,-810 154,-810 154,-666 154,-625.9383 153.5254,-615.6859 159,-576 160.1812,-567.4378 162.015,-558.2217 163.8965,-549.8697"/>
<polygon fill="#000000" stroke="#000000" points="167.3666,-550.4038 166.2599,-539.8669 160.5542,-548.7942 167.3666,-550.4038"/>
</g>
<!-- T1 brain image -->
<g id="node9" class="node">
<title>T1 brain image</title>
<polygon fill="none" stroke="#0000ff" points="1219.5,-612 1094.5,-612 1094.5,-576 1219.5,-576 1219.5,-612"/>
<text text-anchor="middle" x="1157" y="-590.3" font-family="Times,serif" font-size="14.00" fill="#0000ff">T1 brain image</text>
</g>
<!-- Crop parameters -->
<g id="node13" class="node">
<title>Crop parameters</title>
<polygon fill="none" stroke="#0000ff" points="1263.5,-540 1124.5,-540 1124.5,-504 1263.5,-504 1263.5,-540"/>
<text text-anchor="middle" x="1194" y="-518.3" font-family="Times,serif" font-size="14.00" fill="#0000ff">Crop parameters</text>
</g>
<!-- T1 brain image&#45;&gt;Crop parameters -->
<g id="edge6" class="edge">
<title>T1 brain image&#45;&gt;Crop parameters</title>
<path fill="none" stroke="#000000" d="M1166.3367,-575.8314C1170.4243,-567.8771 1175.3104,-558.369 1179.8309,-549.5723"/>
<polygon fill="#000000" stroke="#000000" points="1183.0799,-550.9074 1184.5376,-540.4133 1176.8539,-547.7078 1183.0799,-550.9074"/>
</g>
<!-- T1 Crop -->
<g id="node32" class="node">
<title>T1 Crop</title>
<ellipse fill="none" stroke="#000000" cx="1278" cy="-450" rx="48.9926" ry="18"/>
<text text-anchor="middle" x="1278" y="-446.3" font-family="Times,serif" font-size="14.00" fill="#000000">T1 Crop</text>
</g>
<!-- T1 brain image&#45;&gt;T1 Crop -->
<g id="edge3" class="edge">
<title>T1 brain image&#45;&gt;T1 Crop</title>
<path fill="none" stroke="#000000" d="M1219.5466,-578.8931C1239.9136,-570.7784 1260.4809,-558.4847 1273,-540 1285.0868,-522.1536 1285.6149,-497.4585 1283.5233,-478.4502"/>
<polygon fill="#000000" stroke="#000000" points="1286.953,-477.7025 1282.103,-468.283 1280.0203,-478.6711 1286.953,-477.7025"/>
</g>
<!-- DTI linear registration -->
<g id="node46" class="node">
<title>DTI linear registration</title>
<ellipse fill="none" stroke="#000000" cx="413" cy="-378" rx="116.1796" ry="18"/>
<text text-anchor="middle" x="413" y="-374.3" font-family="Times,serif" font-size="14.00" fill="#000000">DTI linear registration</text>
</g>
<!-- T1 brain image&#45;&gt;DTI linear registration -->
<g id="edge46" class="edge">
<title>T1 brain image&#45;&gt;DTI linear registration</title>
<path fill="none" stroke="#000000" d="M1142.9236,-575.5998C1123.5387,-550.5028 1090.0966,-508.1578 1082,-504 984.0865,-453.7198 693.9665,-497.77 588,-468 560.5941,-460.3007 494.712,-424.4875 452.0601,-400.4253"/>
<polygon fill="#000000" stroke="#000000" points="453.7598,-397.3656 443.3334,-395.4834 450.3103,-403.4567 453.7598,-397.3656"/>
</g>
<!-- T1 cropped brain image -->
<g id="node10" class="node">
<title>T1 cropped brain image</title>
<polygon fill="none" stroke="#0000ff" points="1372,-396 1184,-396 1184,-360 1372,-360 1372,-396"/>
<text text-anchor="middle" x="1278" y="-374.3" font-family="Times,serif" font-size="14.00" fill="#0000ff">T1 cropped brain image</text>
</g>
<!-- Tissue classification (FAST) -->
<g id="node33" class="node">
<title>Tissue classification (FAST)</title>
<ellipse fill="none" stroke="#000000" cx="1278" cy="-306" rx="139.9756" ry="18"/>
<text text-anchor="middle" x="1278" y="-302.3" font-family="Times,serif" font-size="14.00" fill="#000000">Tissue classification (FAST)</text>
</g>
<!-- T1 cropped brain image&#45;&gt;Tissue classification (FAST) -->
<g id="edge5" class="edge">
<title>T1 cropped brain image&#45;&gt;Tissue classification (FAST)</title>
<path fill="none" stroke="#000000" d="M1278,-359.8314C1278,-352.131 1278,-342.9743 1278,-334.4166"/>
<polygon fill="#000000" stroke="#000000" points="1281.5001,-334.4132 1278,-324.4133 1274.5001,-334.4133 1281.5001,-334.4132"/>
</g>
<!-- GM/WM maps -->
<g id="node11" class="node">
<title>GM/WM maps</title>
<polygon fill="none" stroke="#0000ff" points="1337.5,-252 1218.5,-252 1218.5,-216 1337.5,-216 1337.5,-252"/>
<text text-anchor="middle" x="1278" y="-230.3" font-family="Times,serif" font-size="14.00" fill="#0000ff">GM/WM maps</text>
</g>
<!-- Lobe + tissue map -->
<g id="node39" class="node">
<title>Lobe + tissue map</title>
<ellipse fill="none" stroke="#000000" cx="1278" cy="-162" rx="98.2828" ry="18"/>
<text text-anchor="middle" x="1278" y="-158.3" font-family="Times,serif" font-size="14.00" fill="#000000">Lobe + tissue map</text>
</g>
<!-- GM/WM maps&#45;&gt;Lobe + tissue map -->
<g id="edge23" class="edge">
<title>GM/WM maps&#45;&gt;Lobe + tissue map</title>
<path fill="none" stroke="#000000" d="M1278,-215.8314C1278,-208.131 1278,-198.9743 1278,-190.4166"/>
<polygon fill="#000000" stroke="#000000" points="1281.5001,-190.4132 1278,-180.4133 1274.5001,-190.4133 1281.5001,-190.4132"/>
</g>
<!-- T1 bet&#45;nonuniformity&#45;corrected image -->
<g id="node12" class="node">
<title>T1 bet&#45;nonuniformity&#45;corrected image</title>
<polygon fill="none" stroke="#0000ff" points="1746.5,-252 1455.5,-252 1455.5,-216 1746.5,-216 1746.5,-252"/>
<text text-anchor="middle" x="1601" y="-230.3" font-family="Times,serif" font-size="14.00" fill="#0000ff">T1 bet&#45;nonuniformity&#45;corrected image</text>
</g>
<!-- T1 bet&#45;nonuniformity&#45;corrected image&#45;&gt;Linear registration (FLIRT) -->
<g id="edge11" class="edge">
<title>T1 bet&#45;nonuniformity&#45;corrected image&#45;&gt;Linear registration (FLIRT)</title>
<path fill="none" stroke="#000000" d="M1640.6177,-215.8314C1661.9197,-206.0623 1688.3321,-193.9496 1710.7052,-183.6893"/>
<polygon fill="#000000" stroke="#000000" points="1712.389,-186.7677 1720.0197,-179.4177 1709.471,-180.4049 1712.389,-186.7677"/>
</g>
<!-- Crop parameters&#45;&gt;T1 Crop -->
<g id="edge7" class="edge">
<title>Crop parameters&#45;&gt;T1 Crop</title>
<path fill="none" stroke="#000000" d="M1215.1967,-503.8314C1226.0168,-494.557 1239.3012,-483.1704 1250.8613,-473.2618"/>
<polygon fill="#000000" stroke="#000000" points="1253.2226,-475.8476 1258.5374,-466.6822 1248.667,-470.5328 1253.2226,-475.8476"/>
</g>
<!-- Crop NU -->
<g id="node41" class="node">
<title>Crop NU</title>
<ellipse fill="none" stroke="#000000" cx="934" cy="-450" rx="52.7911" ry="18"/>
<text text-anchor="middle" x="934" y="-446.3" font-family="Times,serif" font-size="14.00" fill="#000000">Crop NU</text>
</g>
<!-- Crop parameters&#45;&gt;Crop NU -->
<g id="edge27" class="edge">
<title>Crop parameters&#45;&gt;Crop NU</title>
<path fill="none" stroke="#000000" d="M1128.7266,-503.9243C1084.1186,-491.5713 1025.8595,-475.438 984.7272,-464.0475"/>
<polygon fill="#000000" stroke="#000000" points="985.4908,-460.6273 974.9194,-461.3315 983.6226,-467.3734 985.4908,-460.6273"/>
</g>
<!-- Reference to T1 linear transformation -->
<g id="node14" class="node">
<title>Reference to T1 linear transformation</title>
<polygon fill="none" stroke="#0000ff" points="1902.5,-108 1613.5,-108 1613.5,-72 1902.5,-72 1902.5,-108"/>
<text text-anchor="middle" x="1758" y="-86.3" font-family="Times,serif" font-size="14.00" fill="#0000ff">Reference to T1 linear transformation</text>
</g>
<!-- Reference to T1 non&#45;linear transformation -->
<g id="node15" class="node">
<title>Reference to T1 non&#45;linear transformation</title>
<polygon fill="none" stroke="#0000ff" points="1993,-612 1673,-612 1673,-576 1993,-576 1993,-612"/>
<text text-anchor="middle" x="1833" y="-590.3" font-family="Times,serif" font-size="14.00" fill="#0000ff">Reference to T1 non&#45;linear transformation</text>
</g>
<!-- Reference to T1 non&#45;linear transformation&#45;&gt;Transform lobe map (applywarp) -->
<g id="edge18" class="edge">
<title>Reference to T1 non&#45;linear transformation&#45;&gt;Transform lobe map (applywarp)</title>
<path fill="none" stroke="#000000" d="M1833,-575.8314C1833,-568.131 1833,-558.9743 1833,-550.4166"/>
<polygon fill="#000000" stroke="#000000" points="1836.5001,-550.4132 1833,-540.4133 1829.5001,-550.4133 1836.5001,-550.4132"/>
</g>
<!-- Reference to T1 non&#45;linear transformation&#45;&gt;Transform head mask (applywarp) -->
<g id="edge21" class="edge">
<title>Reference to T1 non&#45;linear transformation&#45;&gt;Transform head mask (applywarp)</title>
<path fill="none" stroke="#000000" d="M1742.6215,-575.9243C1687.6223,-564.9245 1617.6359,-550.9272 1562.7512,-539.9502"/>
<polygon fill="#000000" stroke="#000000" points="1563.1781,-536.4664 1552.6858,-537.9372 1561.8052,-543.3304 1563.1781,-536.4664"/>
</g>
<!-- Lobe map (native space) -->
<g id="node16" class="node">
<title>Lobe map (native space)</title>
<polygon fill="none" stroke="#0000ff" points="1622,-396 1430,-396 1430,-360 1622,-360 1622,-396"/>
<text text-anchor="middle" x="1526" y="-374.3" font-family="Times,serif" font-size="14.00" fill="#0000ff">Lobe map (native space)</text>
</g>
<!-- Lobe map (native space)&#45;&gt;Lobe + tissue map -->
<g id="edge24" class="edge">
<title>Lobe map (native space)&#45;&gt;Lobe + tissue map</title>
<path fill="none" stroke="#000000" d="M1506.8215,-359.777C1474.5069,-329.2708 1406.8659,-266.264 1347,-216 1334.8842,-205.8275 1321.2248,-195.008 1309.2756,-185.7461"/>
<polygon fill="#000000" stroke="#000000" points="1311.3729,-182.9437 1301.3162,-179.61 1307.099,-188.4875 1311.3729,-182.9437"/>
</g>
<!-- Head mask (native space) -->
<g id="node17" class="node">
<title>Head mask (native space)</title>
<polygon fill="none" stroke="#0000ff" points="1563.5,-468 1360.5,-468 1360.5,-432 1563.5,-432 1563.5,-468"/>
<text text-anchor="middle" x="1462" y="-446.3" font-family="Times,serif" font-size="14.00" fill="#0000ff">Head mask (native space)</text>
</g>
<!-- Calc stats -->
<g id="node49" class="node">
<title>Calc stats</title>
<ellipse fill="none" stroke="#000000" cx="934" cy="-90" rx="57.6901" ry="18"/>
<text text-anchor="middle" x="934" y="-86.3" font-family="Times,serif" font-size="14.00" fill="#000000">Calc stats</text>
</g>
<!-- Head mask (native space)&#45;&gt;Calc stats -->
<g id="edge55" class="edge">
<title>Head mask (native space)&#45;&gt;Calc stats</title>
<path fill="none" stroke="#000000" d="M1360.4093,-434.4937C1284.4351,-422.2927 1191.0136,-405.7711 1175,-396 1131.7424,-369.6054 1105,-356.6745 1105,-306 1105,-306 1105,-306 1105,-234 1105,-169.8273 1033.6668,-128.4795 983.1449,-107.2424"/>
<polygon fill="#000000" stroke="#000000" points="984.2425,-103.9105 973.6606,-103.3862 981.6059,-110.395 984.2425,-103.9105"/>
</g>
<!-- NU corrected T1 -->
<g id="node18" class="node">
<title>NU corrected T1</title>
<polygon fill="none" stroke="#0000ff" points="937.5,-540 798.5,-540 798.5,-504 937.5,-504 937.5,-540"/>
<text text-anchor="middle" x="868" y="-518.3" font-family="Times,serif" font-size="14.00" fill="#0000ff">NU corrected T1</text>
</g>
<!-- NU corrected T1&#45;&gt;Crop NU -->
<g id="edge28" class="edge">
<title>NU corrected T1&#45;&gt;Crop NU</title>
<path fill="none" stroke="#000000" d="M884.6546,-503.8314C892.6501,-495.109 902.3582,-484.5183 911.0412,-475.0459"/>
<polygon fill="#000000" stroke="#000000" points="913.8565,-477.1543 918.0338,-467.4177 908.6964,-472.4242 913.8565,-477.1543"/>
</g>
<!-- Cropped NU corrected T1 -->
<g id="node19" class="node">
<title>Cropped NU corrected T1</title>
<polygon fill="none" stroke="#0000ff" points="1036.5,-396 831.5,-396 831.5,-360 1036.5,-360 1036.5,-396"/>
<text text-anchor="middle" x="934" y="-374.3" font-family="Times,serif" font-size="14.00" fill="#0000ff">Cropped NU corrected T1</text>
</g>
<!-- Cropped NU corrected T1&#45;&gt;Calc stats -->
<g id="edge56" class="edge">
<title>Cropped NU corrected T1&#45;&gt;Calc stats</title>
<path fill="none" stroke="#000000" d="M934,-359.9843C934,-311.2939 934,-176.7961 934,-118.0573"/>
<polygon fill="#000000" stroke="#000000" points="937.5001,-118.0088 934,-108.0089 930.5001,-118.0089 937.5001,-118.0088"/>
</g>
<!-- Eddy corrected image -->
<g id="node20" class="node">
<title>Eddy corrected image</title>
<polygon fill="none" stroke="#0000ff" points="418,-756 242,-756 242,-720 418,-720 418,-756"/>
<text text-anchor="middle" x="330" y="-734.3" font-family="Times,serif" font-size="14.00" fill="#0000ff">Eddy corrected image</text>
</g>
<!-- DTI brain extraction (BET) -->
<g id="node43" class="node">
<title>DTI brain extraction (BET)</title>
<ellipse fill="none" stroke="#000000" cx="330" cy="-666" rx="135.6761" ry="18"/>
<text text-anchor="middle" x="330" y="-662.3" font-family="Times,serif" font-size="14.00" fill="#000000">DTI brain extraction (BET)</text>
</g>
<!-- Eddy corrected image&#45;&gt;DTI brain extraction (BET) -->
<g id="edge34" class="edge">
<title>Eddy corrected image&#45;&gt;DTI brain extraction (BET)</title>
<path fill="none" stroke="#000000" d="M330,-719.8314C330,-712.131 330,-702.9743 330,-694.4166"/>
<polygon fill="#000000" stroke="#000000" points="333.5001,-694.4132 330,-684.4133 326.5001,-694.4133 333.5001,-694.4132"/>
</g>
<!-- Eddy corrected image&#45;&gt;dtifit -->
<g id="edge39" class="edge">
<title>Eddy corrected image&#45;&gt;dtifit</title>
<path fill="none" stroke="#000000" d="M260.9563,-719.9449C228.5903,-710.0232 194.9606,-697.0958 185,-684 155.4958,-645.2093 159.4186,-585.0626 165.1016,-550.0053"/>
<polygon fill="#000000" stroke="#000000" points="168.5789,-550.4412 166.8867,-539.9824 161.6874,-549.2137 168.5789,-550.4412"/>
</g>
<!-- DTI brain mask -->
<g id="node21" class="node">
<title>DTI brain mask</title>
<polygon fill="none" stroke="#0000ff" points="325,-612 197,-612 197,-576 325,-576 325,-612"/>
<text text-anchor="middle" x="261" y="-590.3" font-family="Times,serif" font-size="14.00" fill="#0000ff">DTI brain mask</text>
</g>
<!-- DTI brain mask&#45;&gt;dtifit -->
<g id="edge40" class="edge">
<title>DTI brain mask&#45;&gt;dtifit</title>
<path fill="none" stroke="#000000" d="M238.2892,-575.8314C225.9868,-565.9894 210.7109,-553.7687 197.8249,-543.4599"/>
<polygon fill="#000000" stroke="#000000" points="199.7526,-540.5199 189.7574,-537.0059 195.3797,-545.986 199.7526,-540.5199"/>
</g>
<!-- FA image -->
<g id="node22" class="node">
<title>FA image</title>
<polygon fill="none" stroke="#0000ff" points="276.5,-396 193.5,-396 193.5,-360 276.5,-360 276.5,-396"/>
<text text-anchor="middle" x="235" y="-374.3" font-family="Times,serif" font-size="14.00" fill="#0000ff">FA image</text>
</g>
<!-- Transform FA (applywarp) -->
<g id="node47" class="node">
<title>Transform FA (applywarp)</title>
<ellipse fill="none" stroke="#000000" cx="443" cy="-234" rx="133.4768" ry="18"/>
<text text-anchor="middle" x="443" y="-230.3" font-family="Times,serif" font-size="14.00" fill="#000000">Transform FA (applywarp)</text>
</g>
<!-- FA image&#45;&gt;Transform FA (applywarp) -->
<g id="edge49" class="edge">
<title>FA image&#45;&gt;Transform FA (applywarp)</title>
<path fill="none" stroke="#000000" d="M268.0106,-359.908C274.4948,-356.9021 281.351,-354.0886 288,-352 327.0395,-339.7369 443.3555,-355.0571 470,-324 485.2905,-306.1772 474.8474,-279.9405 462.7767,-260.388"/>
<polygon fill="#000000" stroke="#000000" points="465.6276,-258.3534 457.2028,-251.929 459.7825,-262.205 465.6276,-258.3534"/>
</g>
<!-- MD image -->
<g id="node23" class="node">
<title>MD image</title>
<polygon fill="none" stroke="#0000ff" points="199,-324 109,-324 109,-288 199,-288 199,-324"/>
<text text-anchor="middle" x="154" y="-302.3" font-family="Times,serif" font-size="14.00" fill="#0000ff">MD image</text>
</g>
<!-- Transform MD (applywarp) -->
<g id="node48" class="node">
<title>Transform MD (applywarp)</title>
<ellipse fill="none" stroke="#000000" cx="154" cy="-234" rx="137.5759" ry="18"/>
<text text-anchor="middle" x="154" y="-230.3" font-family="Times,serif" font-size="14.00" fill="#000000">Transform MD (applywarp)</text>
</g>
<!-- MD image&#45;&gt;Transform MD (applywarp) -->
<g id="edge52" class="edge">
<title>MD image&#45;&gt;Transform MD (applywarp)</title>
<path fill="none" stroke="#000000" d="M154,-287.8314C154,-280.131 154,-270.9743 154,-262.4166"/>
<polygon fill="#000000" stroke="#000000" points="157.5001,-262.4132 154,-252.4133 150.5001,-262.4133 157.5001,-262.4132"/>
</g>
<!-- FA image (T1 space) -->
<g id="node24" class="node">
<title>FA image (T1 space)</title>
<polygon fill="none" stroke="#0000ff" points="549.5,-180 386.5,-180 386.5,-144 549.5,-144 549.5,-180"/>
<text text-anchor="middle" x="468" y="-158.3" font-family="Times,serif" font-size="14.00" fill="#0000ff">FA image (T1 space)</text>
</g>
<!-- FA image (T1 space)&#45;&gt;Calc stats -->
<g id="edge57" class="edge">
<title>FA image (T1 space)&#45;&gt;Calc stats</title>
<path fill="none" stroke="#000000" d="M549.7043,-149.3762C641.6662,-135.1675 789.0261,-112.3994 872.0036,-99.5788"/>
<polygon fill="#000000" stroke="#000000" points="872.6934,-103.0139 882.0417,-98.0279 871.6245,-96.096 872.6934,-103.0139"/>
</g>
<!-- MD image (T1 space) -->
<g id="node25" class="node">
<title>MD image (T1 space)</title>
<polygon fill="none" stroke="#0000ff" points="316,-180 146,-180 146,-144 316,-144 316,-180"/>
<text text-anchor="middle" x="231" y="-158.3" font-family="Times,serif" font-size="14.00" fill="#0000ff">MD image (T1 space)</text>
</g>
<!-- MD image (T1 space)&#45;&gt;Calc stats -->
<g id="edge58" class="edge">
<title>MD image (T1 space)&#45;&gt;Calc stats</title>
<path fill="none" stroke="#000000" d="M316.2991,-145.5363C336.4744,-142.0246 357.9522,-138.5966 378,-136 553.4615,-113.2742 761.6086,-99.5595 866.4607,-93.5669"/>
<polygon fill="#000000" stroke="#000000" points="866.8005,-97.0534 876.5867,-92.9939 866.4049,-90.0646 866.8005,-97.0534"/>
</g>
<!-- DTI to T1 linear transformation -->
<g id="node26" class="node">
<title>DTI to T1 linear transformation</title>
<polygon fill="none" stroke="#0000ff" points="460.5,-324 217.5,-324 217.5,-288 460.5,-288 460.5,-324"/>
<text text-anchor="middle" x="339" y="-302.3" font-family="Times,serif" font-size="14.00" fill="#0000ff">DTI to T1 linear transformation</text>
</g>
<!-- DTI to T1 linear transformation&#45;&gt;Transform FA (applywarp) -->
<g id="edge50" class="edge">
<title>DTI to T1 linear transformation&#45;&gt;Transform FA (applywarp)</title>
<path fill="none" stroke="#000000" d="M365.2436,-287.8314C378.3992,-278.7237 394.4972,-267.5789 408.6262,-257.7973"/>
<polygon fill="#000000" stroke="#000000" points="410.8954,-260.4832 417.1251,-251.9134 406.9109,-254.7279 410.8954,-260.4832"/>
</g>
<!-- DTI to T1 linear transformation&#45;&gt;Transform MD (applywarp) -->
<g id="edge53" class="edge">
<title>DTI to T1 linear transformation&#45;&gt;Transform MD (applywarp)</title>
<path fill="none" stroke="#000000" d="M292.3167,-287.8314C266.5768,-277.8137 234.5045,-265.3315 207.7259,-254.9095"/>
<polygon fill="#000000" stroke="#000000" points="208.7097,-251.5367 198.1211,-251.1715 206.1708,-258.0601 208.7097,-251.5367"/>
</g>
<!-- Stats files -->
<g id="node27" class="node">
<title>Stats files</title>
<polygon fill="none" stroke="#0000ff" points="978.5,-36 889.5,-36 889.5,0 978.5,0 978.5,-36"/>
<text text-anchor="middle" x="934" y="-14.3" font-family="Times,serif" font-size="14.00" fill="#0000ff">Stats files</text>
</g>
<!-- Structural index&#45;&gt;Eddy correction (eddy_correct) -->
<g id="edge32" class="edge">
<title>Structural index&#45;&gt;Eddy correction (eddy_correct)</title>
<path fill="none" stroke="#000000" d="M424.9525,-863.8314C408.3078,-854.3949 387.8057,-842.7717 370.1173,-832.7436"/>
<polygon fill="#000000" stroke="#000000" points="371.5846,-829.5522 361.1592,-827.665 368.1322,-835.6417 371.5846,-829.5522"/>
</g>
<!-- Extract struct image (fslroi) -->
<g id="node45" class="node">
<title>Extract struct image (fslroi)</title>
<ellipse fill="none" stroke="#000000" cx="413" cy="-522" rx="141.8751" ry="18"/>
<text text-anchor="middle" x="413" y="-518.3" font-family="Times,serif" font-size="14.00" fill="#000000">Extract struct image (fslroi)</text>
</g>
<!-- Structural index&#45;&gt;Extract struct image (fslroi) -->
<g id="edge43" class="edge">
<title>Structural index&#45;&gt;Extract struct image (fslroi)</title>
<path fill="none" stroke="#000000" d="M473.6974,-863.9229C481.8282,-854.0447 490.9235,-841.1636 496,-828 510.4812,-790.4494 506,-778.2462 506,-738 506,-738 506,-738 506,-666 506,-625.1184 509.2063,-610.3248 487,-576 479.1447,-563.8579 467.5336,-553.5286 455.8259,-545.2562"/>
<polygon fill="#000000" stroke="#000000" points="457.5989,-542.2317 447.3362,-539.5996 453.7175,-548.0571 457.5989,-542.2317"/>
</g>
<!-- DTI brain image -->
<g id="node29" class="node">
<title>DTI brain image</title>
<polygon fill="none" stroke="#0000ff" points="478,-612 344,-612 344,-576 478,-576 478,-612"/>
<text text-anchor="middle" x="411" y="-590.3" font-family="Times,serif" font-size="14.00" fill="#0000ff">DTI brain image</text>
</g>
<!-- DTI brain image&#45;&gt;Extract struct image (fslroi) -->
<g id="edge44" class="edge">
<title>DTI brain image&#45;&gt;Extract struct image (fslroi)</title>
<path fill="none" stroke="#000000" d="M411.5047,-575.8314C411.7186,-568.131 411.9729,-558.9743 412.2106,-550.4166"/>
<polygon fill="#000000" stroke="#000000" points="415.7094,-550.5066 412.4885,-540.4133 408.7121,-550.3122 415.7094,-550.5066"/>
</g>
<!-- DTI structural image -->
<g id="node30" class="node">
<title>DTI structural image</title>
<polygon fill="none" stroke="#0000ff" points="497,-468 329,-468 329,-432 497,-432 497,-468"/>
<text text-anchor="middle" x="413" y="-446.3" font-family="Times,serif" font-size="14.00" fill="#0000ff">DTI structural image</text>
</g>
<!-- DTI structural image&#45;&gt;DTI linear registration -->
<g id="edge47" class="edge">
<title>DTI structural image&#45;&gt;DTI linear registration</title>
<path fill="none" stroke="#000000" d="M413,-431.8314C413,-424.131 413,-414.9743 413,-406.4166"/>
<polygon fill="#000000" stroke="#000000" points="416.5001,-406.4132 413,-396.4133 409.5001,-406.4133 416.5001,-406.4132"/>
</g>
<!-- Brain extraction (BET)&#45;&gt;T1 brain image -->
<g id="edge2" class="edge">
<title>Brain extraction (BET)&#45;&gt;T1 brain image</title>
<path fill="none" stroke="#000000" d="M1196.6259,-647.8314C1190.5838,-639.6232 1183.3237,-629.7606 1176.6779,-620.7323"/>
<polygon fill="#000000" stroke="#000000" points="1179.3011,-618.3918 1170.5542,-612.4133 1173.6637,-622.5415 1179.3011,-618.3918"/>
</g>
<!-- T1 Crop&#45;&gt;T1 cropped brain image -->
<g id="edge4" class="edge">
<title>T1 Crop&#45;&gt;T1 cropped brain image</title>
<path fill="none" stroke="#000000" d="M1278,-431.8314C1278,-424.131 1278,-414.9743 1278,-406.4166"/>
<polygon fill="#000000" stroke="#000000" points="1281.5001,-406.4132 1278,-396.4133 1274.5001,-406.4133 1281.5001,-406.4132"/>
</g>
<!-- Tissue classification (FAST)&#45;&gt;GM/WM maps -->
<g id="edge8" class="edge">
<title>Tissue classification (FAST)&#45;&gt;GM/WM maps</title>
<path fill="none" stroke="#000000" d="M1278,-287.8314C1278,-280.131 1278,-270.9743 1278,-262.4166"/>
<polygon fill="#000000" stroke="#000000" points="1281.5001,-262.4132 1278,-252.4133 1274.5001,-262.4133 1281.5001,-262.4132"/>
</g>
<!-- Tissue classification (FAST)&#45;&gt;T1 bet&#45;nonuniformity&#45;corrected image -->
<g id="edge9" class="edge">
<title>Tissue classification (FAST)&#45;&gt;T1 bet&#45;nonuniformity&#45;corrected image</title>
<path fill="none" stroke="#000000" d="M1348.0862,-290.3771C1395.672,-279.7697 1459.0457,-265.6431 1510.4501,-254.1845"/>
<polygon fill="#000000" stroke="#000000" points="1511.2335,-257.5959 1520.2324,-252.0039 1509.7104,-250.7635 1511.2335,-257.5959"/>
</g>
<!-- Linear registration (FLIRT)&#45;&gt;Reference to T1 linear transformation -->
<g id="edge12" class="edge">
<title>Linear registration (FLIRT)&#45;&gt;Reference to T1 linear transformation</title>
<path fill="none" stroke="#000000" d="M1758,-143.8314C1758,-136.131 1758,-126.9743 1758,-118.4166"/>
<polygon fill="#000000" stroke="#000000" points="1761.5001,-118.4132 1758,-108.4133 1754.5001,-118.4133 1761.5001,-118.4132"/>
</g>
<!-- Reference T1 linear transformation -->
<g id="node35" class="node">
<title>Reference T1 linear transformation</title>
<ellipse fill="none" stroke="#000000" cx="1529" cy="-738" rx="175.4689" ry="18"/>
<text text-anchor="middle" x="1529" y="-734.3" font-family="Times,serif" font-size="14.00" fill="#000000">Reference T1 linear transformation</text>
</g>
<!-- Reference T1 linear transformation&#45;&gt;Reference to T1 non&#45;linear registration (FNIRT) -->
<g id="edge15" class="edge">
<title>Reference T1 linear transformation&#45;&gt;Reference to T1 non&#45;linear registration (FNIRT)</title>
<path fill="none" stroke="#000000" d="M1572.2991,-720.3868C1596.5296,-710.5303 1626.9396,-698.1602 1652.6331,-687.7086"/>
<polygon fill="#000000" stroke="#000000" points="1654.2826,-690.8161 1662.2268,-683.8061 1651.645,-684.3321 1654.2826,-690.8161"/>
</g>
<!-- Reference to T1 non&#45;linear registration (FNIRT)&#45;&gt;Reference to T1 non&#45;linear transformation -->
<g id="edge16" class="edge">
<title>Reference to T1 non&#45;linear registration (FNIRT)&#45;&gt;Reference to T1 non&#45;linear transformation</title>
<path fill="none" stroke="#000000" d="M1737.7199,-648.0171C1754.2368,-638.6532 1774.6187,-627.098 1792.2871,-617.0813"/>
<polygon fill="#000000" stroke="#000000" points="1794.2713,-619.9798 1801.2444,-612.0032 1790.8189,-613.8904 1794.2713,-619.9798"/>
</g>
<!-- Transform lobe map (applywarp)&#45;&gt;Lobe map (native space) -->
<g id="edge19" class="edge">
<title>Transform lobe map (applywarp)&#45;&gt;Lobe map (native space)</title>
<path fill="none" stroke="#000000" d="M1795.3558,-504.3428C1739.5783,-478.18 1635.0069,-429.1303 1573.8617,-400.4498"/>
<polygon fill="#000000" stroke="#000000" points="1574.9751,-397.1062 1564.4352,-396.0282 1572.0024,-403.4436 1574.9751,-397.1062"/>
</g>
<!-- Transform head mask (applywarp)&#45;&gt;Head mask (native space) -->
<g id="edge22" class="edge">
<title>Transform head mask (applywarp)&#45;&gt;Head mask (native space)</title>
<path fill="none" stroke="#000000" d="M1470.2242,-503.8314C1469.0478,-496.131 1467.6489,-486.9743 1466.3414,-478.4166"/>
<polygon fill="#000000" stroke="#000000" points="1469.7833,-477.7699 1464.8131,-468.4133 1462.8636,-478.8272 1469.7833,-477.7699"/>
</g>
<!-- Lobe + tissue map&#45;&gt;Calc stats -->
<g id="edge59" class="edge">
<title>Lobe + tissue map&#45;&gt;Calc stats</title>
<path fill="none" stroke="#000000" d="M1213.2962,-148.4574C1149.599,-135.1254 1053.214,-114.9518 991.9573,-102.1306"/>
<polygon fill="#000000" stroke="#000000" points="992.57,-98.6831 982.0651,-100.0601 991.1359,-105.5346 992.57,-98.6831"/>
</g>
<!-- Non&#45;uniformity correction (mri_nu_correct.mni)&#45;&gt;NU corrected T1 -->
<g id="edge26" class="edge">
<title>Non&#45;uniformity correction (mri_nu_correct.mni)&#45;&gt;NU corrected T1</title>
<path fill="none" stroke="#000000" d="M843.3273,-575.8314C846.973,-567.8771 851.3309,-558.369 855.3627,-549.5723"/>
<polygon fill="#000000" stroke="#000000" points="858.5757,-550.9622 859.5606,-540.4133 852.2123,-548.0456 858.5757,-550.9622"/>
</g>
<!-- Crop NU&#45;&gt;Cropped NU corrected T1 -->
<g id="edge29" class="edge">
<title>Crop NU&#45;&gt;Cropped NU corrected T1</title>
<path fill="none" stroke="#000000" d="M934,-431.8314C934,-424.131 934,-414.9743 934,-406.4166"/>
<polygon fill="#000000" stroke="#000000" points="937.5001,-406.4132 934,-396.4133 930.5001,-406.4133 937.5001,-406.4132"/>
</g>
<!-- Eddy correction (eddy_correct)&#45;&gt;Eddy corrected image -->
<g id="edge33" class="edge">
<title>Eddy correction (eddy_correct)&#45;&gt;Eddy corrected image</title>
<path fill="none" stroke="#000000" d="M330,-791.8314C330,-784.131 330,-774.9743 330,-766.4166"/>
<polygon fill="#000000" stroke="#000000" points="333.5001,-766.4132 330,-756.4133 326.5001,-766.4133 333.5001,-766.4132"/>
</g>
<!-- DTI brain extraction (BET)&#45;&gt;DTI brain mask -->
<g id="edge35" class="edge">
<title>DTI brain extraction (BET)&#45;&gt;DTI brain mask</title>
<path fill="none" stroke="#000000" d="M312.5884,-647.8314C304.479,-639.3694 294.6844,-629.1489 285.818,-619.8971"/>
<polygon fill="#000000" stroke="#000000" points="288.0921,-617.2115 278.646,-612.4133 283.0382,-622.0549 288.0921,-617.2115"/>
</g>
<!-- DTI brain extraction (BET)&#45;&gt;DTI brain image -->
<g id="edge36" class="edge">
<title>DTI brain extraction (BET)&#45;&gt;DTI brain image</title>
<path fill="none" stroke="#000000" d="M350.4397,-647.8314C360.3205,-639.0485 372.3324,-628.3712 383.045,-618.8489"/>
<polygon fill="#000000" stroke="#000000" points="385.418,-621.4224 390.5668,-612.1628 380.7674,-616.1906 385.418,-621.4224"/>
</g>
<!-- dtifit&#45;&gt;FA image -->
<g id="edge41" class="edge">
<title>dtifit&#45;&gt;FA image</title>
<path fill="none" stroke="#000000" d="M178.8477,-504.3428C189.8235,-479.6472 209.8625,-434.5594 222.7959,-405.4592"/>
<polygon fill="#000000" stroke="#000000" points="226.0231,-406.8156 226.8862,-396.256 219.6265,-403.9726 226.0231,-406.8156"/>
</g>
<!-- dtifit&#45;&gt;MD image -->
<g id="edge42" class="edge">
<title>dtifit&#45;&gt;MD image</title>
<path fill="none" stroke="#000000" d="M169.5798,-503.9555C166.6173,-466.3144 159.7601,-379.1867 156.2135,-334.1246"/>
<polygon fill="#000000" stroke="#000000" points="159.702,-333.8396 155.4281,-324.1451 152.7236,-334.3889 159.702,-333.8396"/>
</g>
<!-- Extract struct image (fslroi)&#45;&gt;DTI structural image -->
<g id="edge45" class="edge">
<title>Extract struct image (fslroi)&#45;&gt;DTI structural image</title>
<path fill="none" stroke="#000000" d="M413,-503.8314C413,-496.131 413,-486.9743 413,-478.4166"/>
<polygon fill="#000000" stroke="#000000" points="416.5001,-478.4132 413,-468.4133 409.5001,-478.4133 416.5001,-478.4132"/>
</g>
<!-- DTI linear registration&#45;&gt;DTI to T1 linear transformation -->
<g id="edge48" class="edge">
<title>DTI linear registration&#45;&gt;DTI to T1 linear transformation</title>
<path fill="none" stroke="#000000" d="M394.7079,-360.2022C385.7038,-351.4416 374.694,-340.7293 364.8468,-331.1482"/>
<polygon fill="#000000" stroke="#000000" points="367.2037,-328.5581 357.5957,-324.0931 362.3222,-333.5752 367.2037,-328.5581"/>
</g>
<!-- Transform FA (applywarp)&#45;&gt;FA image (T1 space) -->
<g id="edge51" class="edge">
<title>Transform FA (applywarp)&#45;&gt;FA image (T1 space)</title>
<path fill="none" stroke="#000000" d="M449.3086,-215.8314C452.0117,-208.0463 455.2316,-198.7729 458.231,-190.1347"/>
<polygon fill="#000000" stroke="#000000" points="461.6327,-191.0081 461.6065,-180.4133 455.02,-188.7119 461.6327,-191.0081"/>
</g>
<!-- Transform MD (applywarp)&#45;&gt;MD image (T1 space) -->
<g id="edge54" class="edge">
<title>Transform MD (applywarp)&#45;&gt;MD image (T1 space)</title>
<path fill="none" stroke="#000000" d="M173.4304,-215.8314C182.732,-207.1337 194.0204,-196.5783 204.1286,-187.1265"/>
<polygon fill="#000000" stroke="#000000" points="206.6621,-189.5493 211.5759,-180.1628 201.8811,-184.4363 206.6621,-189.5493"/>
</g>
<!-- Calc stats&#45;&gt;Stats files -->
<g id="edge60" class="edge">
<title>Calc stats&#45;&gt;Stats files</title>
<path fill="none" stroke="#000000" d="M934,-71.8314C934,-64.131 934,-54.9743 934,-46.4166"/>
<polygon fill="#000000" stroke="#000000" points="937.5001,-46.4132 934,-36.4133 930.5001,-46.4133 937.5001,-46.4132"/>
</g>
</g>
</svg>
